<?xml version="1.0" standalone="no"?>
<!DOCTYPE svg PUBLIC "-//W3C//DTD SVG 1.1//EN" "http://www.w3.org/Graphics/SVG/1.1/DTD/svg11.dtd" >
<svg xmlns="http://www.w3.org/2000/svg">
<metadata>Generated by IcoMoon</metadata>
<defs>
<font id="tmicon" horiz-adv-x="1024">
<font-face units-per-em="1024" ascent="960" descent="-64" />
<missing-glyph horiz-adv-x="1024" />
<glyph unicode="&#x20;" horiz-adv-x="512" d="" />
<glyph unicode="&#xe900;" glyph-name="boxpattern2-arrowleft" d="M256 960l-256-256v256zM256-64h-256v256zM768 960l-512-512 512-512h-256l-512 512 512 512zM1024 960v-256l-256-256 256-256v-256l-512 512z" />
<glyph unicode="&#xe901;" glyph-name="linkout" d="M192 768v-672h672v274.176l-93.408-93.408-0.416-86.88h-484.32v484.256l86.912 0.448 93.408 93.408zM560.992 768l-93.408-93.408h303.008v-303.008l93.408 93.44v302.976zM474.592 444.672l323.346 323.346 66.049-66.049-323.346-323.346-66.049 66.049z" />
<glyph unicode="&#xe902;" glyph-name="boxpattern3-arrowleft" d="M0 704l256 256h256l-512-512zM1024 704v-512l-256 256zM512 704l256 256h256l-512-512 512-512h-256l-512 512zM0 448l512-512h-256l-256 256z" />
<glyph unicode="&#xe903;" glyph-name="boxpattern3-arrowdown" d="M256-64.032l-256 256v256l512-512zM256 960h512l-256-256zM256 448l-256 256v256l512-512 512 512v-256l-512-512zM512-64.032l512 512v-256l-256-256z" />
<glyph unicode="&#xe904;" glyph-name="boxpattern3-arrowtop" d="M256 960l-256-256v-256l512 512zM256-64h512l-256 256zM256 448l-256-256v-256l512 512 512-512v256l-512 512zM512 960l512-512v256l-256 256z" />
<glyph unicode="&#xe905;" glyph-name="boxpattern3-arrowright" d="M1024 704l-256 256h-256l512-512zM0 704v-512l256 256zM512 704l-256 256h-256l512-512-512-512h256l512 512zM1024 448l-512-512h256l256 256z" />
<glyph unicode="&#xe906;" glyph-name="whatsapp" d="M741.312 676.256c-56.632 56.616-134.859 91.633-221.265 91.633-172.843 0-312.96-140.117-312.96-312.96 0-57.53 15.523-111.435 42.61-157.754l-0.8 1.481-44.384-162.016 165.888 43.552c43.117-23.95 94.56-38.048 149.297-38.048 0.084 0 0.168 0 0.252 0h-0.013c0.023 0 0.051 0 0.078 0 173.394 0 314.156 139.711 315.856 312.703l0.001 0.161c-0.968 86.768-36.972 164.942-94.502 221.191l-0.058 0.057zM520.064 194.848c-0.066 0-0.145 0-0.223 0-48.793 0-94.441 13.464-133.432 36.879l1.175-0.654-9.6 5.632-98.368-25.792 26.208 96-6.048 9.888c-23.781 38.548-37.871 85.267-37.871 135.277 0 143.894 116.65 260.544 260.544 260.544 142.853 0 258.854-114.967 260.526-257.423l0.001-0.158c-1.573-144.018-118.688-260.16-262.929-260.16-0.016 0-0.033 0-0.049 0h0.002zM662.656 389.632c-7.744 3.936-46.208 22.848-53.408 25.376s-12.416 3.936-17.6-3.936-20.16-25.376-24.8-30.72-9.152-5.92-16.928-1.984c-45.595 18.535-82.353 50.974-105.851 91.985l-0.549 1.039c-8.032 13.824 8.032 12.8 22.976 42.688 0.874 1.808 1.385 3.933 1.385 6.176 0 2.767-0.777 5.353-2.125 7.551l0.036-0.063c-1.984 3.936-17.6 42.432-24.096 58.048s-12.8 13.088-17.6 13.376-9.6 0.288-14.944 0.288c-8.29-0.201-15.689-3.856-20.841-9.574l-0.023-0.026c-16.857-16.042-27.342-38.646-27.342-63.699 0-0.545 0.005-1.088 0.015-1.63l-0.001 0.081c2.822-30.889 14.42-58.626 32.247-81.22l-0.247 0.324c33.783-50.104 78.814-90.174 131.627-117.196l1.973-0.916c21.967-12.926 48.391-20.561 76.598-20.561 6.081 0 12.079 0.355 17.974 1.045l-0.716-0.068c22.51 4.67 41.188 18.278 52.504 36.863l0.2 0.353c3.448 7.7 5.456 16.689 5.456 26.146 0 3.911-0.343 7.742-1.002 11.464l0.058-0.394c-1.824 3.52-7.040 5.504-14.784 9.312z" />
<glyph unicode="&#xe907;" glyph-name="share--4" d="M732.8 704.032h-432.64c-59.735 0-108.16-48.425-108.16-108.16v0-324.416c0-0.019 0-0.041 0-0.064 0-59.735 48.425-108.16 108.16-108.16h432.64c59.735 0 108.16 48.425 108.16 108.16v0 324.48c0 59.735-48.425 108.16-108.16 108.16v0zM786.88 271.456c0-0.010 0-0.021 0-0.032 0-29.85-24.198-54.048-54.048-54.048-0.011 0-0.023 0-0.034 0h-432.638c-0.010 0-0.021 0-0.032 0-29.85 0-54.048 24.198-54.048 54.048 0 0.011 0 0.023 0 0.034v-0.002 324.416c0 0.010 0 0.021 0 0.032 0 29.85 24.198 54.048 54.048 54.048 0.011 0 0.023 0 0.034 0h432.638c0.010 0 0.021 0 0.032 0 29.85 0 54.048-24.198 54.048-54.048 0-0.011 0-0.023 0-0.034v0.002zM725.856 568.384c-4.969 5.498-12.126 8.938-20.087 8.938-7.074 0-13.513-2.716-18.332-7.163l-134.381-122.415c-9.595-8.76-22.419-14.126-36.496-14.126s-26.901 5.366-36.538 14.164l0.042-0.038-134.688 122.432c-4.737 4.179-10.996 6.73-17.851 6.73-14.934 0-27.040-12.106-27.040-27.040 0-7.754 3.264-14.747 8.493-19.677l0.013-0.013 106.976-97.28-106.944-97.12c-5.77-4.987-9.4-12.317-9.4-20.493 0-14.934 12.106-27.040 27.040-27.040 6.72 0 12.867 2.451 17.596 6.508l-0.036-0.030 1.12 1.024 112 101.664c16.596-11.216 37.053-17.904 59.072-17.904s42.476 6.688 59.449 18.145l-0.377-0.24 112-101.664c4.8-4.43 11.24-7.147 18.315-7.147 14.934 0 27.040 12.106 27.040 27.040 0 7.448-3.012 14.193-7.883 19.084l0.001-0.001c-0.352 0.352-0.768 0.704-1.12 1.024l-106.784 97.152 106.944 97.344c5.443 4.964 8.845 12.086 8.845 20.002 0 6.992-2.654 13.364-7.009 18.164l0.020-0.023z" />
<glyph unicode="&#xe908;" glyph-name="boxpattern2-arrowdown" d="M0 192l256-256h-256zM1024 192v-256h-256zM0 704l512-512 512 512v-256l-512-512-512 512zM0 960h256l256-256 256 256h256l-512-512z" />
<glyph unicode="&#xe909;" glyph-name="boxpattern2-arrowtop" d="M0 704l256 256h-256zM1024 704v256h-256zM0 192l512 512 512-512v256l-512 512-512-512zM0-64h256l256 256 256-256h256l-512 512z" />
<glyph unicode="&#xe90a;" glyph-name="boxpattern2-arrowright" d="M768 960l256-256v256zM768-64h256v256zM256 960l512-512-512-512h256l512 512-512 512zM0 960v-256l256-256-256-256v-256l512 512z" />
<glyph unicode="&#xe90b;" glyph-name="boxpattern1-d" d="M512 959.968h-512v-512zM512-64.032l512 512v512l-1024-1024z" />
<glyph unicode="&#xe90c;" glyph-name="boxpattern1-c" d="M512-64h-512v512zM512 959.968l512-512v-512l-1024 1024z" />
<glyph unicode="&#xe90d;" glyph-name="boxpattern1-b" d="M512-63.968h512v512zM512 960l-512-512v-512l1024 1024z" />
<glyph unicode="&#xe90e;" glyph-name="email" d="M879.296 228.64c0.29 0.902 0.536 1.983 0.692 3.093l0.012 0.107v448.16c0 13.255-10.745 24-24 24v0h-704c-13.255 0-24-10.745-24-24v0-448c0-13.255 10.745-24 24-24v0h704c3.402 0.001 6.636 0.719 9.559 2.012l-0.151-0.060c0.502 0.297 0.93 0.593 1.337 0.915l-0.025-0.019c2.537 1.227 4.705 2.792 6.557 4.669l0.003 0.003 0.416 0.288c0.533 0.737 2.037 3.203 3.514 5.685l1.030 1.867c0.521 1.544 0.896 3.339 1.050 5.196l0.006 0.084zM176 634.976l199.968-146.656-199.968-199.968zM493.568 461.664l-265.088 194.336h530.112zM414.496 458.976c0.224 0.224 0.288 0.512 0.48 0.736l64.384-47.168c3.916-2.916 8.85-4.669 14.192-4.669s10.276 1.753 14.256 4.714l-0.064-0.045 65.056 47.68c1.155-2.14 2.517-3.981 4.101-5.605l-0.005 0.005 217.248-198.624h-582.624zM611.2 488.352l216.832 159.040c1.493 1.289 2.8 2.728 3.918 4.31l0.050 0.074v-365.312z" />
<glyph unicode="&#xe90f;" glyph-name="livechat" d="M704.832 297.12c-6.102 0.023-11.689 2.207-16.041 5.825l0.041-0.033-113.632 94.784h-46.336c-0.754-0.010-1.645-0.016-2.537-0.016-111.093 0-201.152 90.059-201.152 201.152s90.059 201.152 201.152 201.152c0.892 0 1.783-0.006 2.672-0.017l-0.135 0.001h150.816c110.802-0.384 200.477-90.295 200.477-201.151 0-92.983-63.090-171.231-148.797-194.271l-1.407-0.322v-81.952c0-0.057 0.001-0.125 0.001-0.193 0-13.785-11.175-24.96-24.96-24.96-0.068 0-0.135 0-0.203 0.001h0.010zM528.8 749.696c-83.32 0-150.864-67.544-150.864-150.864s67.544-150.864 150.864-150.864h55.296c6.102-0.020 11.69-2.204 16.041-5.825l-0.041 0.033 79.456-66.112v48.768c-0.001 0.065-0.001 0.142-0.001 0.22 0 12.656 9.336 23.132 21.496 24.916l0.137 0.016c72.233 12.087 126.602 74.138 126.602 148.887 0 82.392-66.055 149.356-148.096 150.823l-0.137 0.002zM604.256 623.968v0c13.891 0 25.152-11.261 25.152-25.152s-11.261-25.152-25.152-25.152c-13.891 0-25.152 11.261-25.152 25.152v0c0 13.891 11.261 25.152 25.152 25.152v0zM478.56 623.968v0c13.891 0 25.152-11.261 25.152-25.152s-11.261-25.152-25.152-25.152c-13.891 0-25.152 11.261-25.152 25.152v0c0.018 13.884 11.268 25.134 25.15 25.152h0.002zM729.984 623.968v0c13.891 0 25.152-11.261 25.152-25.152s-11.261-25.152-25.152-25.152c-13.891 0-25.152 11.261-25.152 25.152v0c0 13.891 11.261 25.152 25.152 25.152v0zM302.56 95.968c-0.057 0-0.125-0.001-0.193-0.001-13.785 0-24.96 11.175-24.96 24.96 0 0.068 0 0.135 0.001 0.203v-0.010 81.984c-86.665 23.671-149.318 101.698-149.318 194.359 0 80.615 47.423 150.154 115.893 182.242l1.233 0.519c3.548 2.031 7.798 3.228 12.328 3.228 13.891 0 25.152-11.261 25.152-25.152 0-9.838-5.648-18.357-13.879-22.49l-0.145-0.066c-0.747-0.405-1.675-0.835-2.628-1.214l-0.188-0.066c-52.618-24.319-88.472-76.646-88.472-137.347 0-75.494 55.458-138.035 127.857-149.107l0.839-0.106c12.297-1.801 21.633-12.276 21.633-24.932 0-0.077 0-0.154-0.001-0.231v0.012-48.768l79.424 66.112c4.198 3.952 9.778 6.477 15.941 6.782l0.059 0.002h55.328c0.090 0 0.196 0 0.303 0 42.23 0 80.366 17.532 107.525 45.714l0.044 0.046c4.619 4.927 11.169 7.996 18.435 7.996 13.944 0 25.248-11.304 25.248-25.248 0-7.020-2.865-13.37-7.489-17.946l-0.002-0.002c-36.55-37.511-87.555-60.784-143.997-60.8h-46.243l-113.664-94.88c-4.308-3.59-9.897-5.775-15.996-5.792h-0.004z" />
<glyph unicode="&#xe910;" glyph-name="boxpattern1-a" d="M512 960h512v-512zM512-64l-512 512v512l1024-1024z" />
<glyph unicode="&#xe911;" glyph-name="arrow-downlg" d="M1024 864l-512-512-512 512v-315.744l512-512 512 512z" />
<glyph unicode="&#xe912;" glyph-name="linkedin" d="M788.16 736h-520.32c-24.212 0-43.84-19.628-43.84-43.84v0-520.32c0-24.212 19.628-43.84 43.84-43.84h520.32c24.212 0 43.84 19.628 43.84 43.84v0 520.32c0 24.212-19.628 43.84-43.84 43.84v0zM439.68 276.448h-74.048v222.752h74.048zM402.656 529.6h-0.48c-23.26 0.136-42.064 19.024-42.064 42.303 0 23.364 18.94 42.304 42.304 42.304s42.304-18.94 42.304-42.304c0-23.279-18.804-42.167-42.051-42.303h-0.013zM706.656 276.448h-74.016v119.168c0 29.952-10.72 50.368-37.504 50.368-17.46-0.114-32.291-11.247-37.895-26.789l-0.089-0.283c-1.578-4.687-2.488-10.085-2.488-15.696 0-0.839 0.020-1.672 0.061-2.501l-0.005 0.117v-124.384h-74.080s0.96 201.856 0 222.752h74.016v-31.552c12.959 22.17 36.645 36.828 63.755 36.828 1.043 0 2.080-0.022 3.112-0.065l-0.148 0.005c48.704 0 85.248-31.84 85.248-100.256z" />
<glyph unicode="&#xe913;" glyph-name="youtube" d="M888.96 618.88c-9.273 33.42-35.060 59.207-67.795 68.317l-0.685 0.163c-60.8 16.64-304 16.64-304 16.64s-243.2 0-304-16c-33.371-9.723-59.062-35.625-68.312-68.421l-0.168-0.699c-10.178-56.186-15.998-120.853-15.998-186.88s5.82-130.694 16.975-193.517l-0.977 6.637c9.273-33.42 35.060-59.207 67.795-68.317l0.685-0.163c61.44-16.64 304-16.64 304-16.64s243.2 0 304 16c33.42 9.273 59.207 35.060 68.317 67.795l0.163 0.685c10.191 54.302 16.019 116.773 16.019 180.605 0 2.206-0.007 4.411-0.021 6.614l0.002-0.34c0.042 3.382 0.066 7.375 0.066 11.374 0 62.275-5.847 123.185-17.021 182.21l0.955-6.064zM439.040 315.52v232.96l202.24-116.48z" />
<glyph unicode="&#xe914;" glyph-name="locationpin" d="M512 896c-176.658-0.182-319.818-143.342-320-319.983v-0.017c0-310.4 301.856-546.176 301.856-546.176 4.923-3.95 11.247-6.34 18.128-6.34s13.205 2.389 18.185 6.384l-0.057-0.044s301.888 235.968 301.888 546.176c-0.273 176.622-143.379 319.727-319.974 320h-0.026zM512 94.528c-31.616 27.072-261.824 227.616-261.824 481.472 0 0.143 0 0.312 0 0.481 0 144.127 116.684 261.002 260.739 261.311h1.086c0.114 0 0.249 0 0.384 0 144.254 0 261.221-116.832 261.44-261.035v-0.757c0-253.76-229.824-454.4-261.824-481.472zM512 721.504c-80.269-0.073-145.312-65.161-145.312-145.44 0-80.324 65.116-145.44 145.44-145.44s145.44 65.116 145.44 145.44c0 0.034 0 0.067 0 0.101v-0.005c-0.055 80.283-65.149 145.344-145.44 145.344-0.045 0-0.090 0-0.135 0h0.007zM512 488.8c-48.172 0-87.228 39.033-87.264 87.197v0.003c0 0.105-0.001 0.229-0.001 0.353 0 47.801 38.632 86.579 86.378 86.815h0.887c1.115 0.051 2.422 0.080 3.736 0.080 48.195 0 87.264-39.069 87.264-87.264s-39.069-87.264-87.264-87.264c-1.314 0-2.621 0.029-3.921 0.086l0.185-0.006z" />
<glyph unicode="&#xe915;" glyph-name="fb" d="M613.6 661.728h58.4v101.76c-24.736 2.876-53.396 4.517-82.439 4.517-0.942 0-1.884-0.002-2.826-0.005h0.145c-84.256 0-141.952-52.992-141.952-150.4v-89.6h-92.928v-113.76h92.96v-286.24h113.984v286.208h89.184l14.176 113.76h-103.392v78.368c0 32.864 8.896 55.392 54.688 55.392z" />
<glyph unicode="&#xe916;" glyph-name="internet" d="M520 768c-181.149 0-328-146.851-328-328s146.851-328 328-328c181.149 0 328 146.851 328 328v0c-0.219 181.062-146.939 327.782-327.979 328h-0.021zM771.2 563.2h-95.040c-9.493 51.625-27.89 97.597-53.68 138.434l0.944-1.602c64.995-26.511 116.638-74.611 147.039-135.21l0.737-1.622zM800 440c-0.053-33.191-5.911-64.996-16.614-94.479l0.614 1.935h-102.656c4.236 27.649 6.656 59.547 6.656 92.010 0 0.188 0 0.376 0 0.564v-0.030c-0.012 26.513-1.616 52.638-4.722 78.301l0.306-3.101h105.888c6.617-22.519 10.458-48.397 10.528-75.162v-0.038zM520 160c-38.624 0-80.224 53.376-102.88 139.456h205.76c-22.624-86.080-64.224-139.456-102.88-139.456zM407.168 347.456c-4.562 27.608-7.168 59.424-7.168 91.848 0 0.245 0 0.49 0 0.734v-0.038c0.014 26.524 1.747 52.629 5.091 78.228l-0.323-3.028h230.4c3.039-22.55 4.794-48.651 4.832-75.154v-0.046c0-0.26 0.001-0.568 0.001-0.876 0-32.36-2.595-64.114-7.589-95.065l0.452 3.397zM240 440c0.082 26.808 3.933 52.685 11.051 77.171l-0.491-1.971h105.856c-2.783-22.544-4.387-48.669-4.416-75.162v-0.038c0-0.062 0-0.134 0-0.207 0-32.578 2.42-64.59 7.089-95.868l-0.433 3.531h-102.656c-10.089 27.547-15.947 59.353-16 92.52v0.024zM520 720c41.184 0 85.632-60.8 107.008-156.8h-213.984c21.376 96 65.824 156.8 106.976 156.8zM416.704 700c-24.842-39.226-43.239-85.187-52.367-134.402l-0.369-2.398h-95.168c31.174 62.228 82.863 110.322 146.025 136.121l1.879 0.679zM278.24 299.456h89.76c10.025-45.208 26.909-85.162 49.73-120.963l-0.898 1.507c-58.966 24.018-106.669 65.587-137.749 118.149l-0.715 1.307zM623.456 180c21.923 34.294 38.807 74.248 48.365 116.969l0.467 2.487h89.6c-31.803-53.863-79.503-95.429-136.586-118.777l-1.878-0.679z" />
<glyph unicode="&#xe917;" glyph-name="telephone" d="M852.064 272.512l-93.088 93.088c-14.178 14.159-33.754 22.915-55.376 22.915s-41.198-8.756-55.377-22.916l-54.975-55.007c-51.361 30.227-95.677 64.888-134.916 104.579l-0.060 0.061c-39.751 39.293-74.402 83.61-102.958 131.956l-1.65 3.020 55.040 54.976c14.161 14.183 22.918 33.765 22.918 55.392s-8.757 41.209-22.919 55.393l-93.119 93.087c-14.19 14.145-33.77 22.891-55.392 22.891s-41.202-8.746-55.394-22.893l0.002 0.002-16.224-16.192c-56.768-56.896-74.4-144.352-49.664-246.752 31.28-111.624 89.673-207.080 167.741-282.245l0.195-0.187c75.322-78.3 170.792-136.693 278.079-166.858l4.353-1.046c25.811-6.685 55.491-10.639 86.056-10.879l0.152-0.001c2.543-0.105 5.526-0.165 8.524-0.165 58.924 0 112.434 23.179 151.911 60.916l-0.083-0.079 16.224 16.192c14.159 14.178 22.915 33.754 22.915 55.376s-8.756 41.198-22.916 55.377l0.001-0.001zM812.8 201.12l-16.192-16.192c-42.496-42.496-111.456-54.912-194.144-34.944-101.294 28.666-187.869 81.883-256.005 152.924l-0.187 0.196c-71.311 68.285-124.576 154.857-152.283 252.195l-0.965 3.965c-19.968 82.688-7.424 151.68 34.912 194.176l16.224 16.192c4.091 4.103 9.749 6.642 16 6.642s11.909-2.539 15.999-6.642l93.121-93.057c4.103-4.091 6.642-9.749 6.642-16s-2.539-11.909-6.642-15.999l-69.761-69.697c-5.072-5.048-8.211-12.035-8.211-19.755 0-4.659 1.143-9.050 3.164-12.91l-0.073 0.153c34.527-63.835 75.952-118.626 124.391-166.313l0.089-0.087c47.771-48.49 102.563-89.875 162.77-122.55l3.63-1.802c3.716-1.957 8.12-3.105 12.793-3.105 7.7 0 14.671 3.119 19.72 8.161v0l69.696 69.696c4.091 4.103 9.749 6.642 16 6.642s11.909-2.539 15.999-6.642l93.313-93.249c4.103-4.091 6.642-9.749 6.642-16s-2.539-11.909-6.642-15.999l-0.001-0.001z" />
<glyph unicode="&#xe918;" glyph-name="fax" d="M775.296 625.024c-1.856-0.186-3.55-0.536-5.176-1.041l0.184 0.049v148.992c-0.054 14.91-12.154 26.976-27.072 26.976-0.034 0-0.068 0-0.101 0h-298.331c-14.951 0-27.072-12.121-27.072-27.072v0-147.904h-58.656c-14.468 31.958-46.025 53.819-82.703 53.952h-57.617c-50.073-0.091-90.643-40.649-90.752-90.71v-397.034c0.091-50.073 40.649-90.643 90.71-90.752h57.61c25.278 0.045 48.12 10.432 64.53 27.154l0.014 0.014h434.432c1.143-0.049 2.484-0.076 3.831-0.076 51.583 0 93.664 40.684 95.906 91.714l0.007 0.202v313.6c-2.283 51.204-44.35 91.853-95.91 91.853-1.348 0-2.69-0.028-4.025-0.083l0.191 0.006zM472 745.984h243.904v-222.336h-243.904zM312.96 191.232c-0.036-20.203-16.405-36.572-36.605-36.608h-57.603c-20.211 0.018-36.59 16.397-36.608 36.606v397.026c0.036 20.197 16.409 36.558 36.606 36.576h57.602c20.185-0.054 36.535-16.394 36.608-36.569v-0.007zM820.896 219.456c-2.345-21.352-20.283-37.815-42.065-37.815-1.256 0-2.498 0.055-3.726 0.162l0.159-0.011h-409.152c0.446 2.73 0.789 6.036 0.952 9.389l0.008 0.211v379.488h50.784v-74.304c0-14.951 12.121-27.072 27.072-27.072v0h298.304c14.951 0 27.072 12.121 27.072 27.072v0 75.296c1.442-0.456 3.136-0.806 4.882-0.983l0.11-0.009c1.069 0.096 2.311 0.151 3.567 0.151 21.765 0 39.688-16.449 42.016-37.593l0.017-0.19zM484.608 403.424c-0.322 0.014-0.7 0.021-1.080 0.021-14.589 0-26.489-11.513-27.111-25.949l-0.002-0.056q0-1.088 0-2.208c0.613-14.483 12.503-25.993 27.081-25.993 14.969 0 27.104 12.135 27.104 27.104 0 14.578-11.51 26.469-25.938 27.079l-0.055 0.002zM596.256 403.424c-0.322 0.014-0.7 0.021-1.080 0.021-14.589 0-26.489-11.513-27.111-25.949l-0.002-0.056q0-1.088 0-2.208c0.613-14.483 12.503-25.993 27.081-25.993 14.969 0 27.104 12.135 27.104 27.104 0 14.578-11.51 26.469-25.938 27.079l-0.055 0.002zM707.904 403.424c-0.322 0.014-0.7 0.021-1.080 0.021-14.589 0-26.489-11.513-27.111-25.949l-0.002-0.056q0-1.088 0-2.208c0.613-14.483 12.503-25.993 27.081-25.993 14.969 0 27.104 12.135 27.104 27.104 0 14.578-11.51 26.469-25.938 27.079l-0.055 0.002zM484.608 312.832c-0.322 0.014-0.7 0.021-1.080 0.021-14.589 0-26.489-11.513-27.111-25.949l-0.002-0.056q0-1.12 0-2.208c0.613-14.483 12.503-25.993 27.081-25.993 14.969 0 27.104 12.135 27.104 27.104 0 14.578-11.51 26.469-25.938 27.079l-0.055 0.002zM596.256 312.832c-0.322 0.014-0.7 0.021-1.080 0.021-14.589 0-26.489-11.513-27.111-25.949l-0.002-0.056q0-1.12 0-2.208c0.613-14.483 12.503-25.993 27.081-25.993 14.969 0 27.104 12.135 27.104 27.104 0 14.578-11.51 26.469-25.938 27.079l-0.055 0.002zM707.904 312.832c-0.322 0.014-0.7 0.021-1.080 0.021-14.589 0-26.489-11.513-27.111-25.949l-0.002-0.056q0-1.12 0-2.208c0.613-14.483 12.503-25.993 27.081-25.993 14.969 0 27.104 12.135 27.104 27.104 0 14.578-11.51 26.469-25.938 27.079l-0.055 0.002z" />
<glyph unicode="&#xe919;" glyph-name="cgd-coc" d="M512-64c-0.014 0-0.031 0-0.048 0-3.821 0-7.446 0.837-10.702 2.338l0.159-0.066c-351.456 159.328-501.408 423.68-501.408 883.872 0 0.001 0 0.001 0 0.002 0 14.138 11.462 25.6 25.6 25.6 2.932 0 5.749-0.493 8.372-1.4l-0.18 0.054c42.194-14.715 90.865-23.729 141.481-24.855l0.535-0.009c124.019 1.002 236.198 50.876 318.387 131.281l-0.083-0.081c4.609 4.497 10.916 7.271 17.872 7.271s13.263-2.774 17.877-7.276l-0.005 0.005c82.212-80.383 194.535-130.269 318.507-131.199l0.181-0.001c51.027 1.181 99.56 10.191 144.984 25.87l-3.352-1.006c2.453 0.86 5.28 1.357 8.224 1.357 14.138 0 25.6-11.462 25.6-25.6 0-0.005 0-0.009 0-0.014v0.001c0-460.192-149.952-724.512-501.408-883.84-3.11-1.452-6.751-2.301-10.591-2.304h-0.001zM51.552 787.648c9.632-514.56 235.744-693.76 460.448-797.856 224.672 104.096 450.784 283.296 460.448 797.856-36.683-10.084-78.979-16.341-122.581-17.302l-0.587-0.010h-0.768c-129.476 0.849-247.391 49.66-337.021 129.533l0.509-0.445c-89.12-79.428-207.035-128.239-336.336-129.087l-0.176-0.001c-44.444 0.933-87.012 7.192-127.644 18.165l3.708-0.853zM474.592 310.144c-0.073-0.001-0.158-0.001-0.244-0.001-7.001 0-13.345 2.81-17.967 7.364l0.003-0.003-112 112.384c-4.635 4.635-7.502 11.039-7.502 18.112 0 14.146 11.468 25.614 25.614 25.614 7.073 0 13.477-2.867 18.112-7.502v0l93.984-94.208 206.368 206.368c4.553 4.23 10.675 6.825 17.403 6.825 14.138 0 25.6-11.462 25.6-25.6 0-6.704-2.577-12.807-6.795-17.371l0.016 0.017-224.48-224.64c-4.632-4.627-11.028-7.488-18.092-7.488-0.007 0-0.014 0-0.021 0h0.001z" />
<glyph unicode="&#xe91a;" glyph-name="cgd-consitution" d="M817.792 856.576v0zM287.776 32.544h208v859.648l-266.272-75.040 152.288-249.408v-6.944c-0.15-52.732-21.584-100.428-56.159-134.975l-0.961-0.961c-34.417-33.105-81.272-53.495-132.89-53.495-104.816 0-189.995 84.074-191.779 188.464l-0.002 0.167c0 0.042-0.001 0.092-0.001 0.142 0 3.277 1.030 6.313 2.785 8.802l-0.032-0.048 0.192 0.32 151.008 247.104c-15.364 1.573-28.914 8.317-39.108 18.436l0.004-0.004c-11.618 11.567-18.817 27.564-18.848 45.242v0.006h32c0-17.673 14.327-32 32-32v0h13.344l5.088 8.256c2.866 4.589 7.89 7.597 13.616 7.597s10.75-3.008 13.577-7.53l0.039-0.067 5.088-8.256h11.744l273.504 77.12v34.88h32v-34.88l273.376-77.12h11.424l5.088 8.256c2.866 4.589 7.89 7.597 13.616 7.597s10.75-3.008 13.577-7.53l0.039-0.067 5.088-8.256h13.44c8.804 0.002 16.777 3.559 22.561 9.313l-0.001-0.001c5.826 5.75 9.436 13.733 9.44 22.559v0.001h32c-0.172-33.073-25.329-60.218-57.55-63.529l-0.274-0.023 151.968-248.768v-6.944c-0.135-52.734-21.573-100.435-56.158-134.974l-0.002-0.002-0.928-0.96c-34.42-33.122-81.287-53.522-132.919-53.522-104.893 0-190.12 84.198-191.783 188.694l-0.002 0.156c0 0.045-0.001 0.099-0.001 0.152 0 3.274 1.031 6.307 2.785 8.792l-0.032-0.048 0.192 0.32 151.328 247.52-265.952 74.944v-859.68h208c26.51 0 48-21.49 48-48v0-48h-543.904v48c0 26.51 21.49 48 48 48v0zM978.88 576.32l-146.656 240h-1.696l-146.656-240h295.008zM944.448 447.264c25.272 25.227 42.134 58.872 46.022 96.371l0.058 0.685h-318.304c3.865-38.184 20.707-71.844 45.981-97.053l0.003-0.003c28.947-28.908 68.915-46.785 113.059-46.785 43.776 0 83.447 17.581 112.336 46.067l-0.018-0.018zM339.2 576.32l-146.656 240h-1.696l-146.656-240h295.008zM304.736 447.264c25.265 25.236 42.132 58.874 46.053 96.365l0.059 0.691h-318.304c3.851-38.187 20.696-71.851 45.98-97.052l0.004-0.004c28.958-28.975 68.971-46.897 113.171-46.897 43.769 0 83.432 17.574 112.32 46.051l-0.019-0.019zM735.488 0.544h-448c-8.837 0-16-7.163-16-16v0-16h480v16c0 8.837-7.163 16-16 16v0z" />
<glyph unicode="&#xe91b;" glyph-name="cgd-rf" d="M981.344 192h-170.688v85.344c0 11.788-9.556 21.344-21.344 21.344v0h-256v64h170.688c23.558 0 42.656 19.098 42.656 42.656v0 170.656c0 23.558-19.098 42.656-42.656 42.656v0h-170.656v85.344h170.656c23.558 0 42.656 19.098 42.656 42.656v0 170.688c0 23.558-19.098 42.656-42.656 42.656v0h-384c-23.558 0-42.656-19.098-42.656-42.656v0-170.688c0-23.558 19.098-42.656 42.656-42.656v0h170.656v-85.344h-170.656c-23.558 0-42.656-19.098-42.656-42.656v0-170.656c0-0.009 0-0.021 0-0.032 0-23.558 19.098-42.656 42.656-42.656h170.656v-64h-256c-11.788 0-21.344-9.556-21.344-21.344v0-85.312h-170.656c-23.558 0-42.656-19.098-42.656-42.656v0-170.656c0-0.009 0-0.021 0-0.032 0-23.558 19.098-42.656 42.656-42.656h384c23.558 0 42.656 19.098 42.656 42.656v0 170.688c0 23.558-19.098 42.656-42.656 42.656h-170.656v64h512v-64h-170.656c-23.558 0-42.656-19.098-42.656-42.656v0-170.656c0-0.009 0-0.021 0-0.032 0-23.558 19.098-42.656 42.656-42.656h384c23.558 0 42.656 19.098 42.656 42.656v0 170.688c0 23.558-19.098 42.656-42.656 42.656v0zM426.656-21.344h-384v170.688h384zM320 917.344h384v-170.688h-384zM320 576h384v-170.656h-384zM981.344-21.344h-384v170.688h384z" />
<glyph unicode="&#xe91c;" glyph-name="cgd-bc" d="M851.968 467.904c-10.683 0-19.344-8.661-19.344-19.344s8.661-19.344 19.344-19.344v0h8.512c10.683 0 19.344 8.661 19.344 19.344s-8.661 19.344-19.344 19.344v0zM860.512 744.256c10.683 0 19.344 8.661 19.344 19.344s-8.661 19.344-19.344 19.344v0h-8.512c-10.683 0-19.344-8.661-19.344-19.344s8.661-19.344 19.344-19.344v0zM390.112-64h414.4c113.108 0 204.8 91.692 204.8 204.8v0 614.4c-0.091 113.071-91.729 204.709-204.791 204.8h-452.969c-10.683 0-19.344-8.661-19.344-19.344s8.661-19.344 19.344-19.344v0h452.96c91.648-0.2 165.884-74.459 166.048-166.096v-614.416c0-91.706-74.342-166.048-166.048-166.048v0h-414.4c-91.653 0.163-165.912 74.4-166.112 166.029v614.419c0 113.108-91.692 204.8-204.8 204.8v0c-10.683 0-19.344-8.661-19.344-19.344s8.661-19.344 19.344-19.344v0c91.703-0.127 166.012-74.414 166.176-166.096v-614.416c0.091-113.071 91.729-204.709 204.791-204.8h0.009zM258.24 921.312h9.248c10.683 0 19.344 8.661 19.344 19.344s-8.661 19.344-19.344 19.344v0h-9.248c-10.683 0-19.344-8.661-19.344-19.344s8.661-19.344 19.344-19.344v0zM429.408 586.752h431.072c10.683 0 19.344 8.661 19.344 19.344s-8.661 19.344-19.344 19.344v0h-431.072c-10.683 0-19.344-8.661-19.344-19.344s8.661-19.344 19.344-19.344v0zM941.792 111.648c0.517 1.657 0.815 3.562 0.815 5.536 0 5.346-2.185 10.181-5.709 13.662l-114.274 114.274v3.648c0 1.472 0 3.040 0 4.576 0 59.7-48.396 108.096-108.096 108.096s-108.096-48.396-108.096-108.096v0c0-1.568 0-3.2 0-4.576v-3.648l-114.272-114.272c-3.582-3.491-5.804-8.364-5.804-13.755 0-9.26 6.556-16.99 15.28-18.8l0.124-0.022 47.136-10.368 10.368-47.136c1.831-8.848 9.561-15.404 18.821-15.404 5.391 0 10.264 2.222 13.751 5.8l114.244 114.276h3.648c2.912 0 6.4 0 9.184 0h3.648l114.272-114.272c3.491-3.582 8.364-5.804 13.755-5.804 9.26 0 16.99 6.556 18.8 15.28l0.022 0.124 10.368 47.136 47.136 10.368c6.952 1.54 12.409 6.689 14.366 13.336l0.034 0.136zM589.504 83.584l-5.44 24.736c-1.671 7.377-7.375 13.081-14.622 14.727l-0.13 0.025-24.704 5.44 73.92 73.92 5.6-8.48c8.211-12.336 18.48-22.605 30.42-30.568l0.396-0.248 8.48-5.6zM714.304 183.936c-38.333 0-69.408 31.075-69.408 69.408s31.075 69.408 69.408 69.408c38.333 0 69.408-31.075 69.408-69.408v0c-0.036-38.318-31.090-69.372-69.405-69.408h-0.003zM859.328 123.136c-7.377-1.671-13.081-7.375-14.727-14.622l-0.025-0.13-5.44-24.736-73.92 73.92 8.48 5.6c12.336 8.211 22.605 18.48 30.568 30.42l0.248 0.396 5.6 8.48 73.92-73.92zM336.16 586.752h8.512c10.683 0 19.344 8.661 19.344 19.344s-8.661 19.344-19.344 19.344v0h-8.512c-10.683 0-19.344-8.661-19.344-19.344s8.661-19.344 19.344-19.344v0zM336.16 429.216h431.072c10.683 0 19.344 8.661 19.344 19.344s-8.661 19.344-19.344 19.344v0h-431.072c-10.683 0-19.344-8.661-19.344-19.344s8.661-19.344 19.344-19.344v0zM336.16 744.256h431.072c10.683 0 19.344 8.661 19.344 19.344s-8.661 19.344-19.344 19.344v0h-431.072c-10.683 0-19.344-8.661-19.344-19.344s8.661-19.344 19.344-19.344v0z" />
<glyph unicode="&#xe91d;" glyph-name="cgd-statement" d="M96.96 960h822.88c44.691-0.055 80.905-36.269 80.96-80.955v-301.893c0-459.136-389.056-611.2-467.040-636.96-7.567-2.653-16.291-4.185-25.374-4.185-9.561 0-18.724 1.698-27.207 4.809l0.548-0.176c-76.672 25.344-465.728 177.376-465.728 636.512v301.888c0.055 44.691 36.269 80.905 80.955 80.96h0.005zM508.064 15.776c69.568 22.784 413.12 156.992 413.12 561.376v301.888l-824.224 1.344c-0.742 0-1.344-0.602-1.344-1.344v0-301.888c0-404.352 343.584-538.592 412.448-561.376zM507.872 424.224c-21.985 0-39.808 17.823-39.808 39.808 0 0.011 0 0.023 0 0.034v-0.002 209.024c0 21.985 17.823 39.808 39.808 39.808v0c21.985 0 39.808-17.823 39.808-39.808v0-209.024c0-0.009 0-0.021 0-0.032 0-21.985-17.823-39.808-39.808-39.808v0zM508.416 344.16c34.091 0 61.728-27.637 61.728-61.728s-27.637-61.728-61.728-61.728c-34.091 0-61.728 27.637-61.728 61.728v0c0 34.091 27.637 61.728 61.728 61.728v0z" />
<glyph unicode="&#xe91e;" glyph-name="cgd-report" d="M1006.144 412.576c-0.551 0.051-1.191 0.080-1.839 0.080-10.766 0-19.645-8.081-20.903-18.508l-0.010-0.101c-25.142-238.494-225.175-422.735-468.239-422.735-259.954 0-470.688 210.734-470.688 470.688 0 243.065 184.241 443.097 420.688 468.064l2.047 0.175c10.514 1.107 18.636 9.925 18.636 20.64 0 11.459-9.289 20.748-20.748 20.748-0.744 0-1.479-0.039-2.202-0.115l0.090 0.008c-259.614-27.322-460.185-245.054-460.185-509.631 0-282.929 229.359-512.288 512.288-512.288 264.444 0 482.090 200.369 509.4 457.57l0.193 2.238c0.085 0.709 0.134 1.53 0.134 2.363 0 10.76-8.12 19.623-18.567 20.796l-0.095 0.009zM1024.672 493.856c-25.75 241.464-215.784 431.498-454.998 457.053l-2.25 0.195-22.752 2.528v-482.528h482.528zM585.92 512.384v394.496c203.623-32.189 362.339-190.905 394.178-391.85l0.35-2.678zM421.312 777.632c3.897 3.791 6.314 9.085 6.314 14.944 0 11.511-9.331 20.842-20.842 20.842-5.652 0-10.778-2.25-14.533-5.903l0.005 0.005-240-235.36c-3.839-3.82-6.214-9.107-6.214-14.949 0-5.633 2.208-10.749 5.806-14.532l-0.008 0.009c3.71-3.923 8.942-6.373 14.747-6.4h0.005c5.57 0.055 10.608 2.29 14.309 5.893l-0.005-0.005zM188.896 253.856c5.57 0.055 10.608 2.29 14.309 5.893l-0.005-0.005 252.224 247.168c3.897 3.791 6.314 9.085 6.314 14.944 0 11.511-9.331 20.842-20.842 20.842-5.652 0-10.778-2.25-14.533-5.903l0.005 0.005-252.224-247.168c-3.839-3.82-6.214-9.107-6.214-14.949 0-5.633 2.208-10.749 5.806-14.532l-0.008 0.009c3.862-3.932 9.227-6.376 15.163-6.4h0.005zM340.896 98.464c5.57 0.055 10.608 2.29 14.309 5.893l-0.005-0.005 253.888 248.416c3.897 3.791 6.314 9.085 6.314 14.944 0 11.511-9.331 20.842-20.842 20.842-5.652 0-10.778-2.25-14.533-5.903l0.005 0.005-253.888-248.416c-3.839-3.82-6.214-9.107-6.214-14.949 0-5.633 2.208-10.749 5.806-14.532l-0.008 0.009c3.903-3.867 9.242-6.291 15.147-6.4h0.021zM623.008 69.824c5.57 0.055 10.608 2.29 14.309 5.893l-0.005-0.005 240.832 235.776c3.897 3.791 6.314 9.085 6.314 14.944 0 11.511-9.331 20.842-20.842 20.842-5.652 0-10.778-2.25-14.533-5.903l0.005 0.005-240.832-235.776c-3.839-3.82-6.214-9.107-6.214-14.949 0-5.633 2.208-10.749 5.806-14.532l-0.008 0.009c3.903-3.867 9.242-6.291 15.147-6.4h0.021z" />
<glyph unicode="&#xe91f;" glyph-name="arrow-rightlg" d="M96 960l512-512-512-512h315.744l512 512-512 512z" />
<glyph unicode="&#xe920;" glyph-name="arrow-toplg" d="M1024 36.256l-512 512-512-512v315.744l512 512 512-512z" />
<glyph unicode="&#xe921;" glyph-name="arrow-leftlg" d="M923.744 960l-512-512 512-512h-315.744l-512 512 512 512z" />
<glyph unicode="&#xe922;" glyph-name="quote-right" d="M619.168 204.352q88.416 16.672 124.288 128c11.178 32.435 17.732 69.815 17.952 108.697v0.103c0.003 0.249 0.004 0.542 0.004 0.836 0 3.541-0.234 7.027-0.688 10.445l0.043-0.401q-0.64 4.48-1.92 19.872h-139.648v279.328h272.864v-257.536q0-189.632-75.584-292.128c-45.226-64.088-115.332-108.025-195.97-117.756l-1.342-0.132zM187.392 204.352c47.415 7.665 86.489 37.627 106.633 78.58l0.375 0.844c23.047 43.476 36.578 95.045 36.578 149.775 0 2.302-0.024 4.598-0.072 6.888l0.006-0.342q0 7.68-0.64 15.36c-0.584 6.185-1.715 11.85-3.361 17.291l0.161-0.619h-139.648v279.328h274.144v-257.536c0.057-2.999 0.089-6.537 0.089-10.082 0-95.808-23.709-186.079-65.58-265.265l1.491 3.091c-41.305-77.395-118.784-130.737-209.246-137.548l-0.866-0.052z" />
<glyph unicode="&#xe923;" glyph-name="instagram" d="M830.336 557.248c-0.554 26.58-5.694 51.798-14.657 75.119l0.513-1.519c-16.174 40.964-47.996 72.786-87.906 88.592l-1.054 0.368c-21.802 8.432-47.016 13.571-73.357 14.14l-0.243 0.004c-32.544 1.536-42.88 1.888-125.408 1.888s-92.8-0.352-125.312-1.792c-26.581-0.56-51.798-5.699-75.121-14.658l1.521 0.514c-40.967-16.17-72.79-47.993-88.592-87.906l-0.368-1.054c-8.433-21.802-13.572-47.017-14.14-73.357l-0.004-0.243c-1.536-32.544-1.888-42.88-1.888-125.44s0.352-92.8 1.792-125.312c0.558-26.581 5.698-51.798 14.657-75.121l-0.513 1.521c16.17-40.967 47.993-72.79 87.906-88.592l1.054-0.368c21.802-8.436 47.017-13.575 73.359-14.14l0.241-0.004c32.416-1.44 42.752-1.792 125.312-1.792s92.8 0.352 125.312 1.792c26.581 0.556 51.798 5.696 75.12 14.657l-1.52-0.513c40.98 16.15 72.811 47.981 88.593 87.907l0.367 1.053c8.438 21.802 13.577 47.018 14.14 73.36l0.004 0.24c1.44 32.416 1.792 42.752 1.792 125.312s0 92.8-1.536 125.312zM775.584 309.024c-0.218-20.316-4.037-39.676-10.847-57.56l0.383 1.144c-10.475-26.522-31.078-47.126-56.918-57.362l-0.682-0.238c-16.742-6.402-36.101-10.208-56.32-10.431l-0.096-0.001c-32-1.44-41.6-1.792-122.816-1.792s-90.848 0.352-122.816 1.792c-20.313 0.211-39.673 4.018-57.562 10.814l1.146-0.382c-26.559 10.416-47.184 31.041-57.364 56.919l-0.236 0.681c-6.404 16.743-10.211 36.102-10.431 56.322l-0.001 0.094c-1.44 32-1.792 41.6-1.792 122.816s0.352 90.848 1.792 122.816c0.205 20.312 4.013 39.673 10.814 57.56l-0.382-1.144c5.111 13.717 12.894 25.389 22.784 34.882l0.032 0.030c9.568 9.817 21.227 17.546 34.262 22.473l0.65 0.215c16.74 6.412 36.097 10.23 56.316 10.463l0.1 0.001c32 1.408 41.6 1.792 122.816 1.792s90.88-0.352 122.816-1.792c20.316-0.219 39.676-4.038 57.561-10.847l-1.145 0.383c13.696-5.112 25.361-12.846 34.89-22.665l0.022-0.023c9.815-9.569 17.544-21.228 22.472-34.262l0.216-0.65c6.414-16.74 10.232-36.098 10.463-56.317l0.001-0.099c1.408-32 1.792-41.6 1.792-122.816s-0.352-90.624-1.792-122.688zM528.064 588.128c-86.262 0-156.192-69.93-156.192-156.192s69.93-156.192 156.192-156.192c86.262 0 156.192 69.93 156.192 156.192v0c-0.018 86.255-69.937 156.174-156.19 156.192h-0.002zM528.064 330.624c-55.953 0-101.312 45.359-101.312 101.312s45.359 101.312 101.312 101.312c55.953 0 101.312-45.359 101.312-101.312v0c0-55.953-45.359-101.312-101.312-101.312v0zM726.88 594.304c0-20.13-16.318-36.448-36.448-36.448s-36.448 16.318-36.448 36.448c0 20.118 16.3 36.43 36.414 36.448h0.002c0.010 0 0.021 0 0.032 0 20.13 0 36.448-16.318 36.448-36.448v0z" />
<glyph unicode="&#xe924;" glyph-name="twitter" d="M861.536 639.584c-23.015-10.324-49.717-17.937-77.681-21.515l-1.423-0.149c28.456 17.089 49.831 43.487 60.111 74.907l0.273 0.965c-25.055-15.118-54.217-26.643-85.282-32.919l-1.758-0.297c-25.149 26.743-60.755 43.404-100.252 43.424h-0.004c-75.768-0.018-137.184-61.445-137.184-137.216 0-0.034 0-0.067 0-0.101v0.005c-0.004-0.404-0.007-0.882-0.007-1.36 0-10.606 1.168-20.939 3.383-30.877l-0.176 0.941c-114.407 5.785-215.039 60.223-282.353 142.876l-0.559 0.708c-11.775-19.88-18.748-43.81-18.784-69.366v-0.010c0.071-47.338 24.036-89.064 60.477-113.771l0.483-0.309c-22.852 0.627-44.128 6.814-62.698 17.248l0.682-0.352v-1.504c0.077-66.21 46.807-121.484 109.082-134.719l0.902-0.161c-10.469-2.868-22.489-4.516-34.894-4.516-0.389 0-0.777 0.002-1.165 0.005h0.060c-0.652-0.013-1.42-0.020-2.19-0.020-8.421 0-16.641 0.858-24.578 2.491l0.784-0.135c18.268-54.892 68.49-94.060 128.076-95.612l0.18-0.004c-46.33-36.491-105.532-58.528-169.881-58.528-0.104 0-0.207 0-0.311 0h0.016c-0.51-0.004-1.113-0.006-1.717-0.006-10.978 0-21.795 0.688-32.411 2.023l1.264-0.13c59.138-38.626 131.546-61.602 209.321-61.602 0.436 0 0.871 0.001 1.306 0.002h-0.067c0.811-0.006 1.769-0.010 2.729-0.010 214.269 0 387.968 173.699 387.968 387.968 0 0.926-0.003 1.851-0.010 2.776l0.001-0.142c0 6.080-0.224 11.936-0.512 17.728 27.179 19.602 50.025 43.233 68.177 70.279l0.623 0.985z" />
<glyph unicode="&#xe925;" glyph-name="quote-left" d="M436.832 659.648q-88.416-16.672-124.288-128c-11.178-32.435-17.732-69.815-17.952-108.697v-0.103c-0.003-0.249-0.004-0.542-0.004-0.836 0-3.541 0.234-7.027 0.688-10.445l-0.043 0.401q0.64-4.48 1.92-19.872h139.648v-279.328h-272.864v257.536q0 189.632 75.584 292.128c45.226 64.088 115.332 108.025 195.97 117.756l1.342 0.132zM868.608 659.648c-47.415-7.665-86.489-37.627-106.633-78.58l-0.375-0.844c-23.047-43.476-36.578-95.045-36.578-149.775 0-2.302 0.024-4.598 0.072-6.888l-0.006 0.342q0-7.68 0.64-15.36c0.584-6.185 1.715-11.85 3.361-17.291l-0.161 0.619h139.648v-279.328h-274.144v257.536c-0.057 2.999-0.089 6.537-0.089 10.082 0 95.808 23.709 186.079 65.58 265.265l-1.491-3.091c41.305 77.395 118.784 130.737 209.246 137.548l0.866 0.052z" />
<glyph unicode="&#xe926;" glyph-name="share" d="M722.4 357.888c-31.173-0.029-59.282-13.12-79.153-34.094l-0.047-0.050-233.376 114.208c0.84 4.863 1.32 10.463 1.32 16.176s-0.48 11.313-1.403 16.763l0.082-0.587 232.928 112.96c19.995-21.083 48.21-34.201 79.488-34.201 60.46 0 109.472 49.012 109.472 109.472s-49.012 109.472-109.472 109.472c-60.46 0-109.472-49.012-109.472-109.472 0-0.048 0-0.095 0-0.143v0.007c0.041-5.681 0.505-11.219 1.362-16.626l-0.082 0.626-232.832-112.928c-20.031 21.256-48.372 34.492-79.804 34.492-60.513 0-109.568-49.055-109.568-109.568s49.055-109.568 109.568-109.568c31.219 0 59.389 13.057 79.346 34.007l0.042 0.045 233.248-114.208c-0.778-4.905-1.223-10.56-1.223-16.32 0-60.495 49.041-109.536 109.536-109.536s109.536 49.041 109.536 109.536c0 60.495-49.041 109.536-109.536 109.536-0.031 0-0.063 0-0.094 0h0.005z" />
<glyph unicode="&#xe927;" glyph-name="download" d="M889.824 612.096c0 0.576-0.16 1.152-0.256 1.728s0 1.024-0.224 1.536-0.352 1.408-0.512 2.112-0.16 0.704-0.288 1.088-0.48 1.344-0.704 2.016-0.256 0.704-0.384 1.056-0.512 1.12-0.8 1.664-0.384 0.864-0.608 1.312-0.448 0.768-0.704 1.152-0.64 1.12-0.992 1.664l-0.32 0.448c-1.17 1.695-2.4 3.179-3.748 4.548l0.004-0.004-252.576 253.792c-6.012 6.048-14.337 9.792-23.537 9.792-0.005 0-0.011 0-0.016 0h-332.991c-61.443-0.218-111.168-50.078-111.168-111.551 0-0.045 0-0.090 0-0.136v0.007-672.64c0-0.038 0-0.083 0-0.129 0-61.473 49.725-111.333 111.147-111.551h507.669c61.443 0.218 111.168 50.078 111.168 111.551 0 0.056 0 0.113 0 0.169v-0.009 497.024q0 1.696-0.16 3.2zM637.344 781.696l139.040-139.68h-94.4c-24.66 0.109-44.608 20.125-44.608 44.8 0 0 0 0 0 0v0zM778.816 66.88h-507.648c-24.66 0.109-44.608 20.125-44.608 44.8 0 0 0 0 0 0v0 672.64c0 0 0 0 0 0 0 24.675 19.948 44.691 44.598 44.8h299.626v-142.112c0-0.038 0-0.083 0-0.129 0-61.473 49.725-111.333 111.147-111.551h141.493v-463.648c0 0 0 0 0 0 0-24.675-19.948-44.691-44.598-44.8h-0.010zM622.208 345.568l-64-64.288v206.784c0 18.38-14.9 33.28-33.28 33.28s-33.28-14.9-33.28-33.28v0-206.784l-64 64.288c-6.012 6.048-14.337 9.791-23.536 9.791s-17.524-3.743-23.534-9.789l-0.002-0.002c-6.030-6.062-9.757-14.42-9.757-23.648s3.727-17.586 9.759-23.649l-0.001 0.001 120.8-121.344c5.989-6.085 14.314-9.856 23.52-9.856s17.531 3.771 23.516 9.851l0.004 0.004 120.8 121.216c6.030 6.062 9.757 14.42 9.757 23.648s-3.727 17.586-9.759 23.649l0.001-0.001c-6.012 6.048-14.337 9.791-23.536 9.791s-17.524-3.743-23.534-9.789l-0.002-0.002z" />
<glyph unicode="&#xe928;" glyph-name="filter" d="M922.208 667.648h-562.4c-18.274 0-33.088 14.814-33.088 33.088s14.814 33.088 33.088 33.088h562.4c18.274 0 33.088-14.814 33.088-33.088s-14.814-33.088-33.088-33.088v0zM227.456 667.648h-99.2c-0.005 0-0.010 0-0.016 0-18.274 0-33.088 14.814-33.088 33.088 0 18.268 14.805 33.079 33.071 33.088h99.201c18.274 0 33.088-14.814 33.088-33.088s-14.814-33.088-33.088-33.088v0zM690.624 403.008h-562.4c-18.274 0-33.088 14.814-33.088 33.088s14.814 33.088 33.088 33.088h562.4c18.274 0 33.088-14.814 33.088-33.088s-14.814-33.088-33.088-33.088v0zM359.808 138.336h-231.584c-18.274 0-33.088 14.814-33.088 33.088s14.814 33.088 33.088 33.088v0h231.584c18.274 0 33.088-14.814 33.088-33.088s-14.814-33.088-33.088-33.088v0zM293.6 601.6c-54.787 0-99.2 44.413-99.2 99.2s44.413 99.2 99.2 99.2c54.787 0 99.2-44.413 99.2-99.2v0c0-54.787-44.413-99.2-99.2-99.2v0zM293.6 733.92c-18.26-0.018-33.056-14.825-33.056-33.088 0-18.274 14.814-33.088 33.088-33.088 18.263 0 33.070 14.796 33.088 33.054v0.002c-0.036 18.246-14.836 33.024-33.088 33.024-0.011 0-0.023 0-0.034 0h0.002zM756.736 336.928c-54.787 0-99.2 44.413-99.2 99.2s44.413 99.2 99.2 99.2c54.787 0 99.2-44.413 99.2-99.2v0c0-54.787-44.413-99.2-99.2-99.2v0zM756.736 469.248c-18.26-0.018-33.056-14.825-33.056-33.088 0-18.274 14.814-33.088 33.088-33.088 18.263 0 33.070 14.796 33.088 33.054v0.002c-0.036 18.246-14.836 33.024-33.088 33.024-0.011 0-0.023 0-0.034 0h0.002zM425.92 72.288c-54.787 0-99.2 44.413-99.2 99.2s44.413 99.2 99.2 99.2c54.787 0 99.2-44.413 99.2-99.2v0c0-54.787-44.413-99.2-99.2-99.2v0zM425.92 204.608c-18.26-0.018-33.056-14.825-33.056-33.088 0-18.274 14.814-33.088 33.088-33.088 18.263 0 33.070 14.796 33.088 33.054v0.002c-0.036 18.246-14.836 33.024-33.088 33.024-0.011 0-0.023 0-0.034 0h0.002zM922.208 403.008h-99.2c-18.274 0-33.088 14.814-33.088 33.088s14.814 33.088 33.088 33.088h99.2c18.274 0 33.088-14.814 33.088-33.088s-14.814-33.088-33.088-33.088v0zM922.24 138.336h-430.080c-18.274 0-33.088 14.814-33.088 33.088s14.814 33.088 33.088 33.088v0h430.080c18.274 0 33.088-14.814 33.088-33.088s-14.814-33.088-33.088-33.088v0z" />
<glyph unicode="&#xe929;" glyph-name="fb-round" d="M456.992 100.288c-169.318 27.522-297.008 172.688-297.008 347.678 0 194.404 157.596 352 352 352s352-157.596 352-352c0-174.99-127.69-320.156-294.978-347.405l-2.030-0.273v245.952h82.016l15.648 101.76h-97.632v66.016c-0.129 1.36-0.203 2.941-0.203 4.539 0 28.1 22.78 50.88 50.88 50.88 2.362 0 4.687-0.161 6.963-0.473l-0.264 0.030h44.416v86.624c-23.461 3.964-50.72 6.417-78.484 6.78l-0.364 0.004c-80.416 0-132.96-48.736-132.96-136.96v-77.44h-89.376v-101.76h89.376zM544.64 97.504v0zM479.296 97.504v0zM480.32 97.504v0zM543.52 97.504v0zM542.4 97.504v0zM481.6 97.504v0zM541.408 97.504v0zM482.72 97.504v0zM483.712 97.504v0zM540.288 97.504v0zM539.168 97.504v0zM484.768 97.504v0zM538.112 97.504v0zM486.112 97.504v0zM536.992 97.504v0zM487.104 97.504v0zM488.096 97.504v0zM535.872 97.504v0zM534.752 97.504v0zM489.536 97.504v0zM533.632 97.504v0zM490.496 97.504v0zM491.488 97.504v0zM532.512 97.504v0zM492.992 97.504v0zM531.392 97.504v0zM530.272 97.504v0zM493.92 97.504v0zM529.12 97.504v0zM494.88 97.504v0zM528 97.504v0zM496 97.504v0zM526.976 97.504v0zM497.408 97.504v0zM525.824 97.504v0zM498.4 97.504v0zM499.424 97.504v0zM524.672 97.504v0zM523.552 97.504v0zM500.864 97.504v0zM501.856 97.504v0zM522.432 97.504v0zM521.312 97.504v0zM502.912 97.504v0zM520.192 97.504v0zM504.192 97.504v0zM505.472 97.504v0zM519.2 97.504v0zM506.4 97.504v0zM517.952 97.504v0zM507.488 97.504v0zM516.8 97.504v0zM515.648 97.504v0zM508.768 97.504v0zM514.496 97.504v0zM509.792 97.504v0zM513.344 97.504v0zM510.848 97.504v0z" />
<glyph unicode="&#xe92a;" glyph-name="huawei" d="M437.472 214.848c-0.64 2.24-3.392 2.24-3.392 2.24v0l-255.584-8.928c-1.8-0.071-3.232-1.547-3.232-3.358 0-0.639 0.178-1.237 0.488-1.745l-0.008 0.015c26.656-44.8 68.64-79.424 113.12-74.432v0q2.176 0.256 4.352 0.608v0c1.408 0.256 2.848 0.544 4.256 0.864h0.192l0.832 0.192c52.517 23.163 97.772 50.282 139.138 82.196l-1.538-1.14c1.92 2.080 1.376 3.488 1.376 3.488zM440.448 242.112c-105.6 71.168-301.888 177.344-332.8 193.952l-0.608 0.32c-0.451 0.258-0.992 0.41-1.568 0.41-0.215 0-0.425-0.021-0.629-0.062l0.020 0.003-0.704-0.192c-0.468-0.192-0.863-0.475-1.181-0.829l-0.003-0.003c-0.335-0.36-0.59-0.801-0.73-1.289l-0.006-0.023c-3.992-13.034-6.291-28.017-6.291-43.536 0-1.39 0.018-2.775 0.055-4.156l-0.004 0.204q0-4.768 0.512-9.28 0.192-2.24 0.448-4.416c0.32-2.912 0.736-5.696 1.184-8.384q0.352-2.016 0.704-3.936c2.43-13.356 6.452-25.277 11.939-36.343l-0.355 0.791c3.5-7.358 7.017-13.534 10.922-19.43l-0.362 0.582c17.306-26.443 41.818-46.894 70.75-58.795l1.026-0.373c14.189-5.748 30.619-9.612 47.788-10.789l0.5-0.027h11.744c11.776 0 32.928 0 57.12 0h-0.384c47.232 0 106.112 0.32 129.184 0.416 1.134 0.112 2.093 0.773 2.615 1.711l0.009 0.017c1.312 1.632-0.896 3.456-0.896 3.456zM462.368 762.432v0 0l-0.416 0.672-0.32 0.544-0.32 0.64-0.384 0.608-1.024 1.632c-0.574 0.912-1.576 1.509-2.717 1.509-0.171 0-0.338-0.013-0.502-0.039l0.018 0.002c-11.808-1.504-36.64-7.040-39.68-7.744h-0.32c-53.761-14.954-92.557-63.473-92.557-121.053 0-15.196 2.702-29.761 7.652-43.241l-0.28 0.87v-0.224c23.104-102.4 136.608-270.592 161.024-305.888 1.696-1.728 3.2-0.992 3.2-0.992 1.392 0.367 2.402 1.615 2.402 3.099 0 0.036-0.001 0.071-0.002 0.106v-0.005c0.448 4.48 0.864 8.896 1.28 13.312 0 1.664 0.32 3.2 0.48 5.024q0.448 4.96 0.896 9.856 0.384 4.384 0.736 8.736v0.192c25.024 297.408-24.864 407.616-39.168 432.384zM862.784 208.224l-256.224 8.832c-1.441-0.388-2.491-1.667-2.528-3.196v-0.004c-0.001-0.021-0.001-0.046-0.001-0.071 0-0.438 0.095-0.854 0.264-1.228l-0.008 0.019c0.175-0.355 0.412-0.653 0.7-0.892l0.004-0.004 8.288-5.888c4.224-2.976 9.088-6.4 14.464-10.080l4.128-2.816 5.696-3.872 6.048-4.064 3.2-2.048c5.344-3.552 10.912-7.2 16.576-10.816l3.936-2.496c21.631-14.999 46.389-28.142 72.662-38.227l2.41-0.813s65.312-22.4 123.2 72.832c0.216 0.431 0.343 0.94 0.343 1.478 0 1.785-1.392 3.245-3.149 3.353h-0.010zM944.352 410.112v0.864q-0.288 2.4-0.704 4.8c0 0.64-0.192 1.248-0.32 1.888l-0.416 2.24q-0.288 1.568-0.64 3.2l-0.352 1.696q-0.448 2.016-0.96 4.064l-0.352 1.344c-0.416 1.568-0.864 3.2-1.344 4.768-0.415 1.418-1.704 2.437-3.231 2.437-0.574 0-1.115-0.144-1.587-0.398l0.018 0.009c-28.8-15.616-226.976-123.008-333.152-194.56v0c-0.818-0.587-1.344-1.536-1.344-2.607 0-1.575 1.138-2.884 2.636-3.151l0.019-0.003c41.088 0 196.704-0.288 200.576 0.384 16.469 1.418 31.676 5.111 45.88 10.78l-1.080-0.38c37.749 15.074 67.447 43.587 83.706 79.485l0.39 0.963c8.43 18.741 13.342 40.625 13.342 63.656 0 6.527-0.394 12.961-1.161 19.281l0.075-0.76zM592.992 273.056l3.776 1.888 5.76 2.912 11.296 5.792 7.168 3.712 0.704 0.352c161.952 84.128 210.784 134.112 219.744 141.472 24.218 21.144 40.224 51.163 42.916 84.934l0.028 0.442c4.096 64.768-53.184 125.28-66.304 138.24-0.587 0.641-1.428 1.042-2.363 1.042-1.065 0-2.009-0.52-2.591-1.321l-0.006-0.009c-87.333-110.191-165.243-234.828-228.546-367.761l-5.054-11.791c-0.224-0.464-0.355-1.008-0.355-1.584 0-0.051 0.001-0.101 0.003-0.151v0.007c0.032-1.742 1.452-3.143 3.199-3.143 0.513 0 0.997 0.121 1.427 0.335l-0.019-0.008 4.992 2.496zM462.112 272.736q-3.2 7.232-6.688 14.368l-0.32 0.704c-64.055 132.351-134.867 246.118-216.063 351.47l3.423-4.622c-6.592 8.544-11.424 14.592-14.048 17.856-0.59 0.787-1.52 1.291-2.568 1.291-0.693 0-1.334-0.22-1.857-0.594l0.010 0.007c-0.217-0.145-0.405-0.303-0.575-0.479l-0.001-0.001c-13.216-13.408-71.040-75.904-66.336-138.528 2.711-34.122 18.737-64.047 42.82-84.924l0.156-0.132c1.664-1.344 57.6-61.152 258.176-161.056 0.383-0.12 0.823-0.19 1.28-0.19s0.897 0.069 1.311 0.198l-0.031-0.008c0.376 0.154 0.689 0.395 0.924 0.699l0.004 0.005c0.59 0.513 0.961 1.265 0.961 2.104 0 0.396-0.083 0.773-0.232 1.114l0.007-0.018zM561.952 310.112l0.608 0.896 2.080 3.072 1.344 2.016 0.8 1.184 1.504 2.272 0.768 1.152 2.016 3.2 0.896 1.344 1.44 2.176 0.928 1.408 0.832 1.28c42.816 65.408 116.736 186.368 134.848 266.688 3.329 12.699 5.241 27.278 5.241 42.303 0 14.366-1.747 28.323-5.041 41.671l0.248-1.19c-13.141 39.897-45.352 70.151-85.563 80.301l-0.837 0.179s-3.648 0.928-9.6 2.208v0h-0.352l-2.176 0.576h-0.704l-2.432 0.512h-0.736l-2.656 0.544h-0.704l-3.2 0.608h-0.768l-3.2 0.608h-0.736l-3.2 0.576h-0.736l-3.488 0.608h-0.512l-4.064 0.64c-0.026 0.002-0.057 0.002-0.088 0.002-0.324 0-0.626-0.096-0.878-0.262l0.006 0.004c-0.486-0.289-0.906-0.618-1.28-0.992v0c-1.259-1.262-2.388-2.655-3.364-4.157l-0.060-0.099q-0.992-1.44-2.080-3.2t-2.272-4.128c-13.418-28.439-23.499-61.438-28.569-96.064l-0.231-1.92q-0.64-3.616-1.248-7.392-1.216-7.52-2.368-15.552-0.576-4.032-1.12-8.192c-5.528-43.184-8.683-93.144-8.683-143.841 0-13.875 0.236-27.694 0.705-41.455l-0.054 2c1.088-44.544 4.096-94.368 9.6-149.952 0.067-0.465 0.201-0.886 0.395-1.272l-0.011 0.024v-0.16c0.347-0.644 0.89-1.145 1.547-1.432l0.021-0.008c0.325-0.132 0.702-0.209 1.096-0.209 1.148 0 2.143 0.649 2.64 1.601l0.008 0.016c2.72 3.936 6.4 9.6 11.104 16.256l0.224 0.32z" />
<glyph unicode="&#xe92b;" glyph-name="playstore" d="M297.6 788.224c-13.090 7.417-28.751 11.788-45.432 11.788-16.842 0-32.644-4.456-46.29-12.254l0.458 0.241 335.328-309.344 112.64 112.64zM172.864 756.352c-7.987-12.738-12.745-28.208-12.8-44.785v-558.831c0-0.003 0-0.006 0-0.009 0-16.17 4.46-31.298 12.217-44.221l-0.217 0.39 337.152 337.216zM803.744 508.896l-107.456 59.296-120.736-120.704 147.968-136.48 80.256 44.288c27.707 14.9 46.225 43.687 46.225 76.8s-18.518 61.9-45.762 76.572l-0.462 0.228zM543.040 414.944l-338.144-338.144c13.5-8.045 29.771-12.801 47.153-12.801 16.771 0 32.508 4.428 46.106 12.177l-0.459-0.241 383.488 211.648z" />
<glyph unicode="&#xe92c;" glyph-name="appstore" d="M424.16 64.096c-109.536 0.64-200.16 224.224-200.16 338.112 0 186.016 139.552 226.752 193.344 226.752 26.776-1.974 51.568-8.387 74.344-18.514l-1.416 0.562c12.055-5.432 26.056-9.601 40.697-11.823l0.903-0.113c11.281 2.198 21.289 5.519 30.68 9.935l-0.792-0.335c26.373 12.453 57.137 20.324 89.577 21.743l0.503 0.017h0.192c1.105 0.024 2.407 0.037 3.712 0.037 62.019 0 116.896-30.583 150.371-77.491l0.381-0.562 11.264-16.928-16.224-12.224c-38.417-23.666-63.994-64.95-65.435-112.306l-0.005-0.206c-0.030-1.029-0.047-2.241-0.047-3.456 0-49.704 28.559-92.738 70.163-113.588l0.733-0.333c10.144-6.112 20.64-12.416 20.64-26.176 0-8.992-71.776-202.080-176-202.080-21.713 0.461-42.089 5.739-60.244 14.803l0.82-0.371c-15.403 7.899-33.578 12.608-52.834 12.8h-0.062c-15.496-1.655-29.673-5.662-42.733-11.677l0.845 0.349c-21.321-9.572-46.109-15.688-72.171-16.942l-0.469-0.018zM662.912 800c2.72-97.856-67.2-165.76-137.184-161.504-11.52 78.112 69.888 161.504 137.184 161.504z" />
<glyph unicode="&#xe92d;" glyph-name="arrow-down" d="M896 768.032l-384-384-384 384v-236.8l384-384 384 384z" />
<glyph unicode="&#xe92e;" glyph-name="arrow-right" d="M192 832l384-384-384-384h236.8l384 384-384 384z" />
<glyph unicode="&#xe92f;" glyph-name="arrow-top" d="M896 147.168l-384 384-384-384v236.8l384 384 384-384z" />
<glyph unicode="&#xe930;" glyph-name="arrow-left" d="M812.8 832l-384-384 384-384h-236.8l-384 384 384 384z" />
<glyph unicode="&#xe931;" glyph-name="search" d="M877.248 173.248l-162.464 162.464c33.345 49.771 53.217 111.012 53.217 176.895 0 177.067-143.541 320.608-320.608 320.608s-320.608-143.541-320.608-320.608c0-177.067 143.541-320.608 320.608-320.608 65.883 0 127.124 19.872 178.057 53.949l-1.162-0.732 162.464-162.464c11.497-11.116 27.179-17.966 44.462-17.966 35.346 0 64 28.654 64 64 0 17.282-6.85 32.964-17.983 44.48l0.017-0.018zM224 512c0 123.712 100.288 224 224 224s224-100.288 224-224c0-123.712-100.288-224-224-224v0c-123.653 0.146-223.855 100.347-224 223.986v0.014z" />
</font>
</defs>
</svg>
