<svg xmlns="http://www.w3.org/2000/svg" xmlns:xlink="http://www.w3.org/1999/xlink" width="45.52" height="54.19" viewBox="0 0 45.52 54.19">
  <defs>
    <clipPath id="clip-icon-ideas">
      <rect width="45.52" height="54.19"/>
    </clipPath>
  </defs>
  <g id="icon-ideas" clip-path="url(#clip-icon-ideas)">
    <g id="icon-ideas-2" data-name="icon-ideas" transform="translate(-13.402 -4.203)">
      <path id="Path_58368" data-name="Path 58368" d="M63.037,10.87a.787.787,0,0,0,.787-.787V5.344a.787.787,0,1,0-1.575,0v4.739A.787.787,0,0,0,63.037,10.87Z" transform="translate(-26.873)" fill="#039"/>
      <path id="Path_58369" data-name="Path 58369" d="M106.09,53.4h-4.739a.787.787,0,0,0,0,1.575h4.739a.787.787,0,1,0,0-1.575Z" transform="translate(-47.951 -26.87)" fill="#039"/>
      <path id="Path_58370" data-name="Path 58370" d="M18.928,53.4H14.189a.787.787,0,0,0,0,1.575h4.739a.787.787,0,1,0,0-1.575Z" transform="translate(0 -26.87)" fill="#039"/>
      <path id="Path_58371" data-name="Path 58371" d="M90.685,80.728a.787.787,0,1,0-1.113,1.113l3.352,3.351a.787.787,0,1,0,1.113-1.113Z" transform="translate(-41.777 -41.778)" fill="#039"/>
      <path id="Path_58372" data-name="Path 58372" d="M31.293,23.558a.787.787,0,0,0,1.113-1.113l-3.35-3.351a.787.787,0,1,0-1.113,1.113Z" transform="translate(-7.873 -7.871)" fill="#039"/>
      <path id="Path_58373" data-name="Path 58373" d="M31.291,80.728,27.94,84.078a.788.788,0,1,0,1.115,1.113l3.351-3.351a.787.787,0,1,0-1.113-1.113Z" transform="translate(-7.871 -41.778)" fill="#039"/>
      <path id="Path_58374" data-name="Path 58374" d="M92.92,19.093l-3.351,3.351a.788.788,0,1,0,1.115,1.113l3.351-3.351a.788.788,0,0,0-1.115-1.113Z" transform="translate(-41.775 -7.87)" fill="#039"/>
      <path id="Path_58375" data-name="Path 58375" d="M45.7,21.89A14.961,14.961,0,0,0,35.259,47.577a8.677,8.677,0,0,1,2.719,6.231V62.85a.787.787,0,0,0,.787.787H39.7l1.086,3.392a.787.787,0,0,0,.749.547h8.325a.787.787,0,0,0,.749-.547l1.085-3.391h.933a.787.787,0,0,0,.787-.787V53.808a8.677,8.677,0,0,1,2.719-6.232A14.961,14.961,0,0,0,45.7,21.89Zm6.143,40.173H39.553V57.006H51.839ZM49.284,66H42.108l-.757-2.364h8.69Zm5.75-19.554a10.236,10.236,0,0,0-3.194,7.36v1.624H39.553V53.808a10.236,10.236,0,0,0-3.194-7.36,13.39,13.39,0,1,1,18.676,0Z" transform="translate(-9.532 -9.536)" fill="#039"/>
      <path id="Path_58376" data-name="Path 58376" d="M60.839,39.54H58.885a8.288,8.288,0,0,0-.485-1.166l1.382-1.381a.788.788,0,0,0,0-1.113l-2.551-2.553a.786.786,0,0,0-1.113,0l-1.382,1.381a8.284,8.284,0,0,0-1.167-.483V32.27a.788.788,0,0,0-.787-.787H49.173a.788.788,0,0,0-.787.787v1.954a8.284,8.284,0,0,0-1.167.483l-1.382-1.381a.81.81,0,0,0-1.113,0l-2.553,2.553a.788.788,0,0,0,0,1.113l1.383,1.382a8.266,8.266,0,0,0-.483,1.167H41.116a.787.787,0,0,0-.787.787v3.609a.787.787,0,0,0,.787.787H43.07a8.27,8.27,0,0,0,.483,1.17l-1.382,1.381a.788.788,0,0,0,0,1.113l2.553,2.549a.786.786,0,0,0,1.113,0l1.382-1.381a8.278,8.278,0,0,0,1.167.483v1.954a.787.787,0,0,0,.787.787h3.61a.787.787,0,0,0,.787-.787V50.039a8.278,8.278,0,0,0,1.167-.483l1.382,1.381a.81.81,0,0,0,1.113,0l2.553-2.552a.788.788,0,0,0,0-1.113L58.4,45.891a8.264,8.264,0,0,0,.483-1.167h1.954a.787.787,0,0,0,.787-.787V40.327a.787.787,0,0,0-.785-.787Zm-.787,3.609h-1.76a.787.787,0,0,0-.765.6,6.7,6.7,0,0,1-.775,1.872.787.787,0,0,0,.117.965l1.244,1.244-1.44,1.44-1.243-1.244a.787.787,0,0,0-.964-.117,6.7,6.7,0,0,1-1.872.775.787.787,0,0,0-.6.765v1.76H49.96v-1.76a.787.787,0,0,0-.6-.765,6.7,6.7,0,0,1-1.872-.775.788.788,0,0,0-.964.117l-1.244,1.244-1.44-1.44,1.243-1.243a.788.788,0,0,0,.117-.965,6.7,6.7,0,0,1-.775-1.872.787.787,0,0,0-.765-.6H41.9V41.115h1.76a.787.787,0,0,0,.765-.6,6.707,6.707,0,0,1,.774-1.872.787.787,0,0,0-.117-.964l-1.244-1.244L45.282,35l1.243,1.244a.785.785,0,0,0,.965.116,6.7,6.7,0,0,1,1.871-.774.788.788,0,0,0,.6-.765v-1.76h2.035V34.82a.788.788,0,0,0,.6.765,6.7,6.7,0,0,1,1.871.774.785.785,0,0,0,.965-.116L56.674,35l1.44,1.44-1.243,1.241a.787.787,0,0,0-.117.964,6.707,6.707,0,0,1,.775,1.872.787.787,0,0,0,.765.6h1.76Z" transform="translate(-14.814 -14.813)" fill="#039"/>
      <path id="Path_58377" data-name="Path 58377" d="M58.339,44.865a4.629,4.629,0,1,0,4.629,4.629A4.629,4.629,0,0,0,58.339,44.865Zm0,7.683a3.055,3.055,0,1,1,3.054-3.054,3.055,3.055,0,0,1-3.054,3.054Z" transform="translate(-22.174 -22.175)" fill="#039"/>
    </g>
  </g>
</svg>
