<svg xmlns="http://www.w3.org/2000/svg" width="35" height="35" viewBox="0 0 35 35">
  <g id="icon-download-article" transform="translate(-431 -1105)">
    <g id="Group_80676" data-name="Group 80676" transform="translate(-264 951)">
      <g id="Group_80199" data-name="Group 80199" transform="translate(695 154)">
        <circle id="Ellipse_254" data-name="Ellipse 254" cx="17.5" cy="17.5" r="17.5" transform="translate(0 0)" fill="#FF6600"/>
      </g>
    </g>
    <path id="Path_58252" data-name="Path 58252" d="M11.154.153A.478.478,0,0,0,10.811,0H3.1A2.609,2.609,0,0,0,.5,2.593V17.178a2.609,2.609,0,0,0,2.6,2.593H13.566a2.609,2.609,0,0,0,2.6-2.593V5.6a.514.514,0,0,0-.138-.334Zm.138,1.533L14.555,5.11h-2.12a1.137,1.137,0,0,1-1.141-1.137Zm2.273,17.13H3.1a1.654,1.654,0,0,1-1.643-1.638V2.593A1.654,1.654,0,0,1,3.1.955h7.24V3.973a2.089,2.089,0,0,0,2.1,2.092h2.775V17.178A1.651,1.651,0,0,1,13.566,18.816Zm0,0" transform="translate(440.5 1112)" fill="#fff"/>
    <g id="Group_81259" data-name="Group 81259" transform="translate(-1.424 -0.951)">
      <path id="Path_58253" data-name="Path 58253" d="M97.51,401.934H89.649a.478.478,0,0,0,0,.955h7.866a.478.478,0,1,0,0-.955Zm0,0" transform="translate(356.252 725.962)" fill="#fff"/>
      <path id="Path_58254" data-name="Path 58254" d="M121.55,177.527a.474.474,0,0,0,.7,0l2.8-3a.476.476,0,0,0-.7-.65l-1.972,2.116v-5.215a.478.478,0,0,0-.955,0v5.215l-1.968-2.116a.476.476,0,0,0-.7.65Zm0,0" transform="translate(327.934 948.654)" fill="#fff"/>
    </g>
  </g>
</svg>
