<svg xmlns="http://www.w3.org/2000/svg" xmlns:xlink="http://www.w3.org/1999/xlink" width="36" height="36" viewBox="0 0 36 36">
  <defs>
    <clipPath id="clip-icon-insights">
      <rect width="36" height="36"/>
    </clipPath>
  </defs>
  <g id="icon-insights" clip-path="url(#clip-icon-insights)">
    <g id="shared-vision" transform="translate(1.999)">
      <path id="Path_58404" data-name="Path 58404" d="M160.688,197.375a.688.688,0,1,0-.688-.688A.688.688,0,0,0,160.688,197.375Zm0,0" transform="translate(-148.996 -182.522)" fill="#fef6f1" stroke="#f2f2f2" stroke-width="0.5"/>
      <path id="Path_58405" data-name="Path 58405" d="M220.688,5.914a.688.688,0,0,0,.688-.688V.688a.688.688,0,1,0-1.375,0V5.226A.688.688,0,0,0,220.688,5.914Zm0,0" transform="translate(-204.871)" fill="#fef6f1" stroke="#f2f2f2" stroke-width="0.5"/>
      <path id="Path_58406" data-name="Path 58406" d="M220,426.688v4.539a.688.688,0,0,0,1.375,0v-4.539a.688.688,0,0,0-1.375,0Zm0,0" transform="translate(-204.871 -396.706)" fill="#fef6f1" stroke="#f2f2f2" stroke-width="0.5"/>
      <path id="Path_58407" data-name="Path 58407" d="M33.408,80.381a.688.688,0,0,0,.973-.972l-2.918-2.918a.688.688,0,1,0-.972.972Zm0,0" transform="translate(-28.205 -71.043)" fill="#fef6f1" stroke="#f2f2f2" stroke-width="0.5"/>
      <path id="Path_58408" data-name="Path 58408" d="M367.483,383.482a.688.688,0,0,0,0,.973l2.918,2.918a.688.688,0,1,0,.972-.973l-2.918-2.918A.688.688,0,0,0,367.483,383.482Zm0,0" transform="translate(-342.024 -356.923)" fill="#fef6f1" stroke="#f2f2f2" stroke-width="0.5"/>
      <path id="Path_58409" data-name="Path 58409" d="M368.455,80.381l2.918-2.918a.688.688,0,1,0-.972-.972l-2.918,2.918a.688.688,0,0,0,.972.972Zm0,0" transform="translate(-342.024 -71.043)" fill="#fef6f1" stroke="#f2f2f2" stroke-width="0.5"/>
      <path id="Path_58410" data-name="Path 58410" d="M33.408,383.483,30.491,386.4a.688.688,0,1,0,.972.972l2.918-2.918a.688.688,0,0,0-.973-.972Zm0,0" transform="translate(-28.205 -356.924)" fill="#fef6f1" stroke="#f2f2f2" stroke-width="0.5"/>
      <path id="Path_58411" data-name="Path 58411" d="M4.391,130.622a17.834,17.834,0,0,0,11.426,4.632,17.833,17.833,0,0,0,11.426-4.632,24.962,24.962,0,0,0,4.273-4.611.688.688,0,0,0,0-.768,24.972,24.972,0,0,0-4.273-4.611A17.833,17.833,0,0,0,15.817,116a17.834,17.834,0,0,0-11.426,4.632,24.985,24.985,0,0,0-4.273,4.611.688.688,0,0,0,0,.768A24.985,24.985,0,0,0,4.391,130.622Zm.888-8.94c2.324-1.965,6.038-4.307,10.538-4.307s8.192,2.329,10.509,4.283a25.064,25.064,0,0,1,3.771,3.97,24.989,24.989,0,0,1-3.742,3.944c-2.324,1.965-6.038,4.307-10.538,4.307S7.626,131.55,5.308,129.6a25.051,25.051,0,0,1-3.771-3.97A24.957,24.957,0,0,1,5.279,121.683Zm0,0" transform="translate(0 -108.023)" fill="#fef6f1" stroke="#f2f2f2" stroke-width="0.5"/>
      <path id="Path_58412" data-name="Path 58412" d="M146.189,178.378a6.189,6.189,0,1,0-2.215-11.97.69.69,0,1,0,.565,1.257,4.814,4.814,0,1,1-3.164,4.523,5.007,5.007,0,0,1,.08-.878.688.688,0,0,0-1.352-.253,6.2,6.2,0,0,0,6.086,7.32Zm0,0" transform="translate(-130.372 -154.585)" fill="#fef6f1" stroke="#f2f2f2" stroke-width="0.5"/>
      <path id="Path_58413" data-name="Path 58413" d="M195.5,218.751a2.751,2.751,0,1,0-2.751,2.751A2.754,2.754,0,0,0,195.5,218.751Zm-4.126,0a1.375,1.375,0,1,1,1.375,1.375A1.377,1.377,0,0,1,191.375,218.751Zm0,0" transform="translate(-176.934 -201.146)" fill="#fef6f1" stroke="#f2f2f2" stroke-width="0.5"/>
    </g>
  </g>
</svg>
