<svg xmlns="http://www.w3.org/2000/svg" width="18.497" height="22.727" viewBox="0 0 18.497 22.727">
  <path id="icon-bookmark-navbar" d="M1.449,22.227a1.955,1.955,0,0,1-.716-.137A1.933,1.933,0,0,1-.5,20.28V3.092A3.6,3.6,0,0,1,3.092-.5H14.4A3.6,3.6,0,0,1,18,3.092V20.28A1.944,1.944,0,0,1,14.628,21.6L8.749,15.287,2.868,21.6A1.934,1.934,0,0,1,1.449,22.227Zm7.3-9.875L16,20.139V3.092A1.594,1.594,0,0,0,14.4,1.5H3.092A1.594,1.594,0,0,0,1.5,3.092V20.139Z" transform="translate(0.5 0.5)" fill="#707070"/>
</svg>
