<svg xmlns="http://www.w3.org/2000/svg" xmlns:xlink="http://www.w3.org/1999/xlink" width="51.45" height="54.19" viewBox="0 0 51.45 54.19">
  <defs>
    <clipPath id="clip-icon-achievements">
      <rect width="51.45" height="54.19"/>
    </clipPath>
  </defs>
  <g id="icon-achievements" clip-path="url(#clip-icon-achievements)">
    <g id="icon-achievements-2" data-name="icon-achievements" transform="translate(-0.004 4.109)">
      <g id="XMLID_485_" transform="translate(0 0)">
        <path id="XMLID_1334_" d="M23.64,107.931A16.728,16.728,0,0,1,10.9,83.592,6.417,6.417,0,0,0,7.912,72.974a1,1,0,0,0-.972.26A6.415,6.415,0,0,0,8.687,83.548a18.651,18.651,0,0,0-.947,2.56,6.355,6.355,0,0,0-.612-.712,6.442,6.442,0,0,0-6.2-1.661,1,1,0,0,0-.712.712,6.415,6.415,0,0,0,6.209,8.076q.3,0,.606-.029a18.665,18.665,0,0,0,.457,3.12A6.366,6.366,0,0,0,6.6,95.3,6.442,6.442,0,0,0,.4,96.965a1,1,0,0,0-.261.972,6.442,6.442,0,0,0,4.538,4.538,6.372,6.372,0,0,0,1.65.217,6.459,6.459,0,0,0,3.687-1.16,18.863,18.863,0,0,0,2.067,2.635,6.444,6.444,0,0,0-5.214,3.2,1,1,0,0,0,0,1.007,6.417,6.417,0,0,0,11.1.023,18.6,18.6,0,0,0,5.42,1.531,1.015,1.015,0,0,0,.125.008,1.005,1.005,0,0,0,.123-2ZM5.2,100.533a4.427,4.427,0,0,1-2.919-2.544A4.405,4.405,0,0,1,9,99.789a4.426,4.426,0,0,1-3.8.744Zm2.021-21.62a4.426,4.426,0,0,1,.744-3.8,4.405,4.405,0,0,1,1.8,6.72A4.427,4.427,0,0,1,7.221,78.913ZM3.3,89.225a4.426,4.426,0,0,1-1.256-3.663,4.405,4.405,0,0,1,4.919,4.919A4.428,4.428,0,0,1,3.3,89.225Zm9.129,20.346a4.426,4.426,0,0,1-3.478-1.7,4.405,4.405,0,0,1,6.957,0,4.426,4.426,0,0,1-3.478,1.7Z" transform="translate(0 -65.608)" fill="#039" stroke="#f2f2f2" stroke-width="0.7"/>
        <path id="XMLID_1441_" d="M285.9,95.3a6.362,6.362,0,0,0-.887.31,18.671,18.671,0,0,0,.457-3.12q.3.029.606.029a6.415,6.415,0,0,0,6.209-8.076,1,1,0,0,0-.712-.712,6.443,6.443,0,0,0-6.2,1.661,6.376,6.376,0,0,0-.612.712,18.655,18.655,0,0,0-.947-2.56,6.415,6.415,0,0,0,1.747-10.314,1,1,0,0,0-.972-.261A6.417,6.417,0,0,0,281.6,83.589a16.728,16.728,0,0,1-12.736,24.34,1.005,1.005,0,0,0,.123,2,1.017,1.017,0,0,0,.125-.008,18.6,18.6,0,0,0,5.42-1.531,6.417,6.417,0,0,0,11.1-.023,1,1,0,0,0,0-1.007,6.444,6.444,0,0,0-5.214-3.2,18.856,18.856,0,0,0,2.067-2.635,6.459,6.459,0,0,0,3.687,1.16,6.376,6.376,0,0,0,1.65-.217,6.442,6.442,0,0,0,4.538-4.538,1,1,0,0,0-.26-.972,6.442,6.442,0,0,0-6.2-1.661Zm.9-8.486a4.425,4.425,0,0,1,3.663-1.256,4.405,4.405,0,0,1-4.919,4.919A4.426,4.426,0,0,1,286.8,86.815ZM282,78.029a4.427,4.427,0,0,1,2.544-2.919,4.405,4.405,0,0,1-1.8,6.72A4.427,4.427,0,0,1,282,78.029Zm1.56,29.837a4.405,4.405,0,0,1-6.957,0,4.405,4.405,0,0,1,6.957,0Zm3.749-7.336a4.426,4.426,0,0,1-3.8-.744,4.405,4.405,0,0,1,6.72-1.8A4.426,4.426,0,0,1,287.305,100.531Z" transform="translate(-241.05 -65.606)" fill="#039" stroke="#f2f2f2" stroke-width="0.7"/>
        <path id="XMLID_1454_" d="M167.881,173.992a1.976,1.976,0,0,0,.728-2.248l-1.579-4.822,4.121-2.98a2.007,2.007,0,0,0-1.176-3.632h-5.088l-1.558-4.82a2.007,2.007,0,0,0-3.819,0l-1.558,4.82h-5.088a2.006,2.006,0,0,0-1.176,3.632l4.121,2.981-1.579,4.823a1.976,1.976,0,0,0,.728,2.247,1.976,1.976,0,0,0,2.362,0l4.1-2.992,4.1,2.992A1.976,1.976,0,0,0,167.881,173.992Zm-6.461-5.243a1,1,0,0,0-.593.193l-4.682,3.418,1.8-5.509a1,1,0,0,0-.366-1.127l-4.707-3.4h5.809a1,1,0,0,0,.956-.7l1.779-5.5,1.779,5.5a1,1,0,0,0,.956.7h5.809l-4.707,3.4a1,1,0,0,0-.366,1.127l1.8,5.509-4.682-3.418A1,1,0,0,0,161.42,168.748Z" transform="translate(-135.693 -138.612)" fill="#039" stroke="#f2f2f2" stroke-width="0.7"/>
        <path id="XMLID_1455_" d="M246.99,2.01A1.006,1.006,0,0,0,248,1.005a1.005,1.005,0,1,0-1.716.71A1.012,1.012,0,0,0,246.99,2.01Z" transform="translate(-221.263 0)" fill="#039" stroke="#f2f2f2" stroke-width="0.7"/>
        <path id="XMLID_1456_" d="M153.307,48.481a1.005,1.005,0,0,0,1.822-.85l-2.623-5.626a1.005,1.005,0,1,0-1.822.85Z" transform="translate(-135.454 -37.262)" fill="#039" stroke="#f2f2f2" stroke-width="0.7"/>
        <path id="XMLID_1470_" d="M246.989,52.041h0a1,1,0,0,0,1.005-1L248,46.068a1,1,0,0,0-1-1.006h0a1,1,0,0,0-1.005,1l-.006,4.969A1,1,0,0,0,246.989,52.041Z" transform="translate(-221.263 -40.533)" fill="#039" stroke="#f2f2f2" stroke-width="0.7"/>
        <path id="XMLID_1471_" d="M315.855,48.967a1,1,0,0,0,1.336-.486l2.623-5.626a1.005,1.005,0,0,0-1.822-.85l-2.623,5.626A1,1,0,0,0,315.855,48.967Z" transform="translate(-283.589 -37.262)" fill="#039" stroke="#f2f2f2" stroke-width="0.7"/>
      </g>
    </g>
  </g>
</svg>
