<svg id="Group_80707" data-name="Group 80707" xmlns="http://www.w3.org/2000/svg" width="45.882" height="45.883" viewBox="0 0 45.882 45.883">
  <path id="Path_56826" data-name="Path 56826" d="M75.325,25.779l-2.63,1.6a14.589,14.589,0,0,1,0,18.294l2.63,1.6a17.652,17.652,0,0,0,0-21.491" transform="translate(-38.304 -13.583)" fill="#ee4d14"/>
  <path id="Path_56827" data-name="Path 56827" d="M84.784,20.039,82.166,21.63a19.784,19.784,0,0,1,0,23.741l2.618,1.591a22.82,22.82,0,0,0,0-26.922" transform="translate(-43.295 -10.559)" fill="#ee4d14"/>
  <path id="Path_56828" data-name="Path 56828" d="M63.167,45.972l2.647,1.608a12.452,12.452,0,0,0,0-16.033l-2.647,1.609a9.415,9.415,0,0,1,0,12.815" transform="translate(-33.284 -16.623)" fill="#ee4d14"/>
  <path id="Path_56829" data-name="Path 56829" d="M28.749,11.022A17.727,17.727,0,1,0,41.088,41.441l-2.709-1.646a14.673,14.673,0,1,1,0-22.092l2.708-1.646a17.723,17.723,0,0,0-12.339-5.035" transform="translate(-5.808 -5.808)" fill="#00307f"/>
  <path id="Path_56830" data-name="Path 56830" d="M22.043,34.556a12.506,12.506,0,0,0,20.2,9.865l-2.862-1.74a9.459,9.459,0,1,1,0-16.251l2.863-1.74a12.506,12.506,0,0,0-20.2,9.865" transform="translate(-11.615 -11.615)" fill="#00307f"/>
  <path id="Path_56831" data-name="Path 56831" d="M37.185,36.791A19.879,19.879,0,1,1,22.941,3.054,19.768,19.768,0,0,1,37.185,9.092l2.678-1.627A22.937,22.937,0,1,0,22.941,45.883a22.82,22.82,0,0,0,16.921-7.464Z" transform="translate(0 0)" fill="#00307f"/>
</svg>
