<svg xmlns="http://www.w3.org/2000/svg" xmlns:xlink="http://www.w3.org/1999/xlink" width="36" height="36" viewBox="0 0 36 36">
  <defs>
    <clipPath id="clip-icon-achievements">
      <rect width="36" height="36"/>
    </clipPath>
  </defs>
  <g id="icon-achievements" clip-path="url(#clip-icon-achievements)">
    <g id="XMLID_1095_" transform="translate(2 4)">
      <g id="XMLID_485_" transform="translate(0 0)">
        <path id="XMLID_1334_" d="M14.319,94.134A10.132,10.132,0,0,1,6.6,79.391,3.887,3.887,0,0,0,4.793,72.96a.609.609,0,0,0-.589.158,3.886,3.886,0,0,0,1.058,6.247,11.3,11.3,0,0,0-.574,1.55,3.849,3.849,0,0,0-.371-.431A3.9,3.9,0,0,0,.562,79.478a.609.609,0,0,0-.431.431A3.885,3.885,0,0,0,3.892,84.8q.183,0,.367-.017a11.305,11.305,0,0,0,.277,1.89A3.855,3.855,0,0,0,4,86.485,3.9,3.9,0,0,0,.243,87.491a.609.609,0,0,0-.158.589,3.9,3.9,0,0,0,2.749,2.749,3.859,3.859,0,0,0,1,.131,3.912,3.912,0,0,0,2.233-.7,11.425,11.425,0,0,0,1.252,1.6,3.9,3.9,0,0,0-3.158,1.937.609.609,0,0,0,0,.61,3.887,3.887,0,0,0,6.725.014,11.264,11.264,0,0,0,3.283.927.609.609,0,0,0,.15-1.208ZM3.15,89.653a2.681,2.681,0,0,1-1.768-1.541A2.668,2.668,0,0,1,5.451,89.2a2.681,2.681,0,0,1-2.3.45Zm1.224-13.1a2.681,2.681,0,0,1,.45-2.3,2.668,2.668,0,0,1,1.091,4.07A2.681,2.681,0,0,1,4.374,76.557ZM2,82.8a2.681,2.681,0,0,1-.761-2.219,2.668,2.668,0,0,1,2.98,2.98A2.682,2.682,0,0,1,2,82.8ZM7.527,95.127A2.681,2.681,0,0,1,5.42,94.1a2.668,2.668,0,0,1,4.214,0,2.681,2.681,0,0,1-2.107,1.031Z" transform="translate(0 -68.499)" fill="#fef6f1"/>
        <path id="XMLID_1441_" d="M278.838,86.483a3.854,3.854,0,0,0-.537.188,11.31,11.31,0,0,0,.277-1.89q.184.017.367.017a3.885,3.885,0,0,0,3.761-4.892.609.609,0,0,0-.431-.431,3.9,3.9,0,0,0-3.755,1.006,3.86,3.86,0,0,0-.371.431,11.306,11.306,0,0,0-.574-1.55,3.886,3.886,0,0,0,1.058-6.247.608.608,0,0,0-.589-.158,3.887,3.887,0,0,0-1.812,6.431,10.132,10.132,0,0,1-7.714,14.743.609.609,0,0,0,.074,1.213.616.616,0,0,0,.076,0,11.266,11.266,0,0,0,3.283-.927,3.887,3.887,0,0,0,6.725-.014.609.609,0,0,0,0-.61,3.9,3.9,0,0,0-3.158-1.937,11.424,11.424,0,0,0,1.252-1.6,3.912,3.912,0,0,0,2.233.7,3.862,3.862,0,0,0,1-.131,3.9,3.9,0,0,0,2.749-2.749.609.609,0,0,0-.158-.589,3.9,3.9,0,0,0-3.755-1.006Zm.542-5.14a2.681,2.681,0,0,1,2.219-.761,2.668,2.668,0,0,1-2.98,2.98A2.681,2.681,0,0,1,279.38,81.343Zm-2.909-5.322a2.681,2.681,0,0,1,1.541-1.768,2.668,2.668,0,0,1-1.091,4.07A2.681,2.681,0,0,1,276.471,76.021Zm.945,18.072a2.668,2.668,0,0,1-4.214,0,2.668,2.668,0,0,1,4.214,0Zm2.271-4.443a2.681,2.681,0,0,1-2.3-.45,2.668,2.668,0,0,1,4.07-1.091A2.681,2.681,0,0,1,279.687,89.65Z" transform="translate(-251.67 -68.496)" fill="#fef6f1"/>
        <path id="XMLID_1454_" d="M161.168,166.149a1.2,1.2,0,0,0,.441-1.361l-.956-2.921,2.5-1.805a1.215,1.215,0,0,0-.712-2.2h-3.082l-.944-2.919a1.215,1.215,0,0,0-2.313,0l-.944,2.919h-3.082a1.215,1.215,0,0,0-.712,2.2l2.5,1.805-.956,2.921a1.2,1.2,0,0,0,.441,1.361,1.2,1.2,0,0,0,1.431,0l2.483-1.812,2.483,1.812A1.2,1.2,0,0,0,161.168,166.149Zm-3.913-3.176a.608.608,0,0,0-.359.117l-2.836,2.07,1.092-3.337a.609.609,0,0,0-.222-.683l-2.851-2.062H155.6a.609.609,0,0,0,.579-.421l1.078-3.334,1.078,3.334a.609.609,0,0,0,.579.421h3.518l-2.851,2.062a.609.609,0,0,0-.222.683l1.092,3.337-2.836-2.07A.607.607,0,0,0,157.254,162.973Z" transform="translate(-141.671 -144.719)" fill="#fef6f1"/>
        <path id="XMLID_1455_" d="M246.594,1.218A.609.609,0,0,0,247.2.609a.609.609,0,1,0-1.039.43A.613.613,0,0,0,246.594,1.218Z" transform="translate(-231.011 0)" fill="#fef6f1"/>
        <path id="XMLID_1456_" d="M152.235,45.7a.609.609,0,0,0,1.1-.515l-1.589-3.408a.609.609,0,1,0-1.1.515Z" transform="translate(-141.422 -38.903)" fill="#fef6f1"/>
        <path id="XMLID_1470_" d="M246.593,49.289h0a.609.609,0,0,0,.609-.608l0-3.009a.609.609,0,0,0-.608-.61h0a.609.609,0,0,0-.609.608l0,3.009A.609.609,0,0,0,246.593,49.289Z" transform="translate(-231.011 -42.319)" fill="#fef6f1"/>
        <path id="XMLID_1471_" d="M315.626,45.993a.609.609,0,0,0,.809-.294l1.589-3.408a.609.609,0,1,0-1.1-.515l-1.589,3.408A.609.609,0,0,0,315.626,45.993Z" transform="translate(-296.082 -38.903)" fill="#fef6f1"/>
      </g>
    </g>
  </g>
</svg>
