<svg id="icon-linkedin" xmlns="http://www.w3.org/2000/svg" xmlns:xlink="http://www.w3.org/1999/xlink" width="25.533" height="25.695" viewBox="0 0 25.533 25.695">
  <defs>
    <clipPath id="clip-path">
      <rect id="Rectangle_27846" data-name="Rectangle 27846" width="25.533" height="25.695" fill="#fff"/>
    </clipPath>
  </defs>
  <g id="Group_80318" data-name="Group 80318" transform="translate(0 0)" clip-path="url(#clip-path)">
    <path id="Path_56887" data-name="Path 56887" d="M19.922,16.806v-.04a.451.451,0,0,1-.027.04Z" transform="translate(-6.192 -5.218)" fill="#fff"/>
    <path id="Path_56888" data-name="Path 56888" d="M21.643,21.508H17.787V15.3c0-1.558-.557-2.624-1.953-2.624a2.116,2.116,0,0,0-1.98,1.41,2.642,2.642,0,0,0-.126.942v6.479H9.871s.051-10.515,0-11.6h3.856v1.641A3.825,3.825,0,0,1,17.2,9.632c2.537,0,4.439,1.661,4.439,5.222ZM5.809,8.322H5.782a2.01,2.01,0,1,1,.051-4.009,2.011,2.011,0,1,1-.024,4.009M7.738,21.508H3.883V9.907H7.738ZM23.644,0H1.886A1.863,1.863,0,0,0,0,1.84V23.854a1.866,1.866,0,0,0,1.886,1.84H23.644a1.866,1.866,0,0,0,1.889-1.84V1.84A1.864,1.864,0,0,0,23.644,0" transform="translate(0 0)" fill="#fff"/>
  </g>
</svg>
