<svg xmlns="http://www.w3.org/2000/svg" xmlns:xlink="http://www.w3.org/1999/xlink" width="36" height="36" viewBox="0 0 36 36">
  <defs>
    <clipPath id="clip-icon-ideas">
      <rect width="36" height="36"/>
    </clipPath>
  </defs>
  <g id="icon-ideas" clip-path="url(#clip-icon-ideas)">
    <g id="idea_2_" data-name="idea (2)" transform="translate(-9.402 -3.557)">
      <path id="Path_58368" data-name="Path 58368" d="M62.737,8.466a.487.487,0,0,0,.487-.487V5.044a.487.487,0,0,0-.975,0V7.978A.487.487,0,0,0,62.737,8.466Z" transform="translate(-35.243)" fill="#fff"/>
      <path id="Path_58369" data-name="Path 58369" d="M103.985,53.4h-2.934a.487.487,0,0,0,0,.975h2.934a.487.487,0,0,0,0-.975Z" transform="translate(-62.885 -35.239)" fill="#fff"/>
      <path id="Path_58370" data-name="Path 58370" d="M16.823,53.4H13.889a.487.487,0,1,0,0,.975h2.934a.487.487,0,1,0,0-.975Z" transform="translate(0 -35.239)" fill="#fff"/>
      <path id="Path_58371" data-name="Path 58371" d="M90.174,80.64a.487.487,0,1,0-.689.689L91.559,83.4a.487.487,0,1,0,.689-.689Z" transform="translate(-54.789 -54.789)" fill="#fff"/>
      <path id="Path_58372" data-name="Path 58372" d="M29.929,21.77a.487.487,0,0,0,.689-.689l-2.074-2.075a.487.487,0,1,0-.689.689Z" transform="translate(-10.325 -10.322)" fill="#fff"/>
      <path id="Path_58373" data-name="Path 58373" d="M29.927,80.64l-2.075,2.074a.488.488,0,1,0,.69.689l2.075-2.075a.487.487,0,1,0-.689-.689Z" transform="translate(-10.323 -54.789)" fill="#fff"/>
      <path id="Path_58374" data-name="Path 58374" d="M91.556,19.005,89.481,21.08a.488.488,0,1,0,.69.689l2.075-2.075a.488.488,0,1,0-.69-.689Z" transform="translate(-54.786 -10.321)" fill="#fff"/>
      <path id="Path_58375" data-name="Path 58375" d="M40,21.89a9.263,9.263,0,0,0-6.462,15.9,5.372,5.372,0,0,1,1.683,3.858v5.6a.487.487,0,0,0,.487.487h.578l.672,2.1a.487.487,0,0,0,.464.339h5.154a.487.487,0,0,0,.464-.339l.672-2.1h.578a.487.487,0,0,0,.487-.487v-5.6a5.372,5.372,0,0,1,1.683-3.858A9.263,9.263,0,0,0,40,21.89Zm3.8,24.872H36.192V43.632H43.8ZM42.217,49.2H37.774l-.468-1.464h5.38Zm3.56-12.106A6.337,6.337,0,0,0,43.8,41.651v1.005H36.192V41.651a6.337,6.337,0,0,0-1.978-4.557,8.29,8.29,0,1,1,11.563,0Z" transform="translate(-12.5 -12.505)" fill="#fff"/>
      <path id="Path_58376" data-name="Path 58376" d="M53.027,36.471h-1.21a5.132,5.132,0,0,0-.3-.722l.855-.855a.488.488,0,0,0,0-.689l-1.58-1.581a.487.487,0,0,0-.689,0l-.855.855a5.129,5.129,0,0,0-.722-.3V31.97a.488.488,0,0,0-.487-.487H45.8a.488.488,0,0,0-.487.487v1.21a5.129,5.129,0,0,0-.722.3l-.855-.855a.5.5,0,0,0-.689,0L41.47,34.2a.488.488,0,0,0,0,.689l.856.855a5.117,5.117,0,0,0-.3.722H40.816a.487.487,0,0,0-.487.487v2.235a.487.487,0,0,0,.487.487h1.21a5.12,5.12,0,0,0,.3.724l-.855.855a.488.488,0,0,0,0,.689l1.581,1.578a.487.487,0,0,0,.689,0l.855-.855a5.125,5.125,0,0,0,.722.3v1.21a.487.487,0,0,0,.487.487H48.04a.487.487,0,0,0,.487-.487v-1.21a5.125,5.125,0,0,0,.722-.3l.855.855a.5.5,0,0,0,.689,0l1.58-1.58a.488.488,0,0,0,0-.689l-.857-.855a5.117,5.117,0,0,0,.3-.722h1.21a.487.487,0,0,0,.487-.487V36.959a.487.487,0,0,0-.486-.487Zm-.487,2.235H51.45a.487.487,0,0,0-.473.371,4.147,4.147,0,0,1-.48,1.159.487.487,0,0,0,.072.6l.77.77-.891.891-.769-.77a.487.487,0,0,0-.6-.072,4.15,4.15,0,0,1-1.159.48.487.487,0,0,0-.371.473v1.09H46.292V42.6a.487.487,0,0,0-.371-.473,4.15,4.15,0,0,1-1.159-.48.488.488,0,0,0-.6.072l-.77.77L42.5,41.6l.77-.77a.488.488,0,0,0,.072-.6,4.147,4.147,0,0,1-.48-1.159.487.487,0,0,0-.473-.371H41.3v-1.26h1.09a.487.487,0,0,0,.473-.371,4.153,4.153,0,0,1,.479-1.159.487.487,0,0,0-.072-.6l-.77-.77.891-.891.769.77a.486.486,0,0,0,.6.072,4.145,4.145,0,0,1,1.159-.479.488.488,0,0,0,.371-.473v-1.09h1.26v1.091a.488.488,0,0,0,.371.473,4.145,4.145,0,0,1,1.159.479.486.486,0,0,0,.6-.072l.77-.77.891.891-.769.768a.487.487,0,0,0-.072.6,4.153,4.153,0,0,1,.48,1.159.487.487,0,0,0,.473.371h1.09Z" transform="translate(-19.427 -19.426)" fill="#fff"/>
      <path id="Path_58377" data-name="Path 58377" d="M56.575,44.865a2.866,2.866,0,1,0,2.866,2.866A2.866,2.866,0,0,0,56.575,44.865Zm0,4.757a1.891,1.891,0,1,1,1.891-1.891,1.891,1.891,0,0,1-1.891,1.891Z" transform="translate(-29.081 -29.081)" fill="#fff"/>
    </g>
  </g>
</svg>
