<svg xmlns="http://www.w3.org/2000/svg" xmlns:xlink="http://www.w3.org/1999/xlink" width="35" height="35" viewBox="0 0 35 35">
  <defs>
    <clipPath id="clip-path">
      <rect id="Rectangle_27886" data-name="Rectangle 27886" width="20.472" height="23.025" fill="#fff"/>
    </clipPath>
  </defs>
  <g id="icon-nofitication-bell-orangbg" transform="translate(-695 -154)">
    <g id="Group_80199" data-name="Group 80199" transform="translate(695 154)">
      <circle id="Ellipse_254" data-name="Ellipse 254" cx="17.5" cy="17.5" r="17.5" transform="translate(0 0)" fill="#FF6600"/>
    </g>
    <g id="Group_80542" data-name="Group 80542" transform="translate(702 160.107)">
      <g id="Group_80541" data-name="Group 80541" clip-path="url(#clip-path)">
        <path id="Path_57234" data-name="Path 57234" d="M2.175,17.908H18.294a17.2,17.2,0,0,1-1.239-6.37V8.528a6.822,6.822,0,1,0-13.645,0v3.011a17.2,17.2,0,0,1-1.235,6.37m17.438,1.706H.852a.852.852,0,0,1-.76-1.235A15.466,15.466,0,0,0,1.7,11.557V8.528a8.528,8.528,0,0,1,17.056,0v3.011a15.466,15.466,0,0,0,1.612,6.822.854.854,0,0,1-.76,1.253" transform="translate(0)" fill="#fff"/>
        <path id="Path_57235" data-name="Path 57235" d="M9.513,20.867A4.265,4.265,0,0,1,5.249,16.6a.853.853,0,0,1,1.706,0,2.554,2.554,0,0,0,.75,1.808,2.621,2.621,0,0,0,3.616,0,.857.857,0,0,1,1.212,1.212,4.257,4.257,0,0,1-3.02,1.244" transform="translate(0.719 2.158)" fill="#fff"/>
      </g>
    </g>
  </g>
</svg>
