<svg xmlns="http://www.w3.org/2000/svg" xmlns:xlink="http://www.w3.org/1999/xlink" width="26.49" height="20.3" viewBox="0 0 26.49 20.3">
  <defs>
    <clipPath id="clip-path">
      <rect id="Rectangle_27844" data-name="Rectangle 27844" width="24.971" height="20.296" fill="#2f2f2f"/>
    </clipPath>
    <clipPath id="clip-icon-twitter-black">
      <rect width="26.49" height="20.3"/>
    </clipPath>
  </defs>
  <g id="icon-twitter-black" clip-path="url(#clip-icon-twitter-black)">
    <g id="icon-twitter-black-2" data-name="icon-twitter-black" transform="translate(0.76 0.004)">
      <g id="Group_80314" data-name="Group 80314" transform="translate(0 0)" clip-path="url(#clip-path)">
        <path id="Path_56885" data-name="Path 56885" d="M24.969,2.405a10.189,10.189,0,0,1-2.944.8A5.122,5.122,0,0,0,24.277.375a10.233,10.233,0,0,1-3.252,1.244A5.128,5.128,0,0,0,12.3,6.291,14.537,14.537,0,0,1,1.737.937a5.129,5.129,0,0,0,1.584,6.84A5.109,5.109,0,0,1,1,7.136V7.2a5.129,5.129,0,0,0,4.11,5.023,5.144,5.144,0,0,1-2.313.087,5.132,5.132,0,0,0,4.786,3.559,10.274,10.274,0,0,1-6.362,2.194A10.3,10.3,0,0,1,0,17.994a14.506,14.506,0,0,0,7.854,2.3A14.477,14.477,0,0,0,22.429,5.721c0-.222-.005-.443-.013-.662a10.358,10.358,0,0,0,2.555-2.651Z" transform="translate(0 0)" fill="#2f2f2f"/>
      </g>
    </g>
  </g>
</svg>
