<svg xmlns="http://www.w3.org/2000/svg" xmlns:xlink="http://www.w3.org/1999/xlink" width="40.65" height="54.19" viewBox="0 0 40.65 54.19">
  <defs>
    <clipPath id="clip-icon-trends">
      <rect width="40.65" height="54.19"/>
    </clipPath>
  </defs>
  <g id="icon-trends" clip-path="url(#clip-icon-trends)">
    <g id="icon-trends-2" data-name="icon-trends" transform="translate(-6 -0.002)">
      <path id="Path_58387" data-name="Path 58387" d="M35.362,35.308a11.764,11.764,0,1,0-10.189,5.956,11.612,11.612,0,0,0,4.233-.813L38.3,50.557a3.915,3.915,0,0,0,2.71,1.336c.079,0,.159.007.238.007a3.936,3.936,0,0,0,2.983-6.515Zm-17.8.832a10.07,10.07,0,0,1,7.577-16.684q.339,0,.688.023a9.993,9.993,0,0,1,6.9,3.416A10.067,10.067,0,0,1,17.558,36.142ZM42.73,49.656a2.27,2.27,0,0,1-1.618.553,2.228,2.228,0,0,1-1.539-.76L31.047,39.69a1.145,1.145,0,0,0,.1-.084,10.658,10.658,0,0,0,3.186-2.784c.029-.03.068-.05.095-.084l8.526,9.76A2.24,2.24,0,0,1,42.73,49.656Z" transform="translate(0.953 2.293)" fill="#039"/>
      <path id="Path_58388" data-name="Path 58388" d="M14.727,14.671H19.6v4.016a.847.847,0,1,0,1.694,0V13.824a.847.847,0,0,0-.847-.847H16.626l9.747-10.84L35.6,12.977H32.338a.847.847,0,0,0-.847.847v5.842a.847.847,0,1,0,1.694,0v-5h4.251a.847.847,0,0,0,.645-1.4L27.036.3A.845.845,0,0,0,26.4,0a.968.968,0,0,0-.644.281L14.1,13.257a.848.848,0,0,0,.63,1.414Z" transform="translate(1.018)" fill="#039"/>
      <path id="Path_58389" data-name="Path 58389" d="M10.861,22.477H8.747L15.018,15.5l2.766,3.25a.847.847,0,1,0,1.29-1.1l-3.393-3.987a.846.846,0,0,0-1.275-.017l-8.19,9.111a.847.847,0,0,0,.63,1.413h3.167v15.6a.847.847,0,0,0,1.694,0V23.324a.847.847,0,0,0-.847-.847Z" transform="translate(0 1.726)" fill="#039"/>
      <path id="Path_58390" data-name="Path 58390" d="M43.02,24.416l-6.344-7.452a.848.848,0,0,0-.633-.3.924.924,0,0,0-.641.281l-2.617,2.919A.847.847,0,1,0,34.043,21l1.97-2.193,4.529,5.319h-1.1a.847.847,0,0,0-.847.847V37.62a.847.847,0,1,0,1.694,0V25.813h2.081a.847.847,0,0,0,.645-1.4Z" transform="translate(3.427 2.152)" fill="#039"/>
      <path id="Path_58391" data-name="Path 58391" d="M17.535,27.438a.847.847,0,0,0-.847.847v4.509a.847.847,0,0,0,1.694,0V28.285a.846.846,0,0,0-.847-.847Z" transform="translate(1.38 3.544)" fill="#039"/>
      <path id="Path_58392" data-name="Path 58392" d="M20.691,29.163a.847.847,0,0,0-.847.847v2.561a.847.847,0,1,0,1.694,0V30.01a.847.847,0,0,0-.847-.847Z" transform="translate(1.788 3.766)" fill="#039"/>
      <path id="Path_58393" data-name="Path 58393" d="M23.846,25.515a.847.847,0,0,0-.847.847v6.68a.847.847,0,0,0,1.694,0v-6.68A.847.847,0,0,0,23.846,25.515Z" transform="translate(2.195 3.295)" fill="#039"/>
      <path id="Path_58394" data-name="Path 58394" d="M27.848,22.467a.847.847,0,1,0-1.694,0V33.545a.847.847,0,0,0,1.694,0Z" transform="translate(2.603 2.792)" fill="#039"/>
      <path id="Path_58395" data-name="Path 58395" d="M30.157,33.64A.847.847,0,0,0,31,32.794V28.285a.847.847,0,1,0-1.694,0v4.509a.847.847,0,0,0,.847.847Z" transform="translate(3.01 3.544)" fill="#039"/>
    </g>
  </g>
</svg>
