<svg id="Group_84150" data-name="Group 84150" xmlns="http://www.w3.org/2000/svg" xmlns:xlink="http://www.w3.org/1999/xlink" width="25.257" height="30.856" viewBox="0 0 25.257 30.856">
  <defs>
    <clipPath id="clip-path">
      <rect id="Rectangle_29490" data-name="Rectangle 29490" width="25.257" height="30.856" fill="#fff"/>
    </clipPath>
  </defs>
  <g id="Group_84149" data-name="Group 84149" clip-path="url(#clip-path)">
    <path id="Path_59538" data-name="Path 59538" d="M25.251,9.777c0-.02-.006-.039-.009-.059s0-.036-.008-.053-.012-.048-.018-.072-.006-.025-.01-.037-.016-.047-.025-.069-.008-.025-.013-.037-.018-.039-.027-.058-.014-.03-.022-.045-.016-.027-.024-.04-.022-.039-.035-.057l-.011-.015a1.152,1.152,0,0,0-.13-.156L16.182.337A1.151,1.151,0,0,0,15.367,0H3.846A3.851,3.851,0,0,0,0,3.846V27.01a3.851,3.851,0,0,0,3.846,3.846H21.41a3.851,3.851,0,0,0,3.846-3.847V9.892a1.156,1.156,0,0,0-.006-.116M16.516,3.931l4.81,4.81H18.059A1.545,1.545,0,0,1,16.516,7.2ZM21.41,28.553H3.846A1.545,1.545,0,0,1,2.3,27.01V3.846A1.545,1.545,0,0,1,3.846,2.3H14.213V7.2a3.851,3.851,0,0,0,3.846,3.846h4.895V27.01a1.545,1.545,0,0,1-1.544,1.544" transform="translate(0 0)" fill="#fff"/>
    <path id="Path_59539" data-name="Path 59539" d="M103.75,174.059l-2.214,2.214v-7.121a1.151,1.151,0,0,0-2.3,0v7.122l-2.214-2.214a1.151,1.151,0,0,0-1.628,1.629l4.179,4.179a1.145,1.145,0,0,0,1.628,0l4.179-4.175a1.151,1.151,0,0,0-1.628-1.629" transform="translate(-87.758 -155.105)" fill="#fff"/>
  </g>
</svg>
