<svg xmlns="http://www.w3.org/2000/svg" width="27" height="26.999" viewBox="0 0 27 26.999">
  <path id="icon-facebook" d="M11.39,26.835a13.5,13.5,0,1,1,4.219,0V17.4h3.146l.6-3.9H15.609V10.967a1.951,1.951,0,0,1,2.2-2.108h1.7V5.537a20.761,20.761,0,0,0-3.022-.264c-3.084,0-5.1,1.869-5.1,5.252V13.5H7.963v3.9H11.39Zm3.361.107h0Zm-2.506,0h0Zm.04,0h0Zm2.424,0h0Zm-.043,0h0Zm-2.336,0h0Zm2.293,0h0Zm-2.251,0h0Zm.038,0h0Zm2.17,0h0Zm-.043,0h0Zm-2.088,0h0Zm2.045,0h0Zm-1.995,0h0Zm1.952,0h0Zm-1.914,0h0Zm.038,0h0Zm1.833,0h0Zm-.043,0h0Zm-1.734,0h0Zm1.691,0h0Zm-1.655,0h0Zm.038,0h0Zm1.574,0h0Zm-1.516,0h0Zm1.473,0h0Zm-.043,0h0Zm-1.395,0h0Zm1.352,0h0Zm-1.313,0h0Zm1.27,0h0Zm-1.231,0h0Zm1.188,0h0Zm-1.133,0h0Zm1.09,0h0Zm-1.052,0h0Zm.04,0h0Zm.969,0h0Zm-.043,0h0Zm-.871,0h0Zm.038,0h0Zm.789,0h0Zm-.043,0h0Zm-.706,0h0Zm.663,0h0Zm-.619,0h0Zm.049,0h0Zm.527,0h0Zm-.487,0h0Zm.443,0h0Zm-.4,0h0Zm.358,0h0Zm-.044,0h0Zm-.263,0h0Zm.22,0h0Zm-.18,0h0Zm.136,0h0Zm-.1,0h0Z" fill="#fff" fill-rule="evenodd"/>
</svg>
