<svg xmlns="http://www.w3.org/2000/svg" xmlns:xlink="http://www.w3.org/1999/xlink" width="26.49" height="25.21" viewBox="0 0 26.49 25.21">
  <defs>
    <clipPath id="clip-path">
      <rect id="Rectangle_27846" data-name="Rectangle 27846" width="25.053" height="25.212" fill="#2f2f2f"/>
    </clipPath>
    <clipPath id="clip-icon-linkedin-black">
      <rect width="26.49" height="25.21"/>
    </clipPath>
  </defs>
  <g id="icon-linkedin-black" clip-path="url(#clip-icon-linkedin-black)">
    <g id="icon-linkedin-black-2" data-name="icon-linkedin-black" transform="translate(0.719)">
      <g id="Group_80318" data-name="Group 80318" transform="translate(0 0)" clip-path="url(#clip-path)">
        <path id="Path_56887" data-name="Path 56887" d="M19.921,16.805v-.039a.443.443,0,0,1-.026.039Z" transform="translate(-6.449 -5.435)" fill="#2f2f2f"/>
        <path id="Path_56888" data-name="Path 56888" d="M21.236,21.1H17.453V15.014c0-1.529-.546-2.574-1.917-2.574a2.076,2.076,0,0,0-1.943,1.383,2.592,2.592,0,0,0-.124.924V21.1H9.686s.05-10.317,0-11.384h3.783v1.611a3.753,3.753,0,0,1,3.411-1.88c2.489,0,4.356,1.629,4.356,5.124ZM5.7,8.165H5.674a1.972,1.972,0,1,1,.05-3.933A1.973,1.973,0,1,1,5.7,8.165M7.592,21.1H3.81V9.72H7.592ZM23.2,0H1.85A1.828,1.828,0,0,0,0,1.806v21.6a1.831,1.831,0,0,0,1.85,1.806H23.2a1.831,1.831,0,0,0,1.853-1.806V1.806A1.829,1.829,0,0,0,23.2,0" transform="translate(0 0)" fill="#2f2f2f"/>
      </g>
    </g>
  </g>
</svg>
