<svg xmlns="http://www.w3.org/2000/svg" xmlns:xlink="http://www.w3.org/1999/xlink" width="48" height="54.19" viewBox="0 0 48 54.19">
  <defs>
    <clipPath id="clip-icon-insights">
      <rect width="48" height="54.19"/>
    </clipPath>
  </defs>
  <g id="icon-insights" clip-path="url(#clip-icon-insights)">
    <g id="icon-insights-2" data-name="icon-insights" transform="translate(-0.001 0.382)">
      <path id="Path_58404" data-name="Path 58404" d="M161.043,198.087A1.043,1.043,0,1,0,160,197.043,1.044,1.044,0,0,0,161.043,198.087Zm0,0" transform="translate(-143.304 -175.548)" fill="#039" stroke="#f2f2f2" stroke-width="0.5"/>
      <path id="Path_58405" data-name="Path 58405" d="M221.043,8.974a1.043,1.043,0,0,0,1.043-1.043V1.043a1.043,1.043,0,0,0-2.087,0V7.93A1.043,1.043,0,0,0,221.043,8.974Zm0,0" transform="translate(-197.043)" fill="#039" stroke="#f2f2f2" stroke-width="0.5"/>
      <path id="Path_58406" data-name="Path 58406" d="M220,427.043v6.887a1.043,1.043,0,1,0,2.087,0v-6.887a1.043,1.043,0,0,0-2.087,0Zm0,0" transform="translate(-197.043 -381.548)" fill="#039" stroke="#f2f2f2" stroke-width="0.5"/>
      <path id="Path_58407" data-name="Path 58407" d="M35.022,82.5A1.044,1.044,0,0,0,36.5,81.022L32.07,76.595a1.043,1.043,0,0,0-1.476,1.476Zm0,0" transform="translate(-27.128 -68.329)" fill="#039" stroke="#f2f2f2" stroke-width="0.5"/>
      <path id="Path_58408" data-name="Path 58408" d="M367.587,383.586a1.044,1.044,0,0,0,0,1.476l4.427,4.427a1.044,1.044,0,0,0,1.476-1.476l-4.427-4.427A1.044,1.044,0,0,0,367.587,383.586Zm0,0" transform="translate(-328.956 -343.286)" fill="#039" stroke="#f2f2f2" stroke-width="0.5"/>
      <path id="Path_58409" data-name="Path 58409" d="M369.062,82.5l4.427-4.427a1.043,1.043,0,0,0-1.476-1.476l-4.427,4.427a1.043,1.043,0,0,0,1.476,1.476Zm0,0" transform="translate(-328.956 -68.329)" fill="#039" stroke="#f2f2f2" stroke-width="0.5"/>
      <path id="Path_58410" data-name="Path 58410" d="M35.022,383.587l-4.427,4.427a1.043,1.043,0,0,0,1.476,1.476l4.428-4.427a1.044,1.044,0,0,0-1.476-1.476Zm0,0" transform="translate(-27.128 -343.287)" fill="#039" stroke="#f2f2f2" stroke-width="0.5"/>
      <path id="Path_58411" data-name="Path 58411" d="M6.662,138.188c5.438,4.6,11.434,7.029,17.339,7.029s11.9-2.431,17.339-7.029a37.877,37.877,0,0,0,6.483-7,1.044,1.044,0,0,0,0-1.165,37.892,37.892,0,0,0-6.483-7C35.9,118.431,29.906,116,24,116s-11.9,2.431-17.339,7.029a37.913,37.913,0,0,0-6.483,7,1.044,1.044,0,0,0,0,1.165A37.912,37.912,0,0,0,6.662,138.188ZM8.01,124.623c3.526-2.982,9.162-6.536,15.991-6.536,6.808,0,12.43,3.534,15.947,6.5a38.033,38.033,0,0,1,5.722,6.024,37.919,37.919,0,0,1-5.678,5.985C36.466,139.576,30.83,143.13,24,143.13c-6.808,0-12.43-3.534-15.947-6.5a38.012,38.012,0,0,1-5.722-6.024A37.87,37.87,0,0,1,8.01,124.623Zm0,0" transform="translate(0 -103.896)" fill="#039" stroke="#f2f2f2" stroke-width="0.5"/>
      <path id="Path_58412" data-name="Path 58412" d="M149.391,184.782a9.391,9.391,0,1,0-3.361-18.163,1.047,1.047,0,1,0,.857,1.908,7.305,7.305,0,1,1-4.8,6.864,7.6,7.6,0,0,1,.121-1.332,1.044,1.044,0,0,0-2.051-.384,9.4,9.4,0,0,0,9.235,11.107Zm0,0" transform="translate(-125.391 -148.678)" fill="#039" stroke="#f2f2f2" stroke-width="0.5"/>
      <path id="Path_58413" data-name="Path 58413" d="M198.348,220.174a4.174,4.174,0,1,0-4.174,4.174A4.179,4.179,0,0,0,198.348,220.174Zm-6.261,0a2.087,2.087,0,1,1,2.087,2.087A2.089,2.089,0,0,1,192.087,220.174Zm0,0" transform="translate(-170.173 -193.461)" fill="#039" stroke="#f2f2f2" stroke-width="0.5"/>
    </g>
  </g>
</svg>
