<svg xmlns="http://www.w3.org/2000/svg" xmlns:xlink="http://www.w3.org/1999/xlink" width="36" height="36" viewBox="0 0 36 36">
  <defs>
    <clipPath id="clip-icon-trends">
      <rect width="36" height="36"/>
    </clipPath>
  </defs>
  <g id="icon-trends" clip-path="url(#clip-icon-trends)">
    <g id="growth-report" transform="translate(-1)">
      <path id="Path_58387" data-name="Path 58387" d="M27.629,29.133a7.626,7.626,0,1,0-6.6,3.861,7.527,7.527,0,0,0,2.744-.527l5.763,6.551a2.538,2.538,0,0,0,1.757.866c.051,0,.1,0,.154,0a2.552,2.552,0,0,0,1.934-4.223Zm-11.541.539A6.527,6.527,0,0,1,21,18.857q.22,0,.446.015a6.478,6.478,0,0,1,4.471,2.214,6.526,6.526,0,0,1-9.828,8.588ZM32.4,38.433a1.471,1.471,0,0,1-1.049.359,1.444,1.444,0,0,1-1-.493l-5.527-6.326a.743.743,0,0,0,.063-.054,6.909,6.909,0,0,0,2.066-1.8c.019-.02.044-.032.061-.054l5.527,6.327A1.452,1.452,0,0,1,32.4,38.433Z" transform="translate(-1.978 -4.759)" fill="#fef6f1"/>
      <path id="Path_58388" data-name="Path 58388" d="M14.429,9.51h3.156v2.6a.549.549,0,1,0,1.1,0V8.961a.549.549,0,0,0-.549-.549H15.66l6.318-7.027,5.984,7.027H25.845a.549.549,0,0,0-.549.549v3.787a.549.549,0,1,0,1.1,0V9.51H29.15a.549.549,0,0,0,.418-.905L22.408.193A.547.547,0,0,0,22,0a.627.627,0,0,0-.417.182L14.021,8.594a.55.55,0,0,0,.408.916Z" transform="translate(-2.112)" fill="#fef6f1"/>
      <path id="Path_58389" data-name="Path 58389" d="M9.151,19.272H7.781l4.065-4.523,1.793,2.107a.549.549,0,1,0,.836-.712l-2.2-2.584a.548.548,0,0,0-.826-.011L6.141,19.454a.549.549,0,0,0,.408.916H8.6V30.484a.549.549,0,0,0,1.1,0V19.821a.549.549,0,0,0-.549-.549Z" transform="translate(0 -3.583)" fill="#fef6f1"/>
      <path id="Path_58390" data-name="Path 58390" d="M39.332,21.69,35.22,16.859a.55.55,0,0,0-.411-.193.6.6,0,0,0-.416.182L32.7,18.74a.549.549,0,1,0,.816.732l1.277-1.421L37.726,21.5h-.71a.549.549,0,0,0-.549.549v8.2a.549.549,0,1,0,1.1,0V22.6h1.349a.549.549,0,0,0,.418-.905Z" transform="translate(-7.113 -4.468)" fill="#fef6f1"/>
      <path id="Path_58391" data-name="Path 58391" d="M17.237,27.438a.549.549,0,0,0-.549.549V30.91a.549.549,0,1,0,1.1,0V27.987a.548.548,0,0,0-.549-.549Z" transform="translate(-2.865 -7.355)" fill="#fef6f1"/>
      <path id="Path_58392" data-name="Path 58392" d="M20.393,29.163a.549.549,0,0,0-.549.549v1.66a.549.549,0,1,0,1.1,0v-1.66a.549.549,0,0,0-.549-.549Z" transform="translate(-3.711 -7.818)" fill="#fef6f1"/>
      <path id="Path_58393" data-name="Path 58393" d="M23.548,25.515a.549.549,0,0,0-.549.549v4.33a.549.549,0,0,0,1.1,0v-4.33A.549.549,0,0,0,23.548,25.515Z" transform="translate(-4.557 -6.84)" fill="#fef6f1"/>
      <path id="Path_58394" data-name="Path 58394" d="M27.252,22.169a.549.549,0,1,0-1.1,0V29.35a.549.549,0,0,0,1.1,0Z" transform="translate(-5.403 -5.796)" fill="#fef6f1"/>
      <path id="Path_58395" data-name="Path 58395" d="M29.859,31.459a.549.549,0,0,0,.549-.549V27.987a.549.549,0,1,0-1.1,0V30.91a.549.549,0,0,0,.549.549Z" transform="translate(-6.249 -7.355)" fill="#fef6f1"/>
    </g>
  </g>
</svg>
