<svg id="icon-twitter" xmlns="http://www.w3.org/2000/svg" xmlns:xlink="http://www.w3.org/1999/xlink" width="25.449" height="20.685" viewBox="0 0 25.449 20.685">
  <defs>
    <clipPath id="clip-path">
      <rect id="Rectangle_27844" data-name="Rectangle 27844" width="25.449" height="20.685" fill="#fff"/>
    </clipPath>
  </defs>
  <g id="Group_80314" data-name="Group 80314" transform="translate(0 0)" clip-path="url(#clip-path)">
    <path id="Path_56885" data-name="Path 56885" d="M25.447,2.451a10.384,10.384,0,0,1-3,.82A5.22,5.22,0,0,0,24.741.382,10.429,10.429,0,0,1,21.427,1.65a5.226,5.226,0,0,0-8.895,4.762A14.816,14.816,0,0,1,1.77.955,5.227,5.227,0,0,0,3.385,7.926a5.206,5.206,0,0,1-2.365-.654V7.34a5.227,5.227,0,0,0,4.189,5.12,5.242,5.242,0,0,1-2.357.089,5.23,5.23,0,0,0,4.878,3.627,10.471,10.471,0,0,1-6.484,2.236A10.5,10.5,0,0,1,0,18.338a14.784,14.784,0,0,0,8,2.347A14.754,14.754,0,0,0,22.858,5.83c0-.226-.006-.452-.013-.675a10.556,10.556,0,0,0,2.6-2.7Z" transform="translate(0 0)" fill="#fff"/>
  </g>
</svg>
