<svg xmlns="http://www.w3.org/2000/svg" width="25.959" height="19.594" viewBox="0 0 25.959 19.594">
  <g id="icon-mail-navbar" transform="translate(0.25 0.25)">
    <path id="Path_57036" data-name="Path 57036" d="M23.337,64H2.122A2.124,2.124,0,0,0,0,66.122V80.973a2.124,2.124,0,0,0,2.122,2.122H23.337a2.124,2.124,0,0,0,2.122-2.122V66.122A2.124,2.124,0,0,0,23.337,64ZM2.122,65.061H23.337a1.009,1.009,0,0,1,.22.045c-1.837,1.681-7.927,7.253-10.059,9.173a1.064,1.064,0,0,1-1.54,0C9.828,72.358,3.737,66.786,1.9,65.105A1.014,1.014,0,0,1,2.122,65.061ZM1.061,80.973V66.122a1.025,1.025,0,0,1,.059-.293C2.526,67.115,6.776,71,9.531,73.509c-2.747,2.359-7,6.389-8.414,7.741A1.022,1.022,0,0,1,1.061,80.973Zm22.277,1.061H2.122a1.015,1.015,0,0,1-.239-.048c1.464-1.4,5.742-5.449,8.44-7.757l.926.838a2.119,2.119,0,0,0,2.96,0l.927-.839c2.7,2.308,6.976,6.361,8.44,7.757A1.014,1.014,0,0,1,23.337,82.033ZM24.4,80.973a1.024,1.024,0,0,1-.056.276c-1.418-1.352-5.668-5.382-8.414-7.741,2.756-2.506,7-6.393,8.411-7.68a1.025,1.025,0,0,1,.059.293Z" transform="translate(0 -64)" fill="#727272" stroke="#707070" stroke-width="0.5"/>
  </g>
</svg>
