<svg xmlns="http://www.w3.org/2000/svg" xmlns:xlink="http://www.w3.org/1999/xlink" width="26.49" height="24" viewBox="0 0 26.49 24">
  <defs>
    <clipPath id="clip-path">
      <rect id="Rectangle_27761" data-name="Rectangle 27761" width="24" height="24" fill="#505050"/>
    </clipPath>
    <clipPath id="clip-icon-whatsapp-black">
      <rect width="26.49" height="24"/>
    </clipPath>
  </defs>
  <g id="icon-whatsapp-black" clip-path="url(#clip-icon-whatsapp-black)">
    <g id="icon-whatsapp-black-2" data-name="icon-whatsapp-black" transform="translate(1.245)">
      <g id="Group_80259" data-name="Group 80259" clip-path="url(#clip-path)">
        <path id="Path_56870" data-name="Path 56870" d="M20.13,3.44A11.736,11.736,0,0,0,1.665,17.6L0,23.676l6.22-1.633a11.7,11.7,0,0,0,5.607,1.427h.005A11.845,11.845,0,0,0,23.676,11.737a11.778,11.778,0,0,0-3.546-8.3m-8.3,18.053a9.733,9.733,0,0,1-4.968-1.358l-.354-.212-3.689.967.983-3.6-.232-.37a9.77,9.77,0,1,1,18.122-5.184,9.86,9.86,0,0,1-9.861,9.756" fill="#505050"/>
        <path id="Path_56871" data-name="Path 56871" d="M96.792,99.974c-.291-.148-1.733-.856-2-.951s-.465-.148-.661.148-.756.951-.93,1.152-.343.222-.634.074a7.98,7.98,0,0,1-3.99-3.488c-.3-.518.3-.481.861-1.6a.543.543,0,0,0-.027-.513c-.074-.148-.661-1.591-.9-2.177-.238-.571-.481-.491-.661-.5s-.365-.011-.56-.011a1.086,1.086,0,0,0-.782.365,3.3,3.3,0,0,0-1.025,2.447,5.743,5.743,0,0,0,1.194,3.033,13.1,13.1,0,0,0,5.01,4.429c1.86.8,2.59.872,3.52.735a3,3,0,0,0,1.977-1.4,2.451,2.451,0,0,0,.169-1.4c-.069-.132-.264-.206-.555-.349Z" transform="translate(-79.611 -85.784)" fill="#505050"/>
      </g>
    </g>
  </g>
</svg>
