<svg xmlns="http://www.w3.org/2000/svg" xmlns:xlink="http://www.w3.org/1999/xlink" width="26.49" height="24.04" viewBox="0 0 26.49 24.04">
  <defs>
    <clipPath id="clip-icon-add-bookmark-black">
      <rect width="26.49" height="24.04"/>
    </clipPath>
  </defs>
  <g id="icon-add-bookmark-black" clip-path="url(#clip-icon-add-bookmark-black)">
    <path id="icon-add-bookmark-black-2" data-name="icon-add-bookmark-black" d="M22.724,21.227a2.774,2.774,0,0,1-.822,1.992,2.891,2.891,0,0,1-2.054.826,2.727,2.727,0,0,1-1.961-.836l-4.273-4.392L9.34,23.208a2.739,2.739,0,0,1-1.956.836h-.05a2.883,2.883,0,0,1-2.011-.817A2.756,2.756,0,0,1,4.5,21.243V3.757A3.761,3.761,0,0,1,8.26,0H18.967a3.761,3.761,0,0,1,3.757,3.757.939.939,0,1,1-1.878,0,1.881,1.881,0,0,0-1.878-1.878H8.26A1.881,1.881,0,0,0,6.381,3.757V21.243a.869.869,0,0,0,.259.644,1,1,0,0,0,.711.279.874.874,0,0,0,.643-.268l4.947-5.083a.939.939,0,0,1,1.346,0L19.233,21.9a.863.863,0,0,0,.638.268,1.007,1.007,0,0,0,.711-.284.886.886,0,0,0,.264-.655.939.939,0,0,1,1.878,0Zm5.4-8.829a6.34,6.34,0,1,1-6.34-6.34A6.347,6.347,0,0,1,28.125,12.4Zm-1.878,0a4.461,4.461,0,1,0-4.461,4.461A4.466,4.466,0,0,0,26.246,12.4Zm-2.583-.939h-.939v-.939a.939.939,0,1,0-1.878,0v.939h-.939a.939.939,0,1,0,0,1.878h.939v.939a.939.939,0,1,0,1.878,0v-.939h.939a.939.939,0,1,0,0-1.878Z" transform="translate(-3.069 -0.005)" fill="#363636"/>
  </g>
</svg>
