<svg xmlns="http://www.w3.org/2000/svg" xmlns:xlink="http://www.w3.org/1999/xlink" width="31.071" height="31.071" viewBox="0 0 31.071 31.071">
  <defs>
    <clipPath id="clip-path"/>
    <clipPath id="clip-path-2">
      <path id="Path_57434" data-name="Path 57434" d="M292.792,150.737A15.535,15.535,0,1,0,308.327,135.2a15.535,15.535,0,0,0-15.535,15.535" transform="translate(-292.792 -135.202)" fill="none"/>
    </clipPath>
  </defs>
  <g id="jane-doe-default" transform="translate(-33.146 -15.306)">
    <g id="Group_80709" data-name="Group 80709">
      <g id="Group_80708" data-name="Group 80708" clip-path="url(#clip-path)">
        <path id="Path_57413" data-name="Path 57413" d="M323.863,150.737A15.535,15.535,0,1,1,308.327,135.2a15.535,15.535,0,0,1,15.535,15.535" transform="translate(-259.646 -119.896)" fill="#e1e4f3"/>
      </g>
    </g>
    <g id="Group_80711" data-name="Group 80711" transform="translate(33.146 15.306)">
      <g id="Group_80710" data-name="Group 80710" clip-path="url(#clip-path-2)">
        <path id="Path_57414" data-name="Path 57414" d="M359.466,212.624A8.393,8.393,0,0,1,356.7,218.7a12.673,12.673,0,0,1-6.03,2.625,21.211,21.211,0,0,1-8.131-.073,34.043,34.043,0,0,1-7.587-2.772c-2.539-1.2-5.062-2.433-7.536-3.76-1.2-.643-2.382-1.3-3.543-2.011a12.426,12.426,0,0,1-2.865-2.226,10.448,10.448,0,0,1-1.848-3.172c-.234-.582-.448-1.173-.652-1.768a4.761,4.761,0,0,1-.345-1.966,6.3,6.3,0,0,1,1.509-2.827,4.761,4.761,0,0,0,.755-3.508c-.186-1.058-.94-2.021-.521-3.121a4.573,4.573,0,0,1,1.557-1.739c.611-.5,1.365-1.084,1.4-1.944a3.754,3.754,0,0,0-.5-1.653,5.081,5.081,0,0,1-.508-1.6c-.259-2.619,2.229-4.23,3.926-5.736.959-.851,1.765-1.858,2.718-2.711a8.492,8.492,0,0,1,2.83-1.7,8.654,8.654,0,0,1,6.388.246,3.843,3.843,0,0,1,2.033,1.385c1.346,1.685,1.458,3.869,2.1,5.845a5.1,5.1,0,0,0,1.742,2.657,20.5,20.5,0,0,0,2.6,1.365,4.176,4.176,0,0,1,1.922,1.784,7.75,7.75,0,0,1,.381,3.207,2.684,2.684,0,0,0,1.356,2.494c.783.435,1.666.652,2.437,1.1a2.821,2.821,0,0,1,1.464,2.088c.163,1.09-.265,2.449.508,3.373.713.851,1.909,1.1,2.641,1.947a1.98,1.98,0,0,1,.524,1.337,13.056,13.056,0,0,1-.38,1.589c-.1.665.54.841.969,1.189a3.465,3.465,0,0,1,.876,1.084,5.764,5.764,0,0,1,.579,2.887" transform="translate(-315.282 -171.868)" fill="#141414"/>
        <path id="Path_57415" data-name="Path 57415" d="M467.987,140.846a6.058,6.058,0,1,1-6.058-6.058,6.058,6.058,0,0,1,6.058,6.058" transform="translate(-437.409 -134.835)" fill="#141414"/>
        <path id="Path_57416" data-name="Path 57416" d="M351.544,178.913c.994,4.9-1.314,8.26-6.21,9.254s-12.092-2.131-13.086-7.028,3.585-8.134,8.482-9.128a9.09,9.09,0,0,1,10.814,6.9" transform="translate(-327.66 -167.675)" fill="#141414"/>
        <path id="Path_57417" data-name="Path 57417" d="M370.545,197.243a7.755,7.755,0,0,1-6.057,9.142c-4.2.852-7.308-1.6-8.16-5.8s1.78-7.791,5.977-8.643,7.387,1.1,8.24,5.3" transform="translate(-348.993 -185.345)" fill="#febb8d"/>
        <path id="Path_57418" data-name="Path 57418" d="M408.258,307.429l-8.179.668-1.046-4.572-.771-3.364.31-.134c.006,0,7.626-3.258,7.626-3.258Z" transform="translate(-386.323 -278.479)" fill="#febb8d"/>
        <path id="Path_57419" data-name="Path 57419" d="M404.175,309.116a8.994,8.994,0,0,1-2.9,1.867,5.662,5.662,0,0,1-2.244.505l-.771-3.364.31-.134a12.088,12.088,0,0,0,4.646-1.257,10.546,10.546,0,0,1,2.094-.972.325.325,0,0,1,.422.285c.189,1.205-.748,2.293-1.56,3.069" transform="translate(-386.323 -286.442)" fill="#be0328"/>
        <path id="Path_57420" data-name="Path 57420" d="M366.511,229.871a6.508,6.508,0,1,1-7.673-5.083,6.508,6.508,0,0,1,7.673,5.083" transform="translate(-346.738 -214.53)" fill="#febb8d"/>
        <path id="Path_57421" data-name="Path 57421" d="M428.93,252.851a.936.936,0,0,0-.1-.216.493.493,0,0,0-.666-.13l-.1.086a.477.477,0,0,0-.107.221c0,.041-.005.082-.008.122a.476.476,0,0,0,.023.114.5.5,0,0,0-.069.616l.085.1a.478.478,0,0,0,.22.107l.122.008a.476.476,0,0,0,.237-.081.912.912,0,0,0,.152-.127.374.374,0,0,0,.048-.055,1.015,1.015,0,0,0,.1-.162,1.744,1.744,0,0,0,.062-.183.694.694,0,0,0,.015-.131.726.726,0,0,0,0-.131c-.006-.052-.018-.1-.029-.153" transform="translate(-412.542 -239.152)" fill="#141414"/>
        <path id="Path_57422" data-name="Path 57422" d="M379.792,246.644a.927.927,0,0,0-.1-.216.493.493,0,0,0-.666-.13l-.1.085a.479.479,0,0,0-.107.221l-.008.122a.476.476,0,0,0,.023.114.364.364,0,0,0-.069.088.493.493,0,0,0,0,.528l.085.1a.477.477,0,0,0,.221.107l.122.008a.476.476,0,0,0,.237-.081.909.909,0,0,0,.152-.127.391.391,0,0,0,.048-.055,1.019,1.019,0,0,0,.1-.162,1.792,1.792,0,0,0,.062-.183.708.708,0,0,0,.015-.131.724.724,0,0,0,0-.131,1.541,1.541,0,0,0-.029-.154" transform="translate(-368.967 -233.647)" fill="#141414"/>
        <path id="Path_57423" data-name="Path 57423" d="M386.213,237.154a2.932,2.932,0,0,1-.6.86c-.16.163-.77.537-.585.793.243.333-.288.691-.531.358a.806.806,0,0,1-.077-.8,2.369,2.369,0,0,1,.636-.7,2.269,2.269,0,0,0,.742-1.819,3.941,3.941,0,0,0-.39-1.477,1.083,1.083,0,0,0,.425-.547,3.7,3.7,0,0,1,.46,1.077,3.459,3.459,0,0,1-.083,2.251" transform="translate(-373.987 -222.661)" fill="#be0328"/>
        <path id="Path_57424" data-name="Path 57424" d="M425.575,233.315a4.028,4.028,0,0,0-4.152-.63.328.328,0,0,0-.2.4.322.322,0,0,0,.4.2,3.4,3.4,0,0,1,3.532.509.32.32,0,0,0,.416-.486" transform="translate(-406.668 -221.369)" fill="#141414"/>
        <path id="Path_57425" data-name="Path 57425" d="M394.631,288.654a.327.327,0,0,0-.4-.2c-.076.022-.152.043-.229.058.04-.008-.073.011-.085.013l-.1.012q-.118.012-.236.014h-.118l-.077,0a2.686,2.686,0,0,1-.459-.076l-.1-.026a3.189,3.189,0,0,1-.3-.117.32.32,0,0,0-.278.576,3.137,3.137,0,0,0,2.184.155.322.322,0,0,0,.2-.4" transform="translate(-380.83 -270.967)" fill="#be0328"/>
        <path id="Path_57426" data-name="Path 57426" d="M396.615,179.138c-.048.144-.224.182-.352.176a9.6,9.6,0,0,1-4.1-1.295,14.191,14.191,0,0,1-2.99-2.334,9.56,9.56,0,0,1-2.248-3.293,23.656,23.656,0,0,0-1.356-3.939c-.614-1.023-1.791-2.008-3.057-1.637-.393.115-.6-.489-.2-.6a.5.5,0,0,1,.128-.2,8.415,8.415,0,0,1,5.253-1.9,10.148,10.148,0,0,1,5.177.946,8.523,8.523,0,0,1,3.313,3.261c1.922,3.313,1.6,7.3.432,10.811" transform="translate(-371.991 -160.831)" fill="#141414"/>
        <path id="Path_57427" data-name="Path 57427" d="M376.426,224.476a1.083,1.083,0,0,1-.425.547,1.6,1.6,0,0,0-1.842-1.062c-.4.1-.6-.5-.2-.608a2.232,2.232,0,0,1,2.468,1.122" transform="translate(-364.577 -213.311)" fill="#141414"/>
        <path id="Path_57428" data-name="Path 57428" d="M531.6,247.844a2.754,2.754,0,0,0-2.3-2.165,1.4,1.4,0,0,1-1.229-.973,3.938,3.938,0,0,1-.141-1.672c.106-1.194.259-2.517-.7-3.421s-2.37-.856-3.576-1.212c-.65-.192-1.194-.571-1.22-1.3a10.262,10.262,0,0,1,.346-1.952,4.5,4.5,0,0,0-.527-3.37,4.588,4.588,0,0,0-2.591-1.517c-1.148-.336-2.427-.6-3.093-1.7-.655-1.082-.747-2.422-1.73-3.308-.306-.275-.723.209-.417.485.864.778,1,2.051,1.534,3.035a3.932,3.932,0,0,0,2.409,1.769,8.357,8.357,0,0,1,2.976,1.182,3.537,3.537,0,0,1,.792,3.422c-.2,1.129-.753,2.5.331,3.37,1.041.833,2.515.612,3.682,1.147,2.6,1.191-.082,4.686,2.029,6.27.546.409,1.26.311,1.835.656a2.045,2.045,0,0,1,1,1.721,2.134,2.134,0,0,1-.281,1.071c-.184.323-.489.539-.7.839a.923.923,0,0,0,.231,1.4.32.32,0,0,0,.278-.576c-.339-.169.178-.651.308-.786a2.877,2.877,0,0,0,.516-.711,2.752,2.752,0,0,0,.242-1.706" transform="translate(-489.237 -214.985)" fill="#141414"/>
        <path id="Path_57429" data-name="Path 57429" d="M288.715,380.835c-1.941,6-9.087,19.508-10.059,21.02a.342.342,0,0,1-.192.144,7.756,7.756,0,0,1-13.49-7.581.126.126,0,0,1-.01-.074c.2-.636-11.635-15.885-16.15-21.669a7.826,7.826,0,0,1-1.56-2l-.16-.2a8.557,8.557,0,0,1-.783-3.5,7.758,7.758,0,0,1,6.267-7.613,52.243,52.243,0,0,1,6.532-.31c-.336,1.18.189,2.9,5.554,4.943,5.557,2.117,12.793,1.506,16.8.911,3.025,2.171,5.794,4.288,6.4,5.148,1.455,2.059,2.788,4.787.851,10.785" transform="translate(-251.573 -333.707)" fill="#00307f"/>
        <path id="Path_57430" data-name="Path 57430" d="M381.1,362.347c-4.006.595-11.242,1.205-16.8-.911-5.365-2.04-5.89-3.763-5.554-4.943,2.916-.038,5.675-.022,5.675-.022l7.754-.3s4.707,3.146,8.924,6.181" transform="translate(-351.21 -331.151)" fill="#febb8d"/>
        <path id="Path_57431" data-name="Path 57431" d="M134.958,375.086c.788-.848,8.179-5.331,11.935-7.452a56.358,56.358,0,0,1,5.695-2.908l5.21,13.449s-16.3,5.816-18.538,6.664-2.605.545-2.787.545-1.515-10.3-1.515-10.3" transform="translate(-152.826 -338.742)" fill="#00307f"/>
        <path id="Path_57432" data-name="Path 57432" d="M295.542,401.751c-.266-.308-.8.046-.53.357.715.829-.106,1.972-.66,2.643-.68.823-1.417,1.8-1.1,2.93.112.4.718.191.606-.2-.323-1.143.89-2.081,1.448-2.926.532-.805.95-1.97.234-2.8" transform="translate(-293.134 -371.471)" fill="#e1e4f3"/>
        <path id="Path_57433" data-name="Path 57433" d="M220.7,414.867a5.787,5.787,0,0,0-5.739-5.282,5.7,5.7,0,0,0-4.111,1.747c-.2.116-7.123,7.939-7.123,7.939s-5.05,4.557-5.516,5.2-.723,9.078-.723,9.078,14.764,1.322,15.209.766,4.862-13.19,5.842-14.446c.059-.075.118-.16.178-.252a5.7,5.7,0,0,0,1.966-4.31c0-.113-.01-.224-.017-.335l.034-.1" transform="translate(-208.277 -378.523)" fill="#ee4d14"/>
      </g>
    </g>
  </g>
</svg>
