<svg xmlns="http://www.w3.org/2000/svg" xmlns:xlink="http://www.w3.org/1999/xlink" width="32.998" height="32.998" viewBox="0 0 32.998 32.998">
  <defs>
    <clipPath id="clip-path"/>
    <clipPath id="clip-path-2">
      <path id="Path_57493" data-name="Path 57493" d="M775.64,181.7a16.5,16.5,0,1,0,16.5-16.5,16.5,16.5,0,0,0-16.5,16.5" transform="translate(-775.64 -165.203)" fill="none"/>
    </clipPath>
    <clipPath id="clip-path-3">
      <path id="Path_57465" data-name="Path 57465" d="M230.029,268.024v47.06a5.164,5.164,0,0,0,5.165,5.16H291.4v-52.22Z" transform="translate(-230.029 -268.024)" fill="none"/>
    </clipPath>
  </defs>
  <g id="lena-koh-default" transform="translate(-93.253 -19.866)">
    <g id="Group_80723" data-name="Group 80723" transform="translate(0 0.005)">
      <g id="Group_80722" data-name="Group 80722" transform="translate(0 0)" clip-path="url(#clip-path)">
        <path id="Path_57455" data-name="Path 57455" d="M808.638,181.7a16.5,16.5,0,1,1-16.5-16.5,16.5,16.5,0,0,1,16.5,16.5" transform="translate(-682.387 -145.342)" fill="#e1e4f3"/>
      </g>
    </g>
    <g id="Group_80727" data-name="Group 80727" transform="translate(93.253 19.866)">
      <g id="Group_80726" data-name="Group 80726" clip-path="url(#clip-path-2)">
        <g id="Group_80725" data-name="Group 80725" transform="translate(-65.597 12.362)">
          <g id="Group_80724" data-name="Group 80724" clip-path="url(#clip-path-3)">
            <path id="Path_57456" data-name="Path 57456" d="M88,164.263a15.909,15.909,0,0,0-2.687,2.4,11.338,11.338,0,0,0-1.74,2.627c-2.662,5.567-.692,12.838,1.059,18.771.081.9.1,1.792.1,2.7v27.894c.139,4.627-1.677,10.68.745,13.555,1.967,2.119,6.961-1.967,11.047-1.816,3.329.151,6.2,3.178,9.836,2.573,4.843-1.059,9.382-3.329,14.263-2.064a15.467,15.467,0,0,0,2.3,1.936,13.384,13.384,0,0,0,7.4,2.317,21.128,21.128,0,0,0,3.474-.214c6.464-.461,12.669-5,19.142-3.256a12.03,12.03,0,0,1,2.19.96c2.081,1.154,4.048,2.667,6.318,3.5,4.388,1.513,10.441,0,12.106-3.026,2.875-4.691.908-11.5.5-17.536a5.8,5.8,0,0,0-.652-1.857c-.754-1.338-1.662-2.7-1.057-4.214q.5-1.407.877-2.832c.254-.949.471-1.9.635-2.819a99.442,99.442,0,0,0,1.248-17.552c.006-1,.026-1.978.054-2.954s.065-1.949.116-2.92q.12-1.274.248-2.55c.3-1.816.908-4.086-.3-5.145-.605-.757-2.573-.151-3.935-.454a53.916,53.916,0,0,0-6.33-1.294q-1.577-.226-3.148-.36c-.733.073-1.453.156-2.153.239a26.088,26.088,0,0,1-2.94.309c-.973.05-1.937.056-2.887.044q-1.462,0-2.939-.022a27.037,27.037,0,0,0-2.843.072c-2.638.253-4.756,1.767-7.026,2.826-.454.3-1.211.605-1.665.3a33.7,33.7,0,0,0-3.055-1.744,25.392,25.392,0,0,0-9.047-2.007,5.161,5.161,0,0,0-3.043.715c-7.4,7.273-19.357,6.971-27.075.766-2.118-1.816,1.362-4.691,1.362-7.112-.151-3.48-4.843-2.421-7.175-1.482-2.164.47-3.315.722-3.315.722" transform="translate(-100.041 -175.293)" fill="#c8c9e5"/>
            <path id="Path_57457" data-name="Path 57457" d="M191.956,447.39c-3.593.859-5.561,4.34-8.738,6a4.932,4.932,0,0,1-1.967.605c-11.5,2.3-25.733.64-30.112-12.117a10.706,10.706,0,0,0-.9-2.016,6.765,6.765,0,0,0-3.336-1.839c-1.514.082-3.027.082-3.935,1.444-.4.58-.832,1.16-1.287,1.721a20.273,20.273,0,0,1-1.442,1.608,7.766,7.766,0,0,1-11.8,1.211c-2.724-2.573-5.3-5.75-9.023-7.018a16.768,16.768,0,0,0-3.386-.7c-.757-.151-.605-1.362-.757-2.27-.151-1.059-1.211-1.665-1.967-.908-3.026,3.48-3.329,8.474-6.621,11.473a6.3,6.3,0,0,1-1.765,1.335c-1.415.013-2.195.013-2.195.013V442.2s.656,0,1.854-.006a7.677,7.677,0,0,0,1.894-1.1,9.766,9.766,0,0,0,1.531-1.56c2.88-3.544,2.577-9.6,6.814-11.11,3.1-1.059,4.918.908,6.431,3.632.5.908.975,1.9,1.449,2.892,1.956,4.523,6.345,9.365,11.792,8.609a5.992,5.992,0,0,0,4.256-2.875c.52-.568,1.007-1.173,1.5-1.769s.981-1.182,1.511-1.712a8.51,8.51,0,0,1,8.7-1.894,7.631,7.631,0,0,1,2.371,1.483,6.479,6.479,0,0,1,1.616,2.37,12.042,12.042,0,0,0,1.15,2.223c1.849,2.813,4.977,5,7.5,7.32.454.3.454,1.21,1.059,1.513a21.043,21.043,0,0,0,16.694.546c1.065-.371,2.066-.746,2.987-1.136a14.073,14.073,0,0,0,5.028-3.577c.714-.276,1.438-.5,2.137-.706Z" transform="translate(-118.03 -408.884)" fill="#e1e4f3"/>
            <path id="Path_57458" data-name="Path 57458" d="M190.768,413.171c-.642.309-1.3.589-1.953.851-1.285.749-2.533,1.842-3.876,2.672a11.472,11.472,0,0,1-2.162,1.064c-5.461,1.393-11.817.788-16.205-2.844a72.918,72.918,0,0,0-7.966-6.01,24.761,24.761,0,0,0-2.833-1.529c-1.949-.312-3.87-.722-5.785-1.158-.957-.218-1.913-.442-2.932-.578-2.88.043-6.058-.411-8.782,1.254a9.362,9.362,0,0,0-2.288,2.189c-1.193,1.9-3.463,3.41-5.884,2.351a9.36,9.36,0,0,1-4.924-4.841c-.215-.716-.415-1.466-.639-2.228-1.059-3.81-2.7-7.928-5.278-9.516a4.4,4.4,0,0,0-2.023-.667,4.058,4.058,0,0,0-3.623,1.605c-1.9,2.2-2.956,6.186-4.309,9.056a11.907,11.907,0,0,1-1.15,1.755,9.148,9.148,0,0,1-1.51,1.5,11.465,11.465,0,0,1-3.923,1.063v-1.522a14.641,14.641,0,0,0,3.75-.731,11.967,11.967,0,0,0,1.564-1.559,15.33,15.33,0,0,0,1.26-1.755c1.322-1.981,2.248-4.977,3.619-7.307a9.826,9.826,0,0,1,1.531-2.045,5.341,5.341,0,0,1,4.723-1.261,5.405,5.405,0,0,1,2.948,1.732,8.744,8.744,0,0,1,1.778,3.1,26.733,26.733,0,0,1,.9,2.939c.285,1.094.565,2.268.874,3.422.947,2.87,2.309,7.712,5.941,7.258,2.421-.454,3.783-2.724,5.765-4.013.772-.569,1.556-1.12,2.361-1.605,2.413-1.457,5.007-2.328,8-1.346a24.524,24.524,0,0,1,2.68.778,15.713,15.713,0,0,0,4.915.945,12.559,12.559,0,0,1,2.81,1.221,47.352,47.352,0,0,0,7.669,3.868c.757.3,1.665.151,2.421.454,1.665.757,2.118,2.724,3.632,3.935.605.454,1.513.151,1.967.454,3.481,1.967,7.264,1.362,10.557-.061a12.96,12.96,0,0,0,4.088-2.784c.789-.331,1.545-.665,2.277-1.036Z" transform="translate(-118.03 -377.82)" fill="#e1e4f3"/>
            <path id="Path_57459" data-name="Path 57459" d="M192.5,407.222c-.543.363-1.13.73-1.743,1.057a16.859,16.859,0,0,1-1.918,1.03,5.047,5.047,0,0,1-1.992.727c-8.077-.795-15.922-5.181-24.043-3.426a15.144,15.144,0,0,0-3.584,1.259,11.418,11.418,0,0,1-6.532-.18,21.918,21.918,0,0,1-2.063-.764,22.452,22.452,0,0,1-4.114-1.582c-.66-.319-1.313-.655-1.966-.992-3.1-.973-6.576-4.454-9.375-1.881a6.83,6.83,0,0,1-3.253,1.211c-.454,0-1.059-.151-1.211-.454-4.237-6.507-12.56-6.053-18-2.32a25.681,25.681,0,0,0-2.364,1.462,21.6,21.6,0,0,0-2.186,1.766,4.186,4.186,0,0,1-1.995.735h-3.441v-1.064h1.892c.612,0,1.362,0,2.234-.077a17.8,17.8,0,0,1,4.29-3.346,20.256,20.256,0,0,1,2.453-1.152,8.045,8.045,0,0,1,6.156-1.513,15.348,15.348,0,0,1,3.068.621c3.047.916,6.074,2.542,9.1,3.375a10.073,10.073,0,0,0,2.444.359,12.185,12.185,0,0,0,2.382-.148c3.649-.968,7.129.546,10.155,2.362a6.289,6.289,0,0,0,2.492,1.418c.941.321,1.954.547,2.92.847a13.118,13.118,0,0,0,2.382.562,10.37,10.37,0,0,0,4.919-.491,15.513,15.513,0,0,1,3.358-1.323c7.423-1.883,14.441.9,21.459,3.678,2.119.757,4.237-.605,6.13-1.633.7-.386,1.38-.781,2.018-1.182Z" transform="translate(-118.03 -382.021)" fill="#e1e4f3"/>
            <path id="Path_57460" data-name="Path 57460" d="M192.747,331.026a37.718,37.718,0,0,1-3.169,2.256c-5.907,3.47-11.506-2.584-17.1-4.1-2.724-.794-5.107-.057-7.469.936-.787.331-1.572.691-2.369,1.039a8.542,8.542,0,0,1-4.67,1.3,9.031,9.031,0,0,1-2.371-.348,10.507,10.507,0,0,0-3.355-1.382c-4.734-.484-8.82-2.6-13.511-3.813a6.9,6.9,0,0,0-2.626.07,9.791,9.791,0,0,0-2.49.945c-1.088.2-2.3.8-2.9.346-.706-.58-1.425-1.152-2.156-1.705s-1.475-1.089-2.232-1.6c-.681-.383-1.407-.795-2.187-1.2-3.563-1.85-7.952-4.12-11.886-1.85a5.593,5.593,0,0,0-1.708,2.145,5.923,5.923,0,0,1-1.971,2.3,18.539,18.539,0,0,0-2.827,2.365c-.3.151-.757,0-1.066.019h-1.948v-3.962a24.947,24.947,0,0,0,2.578-.19c2.484-1.554,1.573-3.9,1.345-6.253a6.011,6.011,0,0,1,.151-2.326c7.112,2.573,15.133,2.421,21.537,6.842a14.108,14.108,0,0,0,1.711,1.285,5.84,5.84,0,0,0,1.873.8c1.967.454,3.934-.908,6.053-.757,1.078.208,2.149.437,3.215.674,7.458,1.655,14.642,3.658,22.057,1.142,1.059-.454,2.119,0,3.159.1q1.532.24,3.05.564a119.531,119.531,0,0,1,14.825,4.479c2.421.757,4.691-1.21,6.564-2.873.728-.551,1.419-1.137,2.062-1.667a21.608,21.608,0,0,1-.076,2.181c-.038,1.108-.08,2.233-.08,2.233" transform="translate(-118.03 -310.25)" fill="#e1e4f3"/>
            <path id="Path_57461" data-name="Path 57461" d="M184.828,275.012a4.329,4.329,0,0,1-3.5.876c-7.058.564-12.458-3.653-18.463-6.338a13.687,13.687,0,0,0-2.688-.879,5.6,5.6,0,0,0-3.863.143c-6.053,2.724-12.863,5.448-19.672,3.632a8.942,8.942,0,0,1-2.735-1.352,15.268,15.268,0,0,0-4.982-1.977,4.375,4.375,0,0,1-2.183-1.2,6.949,6.949,0,0,0-3.87-1.525c-8.625-.454-18.916.151-25.12-6.961-.151-.3-.908-.3-1.362,0a3.738,3.738,0,0,0-.757,3.329c.3,1.967,1.513,4.086.605,5.75-.908,1.513-2.421.454-2.421-1.211.3,0,.908,0,.908-.151.757-3.178-1.211-6.961,1.513-9.382a1.452,1.452,0,0,1,1.964.428c5.6,8.046,17.254,7.138,25.88,6.836a16.53,16.53,0,0,1,7.317,2.065c.651.389,1.315.765,1.966,1.168a16.5,16.5,0,0,1,1.888,1.331,19.327,19.327,0,0,0,2.225,1.187,8.123,8.123,0,0,0,2.493.6,27.237,27.237,0,0,0,16.949-4.086c1.513-1.059,3.48-.605,5.3-.169a22.5,22.5,0,0,1,2.48.858,36.588,36.588,0,0,1,9.315,5.516c1.967,1.665,4.389.151,6.62.244a13.659,13.659,0,0,1,3.065.362c.605.151.757-.757,1.324-.978Z" transform="translate(-110.189 -258.807)" fill="#e1e4f3"/>
            <path id="Path_57462" data-name="Path 57462" d="M172.3,216.6a9.983,9.983,0,0,1-2.789.611,14.817,14.817,0,0,1-2.891-.087,9.776,9.776,0,0,1-4.734-.884,44.309,44.309,0,0,0-8.446-3.23q-1.44-.392-2.9-.694c-1.822-.313-3.789-.615-5.3.141-5.3,2.875-10.29,6.053-16.646,4.54-.757-.189-1.617-.416-2.471-.706-2.068-.807-5.852-1.261-5.4-4.136.151-1.362,1.513-2.421,1.059-3.935a.982.982,0,0,0-1.513-.454c-5.3,2.421-10.9,4.994-16.948,4.389-1.211-.151-2.27-1.059-3.48-1.059-6.2-.151-12.106-2.573-14.981-8.474-.3-.454-1.211.151-1.967.454a5.518,5.518,0,0,0-2.062,3.215,15.835,15.835,0,0,0-.359,3.9c0,.151-.605.605-.605.454-.908-3.027-1.513-6.356.3-8.928a6.754,6.754,0,0,1,1.925-1.563c2.313-.556,5.793-3.885,6.852-1.917,1.362,2.572-.605,7.263,3.027,8.777,4.086,1.665,8.323,1.665,12.56,3.026,6.053,2.119,11.8-2.27,17.269-4.851a5.229,5.229,0,0,1,2.426.2,13.5,13.5,0,0,1,7.544,6.008,4.6,4.6,0,0,0,1.732,1.867c3.216,1.79,7.9-2.5,11.433-4.893,1.665-1.211,3.632-.605,5.6-.546.884.105,1.767.213,2.652.311a44.617,44.617,0,0,0,7.984.324c.981-.009,1.973-.038,2.982-.089,1.967-.152,3.632,1.664,5.777,1.818a23.761,23.761,0,0,0,2.7.149c0,.908-.145,1.826-.2,2.861-.047,1.694-.125,3.4-.125,3.4" transform="translate(-97.156 -206.085)" fill="#e1e4f3"/>
            <path id="Path_57463" data-name="Path 57463" d="M195.783,180.816c0,.69.306,1.749-.148,2.2s-1.513.3-2.27,0q-1.395-.473-2.795-.88a50.572,50.572,0,0,0-12.459-1.806c-1.05-.029-2.077-.022-3.073.017l-3.167.3c-4.685.1-6.8,4.334-10.436,6.452-1.362.908-3.329,1.059-4.086-.3a17.7,17.7,0,0,0-1.746-2.849,13.3,13.3,0,0,0-9.079-4.912,4.388,4.388,0,0,0-2.669.842c-4.059,2.985-8.751,6.162-14.047,5.406a128.11,128.11,0,0,1-12.863-2.421c-5.9-1.362-1.664-7.415-2.573-10.593-.908-2.724-5.9,1.665-9.231,1.816,2.27-2.724,6.053-3.178,9.382-3.632,1.059-.3,3.632,0,3.178,1.059-1.513,3.026-2.173,2.726,1.912,4.542,9.08,4.237,17.306,10.137,24.567,2.175a4.5,4.5,0,0,1,3.231-.609,17.9,17.9,0,0,1,8.822,4.168c.846.733,1.67,1.5,2.477,2.284a2.5,2.5,0,0,0,3.026,0c2.724-1.816,4.54-4.994,8.032-5.29,1.084-.129,2.176-.248,3.267-.369.894-.066,1.789-.118,2.687-.146a36.226,36.226,0,0,1,8.135.569c.868.122,1.745.261,2.62.413,2.627.456,5.249,1.02,7.866,1.6.928-.008,1.439-.043,1.439-.043" transform="translate(-120.157 -182.091)" fill="#e1e4f3"/>
            <path id="Path_57464" data-name="Path 57464" d="M191.768,402.194q-1.041.565-2.139,1.128c-5.655,5.672-14.583,6.126-19.728-.835a2.637,2.637,0,0,0-1.816-.908,11.2,11.2,0,0,1-6.563-.992,15.648,15.648,0,0,1-2.706-1.675c-1.948-1.012-3.906-2.048-5.906-2.868a19.743,19.743,0,0,0-2.036-.721c-5.941-1.462-11.692.959-17.594,2.321-2.875.757-6.053.757-8.172-1.665a82.487,82.487,0,0,0-6.961-7.566c-.605-.757-1.091-1.963-1.864-2.266-1.241-.305-2.228,1.055-3.13,1.963a17.652,17.652,0,0,0-1.637,2.624c-1.421,2.707-2.426,5.537-5.081,7.32a4.789,4.789,0,0,1-2.061.367h-1.651v-1.739s1.23,0,3.4-.006c2.546-1.658,3.693-4.286,5.129-6.773a19.029,19.029,0,0,1,1.595-2.4A3.941,3.941,0,0,1,119.3,386a12.564,12.564,0,0,1,1.783,1.94c1.682,2.213,3.2,5.012,4.784,6.526a7.261,7.261,0,0,0,6.961,2.421c6.81-1.664,13.317-5.145,20.306-2.223.957.333,1.9.694,2.842,1.075s1.862.781,2.775,1.195a14.982,14.982,0,0,0,2.583,1.158c1.709.476,3.576.056,5.694-1.962.151-.3.908.454,1.362.908,2.421,3.329,4.54,6.81,8.474,8.323,4.691,1.816,9.836-.454,13.322-3.59.71-.413,1.377-.81,2.017-1.206Z" transform="translate(-118.03 -370.839)" fill="#e1e4f3"/>
          </g>
        </g>
        <path id="Path_57466" data-name="Path 57466" d="M675.291,433.053c-1.742-.332-6.512-1.357-12.211,3.889s-12.03,13.025-12.482,15.286.477,9.948,5.7,10.764c5.789.9,10.221-5.065,12.663-6.6s13.748-11.849,13.748-11.849Z" transform="translate(-665.543 -400.582)" fill="#00307f"/>
        <path id="Path_57467" data-name="Path 57467" d="M845.852,193.627c.468,2.411,1.962,4.42,3.37,6.368,2.735,3.785,5.461,8.788,3.867,13.581-.716,2.148-2.463,4.043-2.248,6.435a5.618,5.618,0,0,0,3.227,4.215,17.981,17.981,0,0,0,6.268,1.752,30.534,30.534,0,0,0,7.29.067,31.244,31.244,0,0,0,7.008-1.614,21.8,21.8,0,0,0,6.492-3.356c1.614-1.332,2.783-3.723,1.5-5.681-.578-.878-1.528-1.422-1.919-2.43a24.934,24.934,0,0,1-.626-2.769,3.4,3.4,0,0,0-1.251-2.034,3.781,3.781,0,0,0-1.351-.515,3,3,0,0,1-1.327-.458c-.43-.377-.339-1.05-.391-1.566a4.757,4.757,0,0,0-.368-1.427,5.228,5.228,0,0,0-1.871-2.258,6.76,6.76,0,0,0-2.869-.917,1.842,1.842,0,0,1-1.432-.726,4.36,4.36,0,0,1-.253-1.552,2.332,2.332,0,0,0-1.676-2.015c-.926-.31-1.957-.31-2.63-1.117-.654-.788-.635-3.492-2.1-5.571a8.366,8.366,0,0,0-2.64-2.139c-3.48-2.124-8.96-3.079-12.316-.167a6.115,6.115,0,0,0-1.757,5.891" transform="translate(-837.288 -183.419)" fill="#141414"/>
        <path id="Path_57468" data-name="Path 57468" d="M978.611,230.04c2.135.831,1.858,4.149,4.262,4.441,1.322.161,2.7.023,3.5,1.315a4.49,4.49,0,0,1,.114,3.745c2.513.666,5.481.606,7.01,3.075a3.345,3.345,0,0,1,.521,1.608,11.614,11.614,0,0,1-.432,1.974c-.143,1.21,1.974,1.066,2.742,1.39a3.99,3.99,0,0,1,2.153,2.309,3.777,3.777,0,0,1,.226,1.644c-.057.58-.485,1.264-.281,1.836.316.883,1.481,1.335,2.02,2.08a2.479,2.479,0,0,1-.124,3c-1.834,2.482-5.766,2.622-8.4,1.553-.567-.231-.266-1.137.3-.905,2.213.9,5.716.95,7.3-1.181,1.545-2.078-1.779-2.766-2.088-4.552a3.766,3.766,0,0,1,.25-1.539,2.785,2.785,0,0,0-.095-1.574,3.018,3.018,0,0,0-2.343-1.981c-.837-.165-1.861-.244-2.381-1.022-.716-1.069.352-2.124.167-3.239a3.843,3.843,0,0,0-2.731-2.66c-1.487-.5-3.078-.568-4.575-1.035a.485.485,0,0,1-.3-.6c.377-1.17.971-3.087-.359-3.916a4.02,4.02,0,0,0-1.9-.334,3.907,3.907,0,0,1-1.655-.4,4.258,4.258,0,0,1-1.607-1.992c-.384-.78-.736-1.788-1.614-2.129-.572-.222-.27-1.128.3-.905" transform="translate(-953.672 -222.214)" fill="#141414"/>
        <path id="Path_57469" data-name="Path 57469" d="M942.022,438.148a11.64,11.64,0,1,0,11.64-11.64,11.641,11.641,0,0,0-11.64,11.64" transform="translate(-922.018 -395.092)" fill="#e1e4f3"/>
        <path id="Path_57470" data-name="Path 57470" d="M900.593,374.437l.3.912,1.208,3.685,8.683-1.265L909.51,373.6l-.282-.917q-4.311.924-8.636,1.752" transform="translate(-885.57 -347.74)" fill="#00307f"/>
        <path id="Path_57471" data-name="Path 57471" d="M881.534,309.364l.831,2.525,1.275,3.891.186.563q4.325-.824,8.636-1.752l-2.425-7.939Z" transform="translate(-868.803 -289.646)" fill="#d8a06a"/>
        <path id="Path_57472" data-name="Path 57472" d="M888.442,337.79l1.275,3.891c.052,0,.11,0,.167,0a5.9,5.9,0,0,0,5.552-4.769.489.489,0,0,0-.172-.492.449.449,0,0,0-.167-.205,1.575,1.575,0,0,0-1.127-.043c-.41.067-.821.153-1.222.258-.864.22-1.709.506-2.549.788-.582.191-1.174.368-1.757.568" transform="translate(-874.88 -315.547)" fill="#be0328"/>
        <path id="Path_57473" data-name="Path 57473" d="M854.387,258.689a7,7,0,1,1-7-7,7,7,0,0,1,7,7" transform="translate(-832.599 -241.289)" fill="#d8a06a"/>
        <path id="Path_57474" data-name="Path 57474" d="M832.814,226.008a9.02,9.02,0,0,0,17.286,3.614,4.755,4.755,0,0,1-2.554.344,1.377,1.377,0,0,1-.559.816.472.472,0,0,1-.74-.158c-2.449-5.746-3.589-8.12-6.64-9.967-1.437-.869-3.166.854-4.483-.2-.086-.067-.162-.138-.239-.21a9.016,9.016,0,0,0-2.072,5.757" transform="translate(-825.94 -213.633)" fill="#d8a06a"/>
        <path id="Path_57475" data-name="Path 57475" d="M800.373,404.391c-1.99-1.628-12.663-5.789-14.472-5.789s-8.5-.181-8.5-.181-11.849,5.97-12.934,7.417-4.794,3.437-4.794,5.427,9.407,10.311,9.407,10.311l5.97,13.025,25.688-1.99s3.98-16.1,4.161-18.452-4.523-9.769-4.523-9.769" transform="translate(-761.59 -370.382)" fill="#00307f"/>
        <path id="Path_57476" data-name="Path 57476" d="M830.143,429.233c.225-.57,1.131-.269.905.3a14.415,14.415,0,0,0-.918,7.021c.073.607-.863.794-.937.183a15.407,15.407,0,0,1,.95-7.507" transform="translate(-822.655 -397.221)" fill="#ee4d14"/>
        <path id="Path_57477" data-name="Path 57477" d="M821.515,204.977a.31.31,0,0,0,.311.237c.645,0,2.412.016,4.237.083.283.01.681.015,1.146.013a.387.387,0,0,0,.405-.441,3.152,3.152,0,0,1-.056-1.055,6.332,6.332,0,0,1,.7-1.9,15.369,15.369,0,0,0,.184,2.181,6.24,6.24,0,0,0,.32,1.028.311.311,0,0,0,.284.183c.181.006.417.019.63.03a.3.3,0,0,0,.324-.371,12.638,12.638,0,0,1-.4-1.707,17.466,17.466,0,0,1,.212-3.492,26.9,26.9,0,0,0,.368,3.857,5.927,5.927,0,0,0,.727,1.5.329.329,0,0,0,.285.142l1.717-.035a.288.288,0,0,0,.255-.454,7.727,7.727,0,0,1-1.058-2.418,10.684,10.684,0,0,1-.494-4.116.294.294,0,0,0-.233-.308l-3.6-.651a1.708,1.708,0,0,0-.724-.241c-1.719.06-3.8,1.853-4.94,3.561a6.131,6.131,0,0,0-.606,4.372" transform="translate(-815.865 -193.215)" fill="#141414"/>
        <path id="Path_57478" data-name="Path 57478" d="M898.735,301.83a.965.965,0,0,1,.091-.267c.038-.049.075-.091.1-.118a1,1,0,0,1,.3-.146.989.989,0,0,1,.314.021.845.845,0,0,1,.134.065.805.805,0,0,1,.136.12.779.779,0,0,1,.083.128.86.86,0,0,1,.048.141.633.633,0,0,1-.013.328.878.878,0,0,1-.081.171.363.363,0,0,1-.137.13.4.4,0,0,1-.328.069.752.752,0,0,1-.229-.022,1.47,1.47,0,0,1-.142-.067.775.775,0,0,1-.129-.111.9.9,0,0,1-.081-.121.64.64,0,0,1-.066-.307.122.122,0,0,1,0-.013" transform="translate(-883.934 -284.936)" fill="#141414"/>
        <path id="Path_57479" data-name="Path 57479" d="M843.739,301.678a.71.71,0,0,1,.029-.144c.021-.048.046-.1.064-.131a.555.555,0,0,1,.225-.2.447.447,0,0,1,.135-.044l.124-.008c.054.009.094.017.135.025.016.005.131.062.131.062a.734.734,0,0,1,.134.117c.04.055.066.1.09.135a1.067,1.067,0,0,1,.072.189.421.421,0,0,1,.006.226.356.356,0,0,1-.069.176.349.349,0,0,1-.076.072.377.377,0,0,1-.166.149l-.116.038a.478.478,0,0,1-.243-.016c-.077-.036-.126-.059-.172-.085a.784.784,0,0,1-.147-.121.736.736,0,0,1-.1-.151c-.014-.037-.033-.095-.042-.125a1.446,1.446,0,0,1-.012-.145.114.114,0,0,1,0-.014" transform="translate(-835.551 -284.805)" fill="#141414"/>
        <path id="Path_57480" data-name="Path 57480" d="M814.635,283.543a2.949,2.949,0,1,1,2.949,2.949,2.953,2.953,0,0,1-2.949-2.949m.953,0a2,2,0,1,0,2-2,2,2,0,0,0-2,2" transform="translate(-809.947 -266.72)" fill="#00307f"/>
        <path id="Path_57481" data-name="Path 57481" d="M849.274,290.271a.482.482,0,0,0,.673.053,3.974,3.974,0,0,0,.816-4.139,3.2,3.2,0,0,0-.5-.855,4.16,4.16,0,0,1-.592.8,2.5,2.5,0,0,1,.258.563,2.977,2.977,0,0,1-.606,2.9.491.491,0,0,0-.052.673" transform="translate(-840.323 -270.887)" fill="#be0328"/>
        <path id="Path_57482" data-name="Path 57482" d="M874.264,327.644c.145.016.289.032.435.038a.887.887,0,0,0,.217,0l.108-.018c.039-.007.076-.018.114-.028.269-.185.3-.225.324-.272a.445.445,0,0,1,.208-.207.477.477,0,0,1,.66.582,1.341,1.341,0,0,1-.374.518,1.661,1.661,0,0,1-.565.3,2.852,2.852,0,0,1-1.188.044.477.477,0,0,1,.061-.953" transform="translate(-861.959 -307.644)" fill="#be0328"/>
        <path id="Path_57483" data-name="Path 57483" d="M872.825,277.8a3.22,3.22,0,1,1,3.22,3.221,3.223,3.223,0,0,1-3.22-3.221m.953,0a2.267,2.267,0,1,0,2.267-2.266,2.27,2.27,0,0,0-2.267,2.266" transform="translate(-861.141 -261.431)" fill="#00307f"/>
        <path id="Path_57484" data-name="Path 57484" d="M850.047,196.392c.076.072.153.143.239.21,1.318,1.05,3.016-1.577,4.453-.709,3.05,1.848,4.985,7.841,6.67,10.872a.485.485,0,0,0,.74.158,1.377,1.377,0,0,0,.559-.816,4.754,4.754,0,0,0,2.554-.344,8.759,8.759,0,0,0,.659-2.311,9.02,9.02,0,0,0-15.2-7.777c-.234.229-.458.468-.668.716" transform="translate(-841.101 -189.774)" fill="#141414"/>
        <path id="Path_57485" data-name="Path 57485" d="M950.7,289.737a2.909,2.909,0,1,1-2.909-2.909,2.909,2.909,0,0,1,2.909,2.909" transform="translate(-924.535 -272.205)" fill="#d8a06a"/>
        <path id="Path_57486" data-name="Path 57486" d="M946.374,303.222a7.918,7.918,0,0,1,2.6-1.679.478.478,0,1,1,.415.86,8.024,8.024,0,0,0-1.31.669c-.127.086-.18.123-.232.161q-.147.106-.289.22c-.195.155-.381.321-.56.495a.48.48,0,0,1-.673-.051.489.489,0,0,1,.051-.673" transform="translate(-925.705 -285.116)" fill="#be0328"/>
        <path id="Path_57487" data-name="Path 57487" d="M955.2,309.652a.486.486,0,0,1,.3-.2.48.48,0,0,1,.358.073.5.5,0,0,1,.2.3l.193.993a.493.493,0,0,1-.073.358.486.486,0,0,1-.3.2.48.48,0,0,1-.358-.072.5.5,0,0,1-.2-.3l-.193-.992a.493.493,0,0,1,.073-.358" transform="translate(-933.538 -292.102)" fill="#be0328"/>
        <path id="Path_57488" data-name="Path 57488" d="M1010.582,420.62c2.57-3.351,10.04-3.437,13.658,2.261s8.05,28.22,5.608,32.2-9.678,5.427-12.844,1.266-4.975-14.653-5.879-17.909-5.608-11.216-.543-17.819" transform="translate(-980.302 -387.878)" fill="#00307f"/>
        <path id="Path_57489" data-name="Path 57489" d="M1002.121,424.457a9.48,9.48,0,0,1,3.908-3.841c.544-.286.959.574.415.86a8.628,8.628,0,0,0-4.559,7.69,27.239,27.239,0,0,0,1.18,5.778q.747,3.028,1.443,6.068.775,3.384,1.488,6.782a.478.478,0,0,1-.937.183q-1.355-6.45-2.932-12.851a28.063,28.063,0,0,1-1.2-6.022,9.378,9.378,0,0,1,1.189-4.648" transform="translate(-973.845 -389.858)" fill="#ee4d14"/>
        <path id="Path_57490" data-name="Path 57490" d="M829.118,274.8a1.41,1.41,0,0,1,.956-.271,3.628,3.628,0,0,1,.965.14,3.445,3.445,0,0,1,1.453,1.1.482.482,0,0,1-.051.673.487.487,0,0,1-.673-.051c-.079-.087-.158-.174-.24-.259-.041-.042-.082-.085-.125-.126l-.083-.077a2.507,2.507,0,0,0-.261-.2c-.048-.032-.1-.061-.149-.088.1.052-.064-.025-.083-.033-.061-.023-.123-.039-.185-.057a4.3,4.3,0,0,0-.505-.06c-.055,0-.11-.006-.165-.007-.109.007-.265.051-.165.011a.531.531,0,0,1-.74-.019.484.484,0,0,1,.051-.673" transform="translate(-822.545 -261.382)" fill="#141414"/>
        <path id="Path_57491" data-name="Path 57491" d="M876.785,269.789a2.885,2.885,0,0,1,1.827-.719,6.778,6.778,0,0,1,2.306.161.482.482,0,0,1,.3.6.488.488,0,0,1-.6.3,5.436,5.436,0,0,0-1.82-.129,2.129,2.129,0,0,0-1.388.507.481.481,0,0,1-.673-.051.488.488,0,0,1,.051-.673" transform="translate(-864.481 -256.551)" fill="#141414"/>
        <path id="Path_57492" data-name="Path 57492" d="M599.277,21.1c-.12-.057-.324-.144-.593-.26a37.61,37.61,0,0,1-7.911-4.351h-9.309a8.239,8.239,0,0,1-8.237-8.354A8.375,8.375,0,0,1,581.669,0H594.82a8.244,8.244,0,0,1,1.92,16.261,8.112,8.112,0,0,0,1.075,2.064c.04.043.288.287.593.59,1.706,1.686,1.706,1.686,1.464,2.027l-.232.328ZM581.669.96a7.42,7.42,0,0,0-7.489,7.191,7.289,7.289,0,0,0,7.284,7.387h9.643l.13.1a30.843,30.843,0,0,0,6.1,3.562c-.142-.14-.232-.232-.24-.241a9.549,9.549,0,0,1-1.442-2.921l-.158-.521.537-.089A7.288,7.288,0,0,0,594.82.96Z" transform="translate(-597.562 -19.866)" fill="#e1e4f3"/>
      </g>
    </g>
  </g>
</svg>
