<svg id="paul-rudd-default" xmlns="http://www.w3.org/2000/svg" xmlns:xlink="http://www.w3.org/1999/xlink" width="31.25" height="31.25" viewBox="0 0 31.25 31.25">
  <defs>
    <clipPath id="clip-path"/>
    <clipPath id="clip-path-3">
      <circle id="Ellipse_284" data-name="Ellipse 284" cx="15.625" cy="15.625" r="15.625" fill="none"/>
    </clipPath>
    <clipPath id="clip-path-4">
      <rect id="Rectangle_28025" data-name="Rectangle 28025" width="6.349" height="7.809" fill="none"/>
    </clipPath>
  </defs>
  <g id="Group_80721" data-name="Group 80721" clip-path="url(#clip-path)">
    <g id="Group_80713" data-name="Group 80713">
      <g id="Group_80712" data-name="Group 80712" clip-path="url(#clip-path)">
        <path id="Path_57435" data-name="Path 57435" d="M31.25,15.625A15.625,15.625,0,1,1,15.625,0,15.625,15.625,0,0,1,31.25,15.625" fill="#e1e4f3"/>
      </g>
    </g>
    <g id="Group_80718" data-name="Group 80718" transform="translate(0 0)">
      <g id="Group_80717" data-name="Group 80717" clip-path="url(#clip-path-3)">
        <path id="Path_57436" data-name="Path 57436" d="M69.909,29.714a3.96,3.96,0,0,1-1.661-.5c.079.188.155.38.215.572a2.052,2.052,0,0,1-.011,1.077,21.548,21.548,0,0,1-.618,2.287,7.5,7.5,0,0,1-2.49,3.56,10.5,10.5,0,0,1-3.929,1.846c-.58.143-1.337.241-1.74-.313a1.02,1.02,0,0,1-.2-.723,1.476,1.476,0,0,1-.926-1.5,1.56,1.56,0,0,1,.625-1.066c-.821-.328-1.51-.919-1.288-1.929.143-.655.8-1.013,1.36-1.277a5.334,5.334,0,0,1,1.676-.475,2.016,2.016,0,0,1,.618-1.959,2.794,2.794,0,0,1,2.6-.467,1.9,1.9,0,0,1,1.978-1.307c1.386.087,2.373,1.364,3.752,1.42.478.019.531.772.045.753" transform="translate(-51.257 -24.402)" fill="#141414"/>
        <path id="Path_57437" data-name="Path 57437" d="M91.7,43.038a8.755,8.755,0,1,1-8.755-8.755A8.755,8.755,0,0,1,91.7,43.038" transform="translate(-65.742 -30.38)" fill="#141414"/>
        <path id="Path_57438" data-name="Path 57438" d="M92.779,69.715a7.975,7.975,0,1,1-13.8-8,38.833,38.833,0,0,0,7.119-2.55,3.868,3.868,0,0,0,1.356,2.991,4.458,4.458,0,0,1,.814.761,2.526,2.526,0,0,1,.369,1.062,10.71,10.71,0,0,0,.4,2.038,6.28,6.28,0,0,0,3.744,3.7" transform="translate(-68.985 -52.431)" fill="#794a2c"/>
        <path id="Path_57439" data-name="Path 57439" d="M136.086,178.733a9.323,9.323,0,0,1-1.673,3.281,12.079,12.079,0,0,1-5.187,3.684c-3.533,1.413-5.5.358-6.566-.9,1.19-.806,2.437-1.586,3.725-2.306a36.061,36.061,0,0,1,7.873-3.334c.61-.166,1.217-.309,1.827-.429" transform="translate(-108.695 -158.383)" fill="#794a2c"/>
        <path id="Path_57440" data-name="Path 57440" d="M150.945,153.262a9.762,9.762,0,0,1-.964,1.488l-5.187,3.684-1.771-2-1.07-1.206-1.725-1.94,5.492-4.588.881-.738,3.224,3.933Z" transform="translate(-124.262 -131.119)" fill="#794a2c"/>
        <g id="Group_80716" data-name="Group 80716" transform="translate(15.966 17.51)" style="mix-blend-mode: multiply;isolation: isolate">
          <g id="Group_80715" data-name="Group 80715">
            <g id="Group_80714" data-name="Group 80714" clip-path="url(#clip-path-4)">
              <path id="Path_57441" data-name="Path 57441" d="M146.554,154.8c-.222,2.019-.889,6.347-3.53,6.8l-1.07-1.206-1.725-1.94,5.492-4.588a.564.564,0,0,1,.644.053.954.954,0,0,1,.188.885" transform="translate(-140.229 -153.784)" fill="#ee4d14"/>
            </g>
          </g>
        </g>
        <path id="Path_57442" data-name="Path 57442" d="M80.225,91.415a6.835,6.835,0,1,0,7.65-5.908,6.835,6.835,0,0,0-7.65,5.908" transform="translate(-71.041 -75.721)" fill="#794a2c"/>
        <path id="Path_57443" data-name="Path 57443" d="M89.711,125.5c-.278-.357-.476-.613-.876-.4-.186.1.134,1.244.359,1.362.731.38.976-.366.517-.958" transform="translate(-78.671 -110.787)" fill="#141414"/>
        <path id="Path_57444" data-name="Path 57444" d="M139.012,117.161c-.278-.358-.476-.613-.876-.4-.186.1.134,1.244.359,1.362.731.38.976-.366.517-.958" transform="translate(-122.359 -103.397)" fill="#141414"/>
        <path id="Path_57445" data-name="Path 57445" d="M77.768,107.043c-.119.221-.309.51-.516.555a1.205,1.205,0,0,0-.534-.416,1.032,1.032,0,0,0-1.25.373c-.239.422-.914.089-.676-.333a1.744,1.744,0,0,1,1.691-.854,1.9,1.9,0,0,1,1.284.676" transform="translate(-66.233 -94.251)" fill="#141414"/>
        <path id="Path_57446" data-name="Path 57446" d="M102.733,151.67a.991.991,0,0,1,0,.424,2.052,2.052,0,0,1-.53,1.262,2.215,2.215,0,0,1-1.5.5c-.482-.014-1.319-.263-1.169-.912a.386.386,0,0,1,.065-.141.275.275,0,0,1,.112-.11q.87-.454,1.738-.913l.4-.207a1.944,1.944,0,0,1,.353-.171.427.427,0,0,1,.532.273" transform="translate(-88.182 -134.143)" fill="#fff"/>
        <path id="Path_57447" data-name="Path 57447" d="M121.43,96.022a3.058,3.058,0,0,0-3.837.713c-.308.373.253.877.562.5a2.306,2.306,0,0,1,2.941-.54c.422.239.756-.436.335-.675" transform="translate(-104.124 -84.745)" fill="#141414"/>
        <path id="Path_57448" data-name="Path 57448" d="M93.3,114.868a4.434,4.434,0,0,1-.446,1.042c-.088.143-.185.28-.272.427-.035.06-.056.178-.094.226a.392.392,0,0,1,.25.434.379.379,0,0,1-.442.3.755.755,0,0,1-.559-.729,1.7,1.7,0,0,1,.383-.894,3.056,3.056,0,0,0,.54-1.82,1.808,1.808,0,0,0-.347-.938c.206-.045.4-.334.516-.555a2.015,2.015,0,0,1,.291.427,2.851,2.851,0,0,1,.181,2.084" transform="translate(-81.289 -99.564)" fill="#ee4d14"/>
        <path id="Path_57449" data-name="Path 57449" d="M102.542,56.532a8.046,8.046,0,0,1-.61,2.2c-.105.233-.218.459-.343.678-1.7-.618-7.671.18-4.056-2.179.591-.386.025-2.865-.084-3.555a2.524,2.524,0,0,0-.369-1.062,4.451,4.451,0,0,0-.814-.761,3.868,3.868,0,0,1-1.356-2.991,38.829,38.829,0,0,1-7.119,2.55,8.123,8.123,0,0,1,.678-.957,7.973,7.973,0,0,1,14.073,6.072" transform="translate(-77.795 -42.13)" fill="#141414"/>
        <path id="Path_57450" data-name="Path 57450" d="M188.343,118.522a2.331,2.331,0,1,1-2.331-2.331,2.332,2.332,0,0,1,2.331,2.331" transform="translate(-162.766 -102.962)" fill="#794a2c"/>
        <path id="Path_57451" data-name="Path 57451" d="M193.8,127.376a.382.382,0,0,0-.477-.237,4.824,4.824,0,0,0-1.87,1.352.377.377,0,1,0,.572.49,4.443,4.443,0,0,1,.356-.376,1.763,1.763,0,0,1,.135-.118q.1-.085.21-.163a4.374,4.374,0,0,1,.424-.272c.041-.023.082-.046.123-.067.128-.061.208-.1.291-.132a.384.384,0,0,0,.237-.477" transform="translate(-169.572 -112.642)" fill="#ee4d14"/>
        <path id="Path_57452" data-name="Path 57452" d="M73.476,176.4a18.416,18.416,0,0,1-29.3,14.5,6.115,6.115,0,0,1,1.352-2.245,45.3,45.3,0,0,1,5.356-4.731c.712-.535,1.458-1.07,2.226-1.59,1.062,1.254,3.032,2.309,6.566.9,4.445-1.778,6.2-4.629,6.859-6.965.29-.056.58-.109.87-.154a16.541,16.541,0,0,1,5.76.222c.1.019.2.042.305.064" transform="translate(-39.151 -155.919)" fill="#4e55a1"/>
      </g>
    </g>
    <g id="Group_80720" data-name="Group 80720">
      <g id="Group_80719" data-name="Group 80719" clip-path="url(#clip-path)">
        <path id="Path_57453" data-name="Path 57453" d="M93.945,119.6l.927,5.8s.054,1.608-3.508,3.427a6.417,6.417,0,0,1-7.656-.972,5.553,5.553,0,0,1-1.674-3.33s.744-.175,2.419-.64c1.179-.993,3.543-1.377,5.646-1.758a5.35,5.35,0,0,0,3.846-2.523" transform="translate(-72.694 -105.987)" fill="#141414"/>
        <path id="Path_57454" data-name="Path 57454" d="M99.073,156.044a.991.991,0,0,1,0,.424,2.052,2.052,0,0,1-.53,1.262,2.215,2.215,0,0,1-1.5.5c-.481-.014-1.319-.263-1.169-.912a.386.386,0,0,1,.065-.141.275.275,0,0,1,.112-.11q.87-.454,1.739-.913l.4-.207a1.945,1.945,0,0,1,.353-.171.427.427,0,0,1,.532.273" transform="translate(-84.939 -138.018)" fill="#fff"/>
      </g>
    </g>
  </g>
</svg>
