<svg xmlns="http://www.w3.org/2000/svg" width="117.171" height="175.75" viewBox="0 0 117.171 175.75">
  <g id="element-homepage-mobile" transform="translate(0.001)">
    <g id="Group_83944" data-name="Group 83944" transform="translate(58.584 58.583)">
      <path id="Path_59493" data-name="Path 59493" d="M0,0V29.291L29.292,0Z" transform="translate(0 0)" fill="#fb5e00"/>
      <path id="Path_59494" data-name="Path 59494" d="M0,58.584H29.293L58.585,29.292V0h0Z" transform="translate(-0.001 -0.001)" fill="#fb5e00"/>
      <path id="Path_59495" data-name="Path 59495" d="M90.88,120.172h29.293V90.88Z" transform="translate(-61.588 -61.589)" fill="#1800e1"/>
      <path id="Path_59496" data-name="Path 59496" d="M29.292,0,0,29.291V58.583L58.584,0Z" transform="translate(0 0)" fill="#1800e1"/>
    </g>
    <g id="Group_83945" data-name="Group 83945" transform="translate(58.585 117.167)">
      <path id="Path_59495-2" data-name="Path 59495" d="M90.88,90.88h29.293v29.291Z" transform="translate(-61.588 -90.88)" fill="#fb5e00"/>
      <path id="Path_59496-2" data-name="Path 59496" d="M29.292,58.583,0,29.291V0L58.584,58.583Z" transform="translate(0 0.001)" fill="#fb5e00"/>
    </g>
    <g id="Group_84191" data-name="Group 84191" transform="translate(-0.001 117.167)">
      <path id="Path_59495-3" data-name="Path 59495" d="M90.88,90.88h29.293v29.291Z" transform="translate(-61.588 -90.88)" fill="#fb5e00"/>
      <path id="Path_59496-3" data-name="Path 59496" d="M29.292,58.583,0,29.291V0L58.584,58.583Z" transform="translate(0 0.001)" fill="#fb5e00"/>
    </g>
    <g id="Group_84192" data-name="Group 84192" transform="translate(29.291 58.583)">
      <path id="Path_59495-4" data-name="Path 59495" d="M105.527,90.88H90.88v14.646Z" transform="translate(-90.88 -90.88)" fill="#fb5e00"/>
      <path id="Path_59496-4" data-name="Path 59496" d="M14.646,29.291,29.292,14.646V0L0,29.291Z" transform="translate(0 0)" fill="#fb5e00"/>
    </g>
    <g id="Group_84193" data-name="Group 84193" transform="translate(29.291 87.875)">
      <path id="Path_59495-5" data-name="Path 59495" d="M105.527,90.88H90.88v14.646Z" transform="translate(-90.88 -90.88)" fill="#1800e1"/>
      <path id="Path_59496-5" data-name="Path 59496" d="M14.646,29.291,29.292,14.646V0L0,29.291Z" transform="translate(0 0)" fill="#1800e1"/>
    </g>
    <g id="Group_83946" data-name="Group 83946" transform="translate(58.584 0)">
      <path id="Path_59495-6" data-name="Path 59495" d="M90.88,120.172h29.293V90.88Z" transform="translate(-61.588 -61.589)" fill="#1800e1"/>
      <path id="Path_59496-6" data-name="Path 59496" d="M29.292,0,0,29.291V58.583L58.584,0Z" transform="translate(0 0)" fill="#1800e1"/>
    </g>
  </g>
</svg>
