<svg xmlns="http://www.w3.org/2000/svg" width="48.831" height="292.996" viewBox="0 0 48.831 292.996">
  <g id="Group_84573" data-name="Group 84573" transform="translate(-1316.556 -910.946)" opacity="0.1">
    <g id="Group_83974" data-name="Group 83974" transform="translate(1316.556 1203.942) rotate(-90)">
      <g id="Group_83930" data-name="Group 83930" transform="translate(48.833)">
        <path id="Path_59493" data-name="Path 59493" d="M24.416,24.416V0L0,24.416Z" transform="translate(24.416 24.416)" fill="#1800e1"/>
        <path id="Path_59494" data-name="Path 59494" d="M48.832,0H24.416L0,24.416V48.831H0Z" fill="#1800e1"/>
      </g>
      <g id="Group_83968" data-name="Group 83968" transform="translate(0)">
        <path id="Path_59493-2" data-name="Path 59493" d="M24.416,24.416V0L0,24.416Z" transform="translate(24.416 24.416)" fill="#1800e1"/>
        <path id="Path_59494-2" data-name="Path 59494" d="M48.832,0H24.416L0,24.416V48.831H0Z" fill="#1800e1"/>
      </g>
    </g>
    <g id="Group_84236" data-name="Group 84236" transform="translate(1316.556 1106.277) rotate(-90)">
      <g id="Group_83930-2" data-name="Group 83930" transform="translate(48.833)">
        <path id="Path_59493-3" data-name="Path 59493" d="M24.416,24.416V0L0,24.416Z" transform="translate(24.416 24.416)" fill="#1800e1"/>
        <path id="Path_59494-3" data-name="Path 59494" d="M48.832,0H24.416L0,24.416V48.831H0Z" fill="#1800e1"/>
      </g>
      <g id="Group_83968-2" data-name="Group 83968" transform="translate(0)">
        <path id="Path_59493-4" data-name="Path 59493" d="M24.416,24.416V0L0,24.416Z" transform="translate(24.416 24.416)" fill="#1800e1"/>
        <path id="Path_59494-4" data-name="Path 59494" d="M48.832,0H24.416L0,24.416V48.831H0Z" fill="#1800e1"/>
      </g>
    </g>
    <g id="Group_84237" data-name="Group 84237" transform="translate(1316.556 1008.612) rotate(-90)">
      <g id="Group_83930-3" data-name="Group 83930" transform="translate(48.833)">
        <path id="Path_59493-5" data-name="Path 59493" d="M24.416,24.416V0L0,24.416Z" transform="translate(24.416 24.416)" fill="#1800e1"/>
        <path id="Path_59494-5" data-name="Path 59494" d="M48.832,0H24.416L0,24.416V48.831H0Z" fill="#1800e1"/>
      </g>
      <g id="Group_83968-3" data-name="Group 83968" transform="translate(0)">
        <path id="Path_59493-6" data-name="Path 59493" d="M24.416,24.416V0L0,24.416Z" transform="translate(24.416 24.416)" fill="#1800e1"/>
        <path id="Path_59494-6" data-name="Path 59494" d="M48.832,0H24.416L0,24.416V48.831H0Z" fill="#1800e1"/>
      </g>
    </g>
  </g>
</svg>
