<svg xmlns="http://www.w3.org/2000/svg" width="49.444" height="296.669" viewBox="0 0 49.444 296.669">
  <g id="Group_84240" data-name="Group 84240" transform="translate(-1316.556 -910.946)" opacity="0.1">
    <g id="Group_83974" data-name="Group 83974" transform="translate(1316.556 1207.615) rotate(-90)">
      <g id="Group_83930" data-name="Group 83930" transform="translate(49.445 0)">
        <path id="Path_59493" data-name="Path 59493" d="M24.722,24.722V0L0,24.722Z" transform="translate(24.722 24.722)" fill="#1800e1"/>
        <path id="Path_59494" data-name="Path 59494" d="M49.444,0H24.722L0,24.722V49.443H0Z" fill="#1800e1"/>
      </g>
      <g id="Group_83968" data-name="Group 83968" transform="translate(0 0)">
        <path id="Path_59493-2" data-name="Path 59493" d="M24.722,24.722V0L0,24.722Z" transform="translate(24.722 24.722)" fill="#1800e1"/>
        <path id="Path_59494-2" data-name="Path 59494" d="M49.444,0H24.722L0,24.722V49.443H0Z" fill="#1800e1"/>
      </g>
    </g>
    <g id="Group_84236" data-name="Group 84236" transform="translate(1316.556 1108.726) rotate(-90)">
      <g id="Group_83930-2" data-name="Group 83930" transform="translate(49.445 0)">
        <path id="Path_59493-3" data-name="Path 59493" d="M24.722,24.722V0L0,24.722Z" transform="translate(24.722 24.722)" fill="#1800e1"/>
        <path id="Path_59494-3" data-name="Path 59494" d="M49.444,0H24.722L0,24.722V49.443H0Z" fill="#1800e1"/>
      </g>
      <g id="Group_83968-2" data-name="Group 83968" transform="translate(0 0)">
        <path id="Path_59493-4" data-name="Path 59493" d="M24.722,24.722V0L0,24.722Z" transform="translate(24.722 24.722)" fill="#1800e1"/>
        <path id="Path_59494-4" data-name="Path 59494" d="M49.444,0H24.722L0,24.722V49.443H0Z" fill="#1800e1"/>
      </g>
    </g>
    <g id="Group_84237" data-name="Group 84237" transform="translate(1316.556 1009.836) rotate(-90)">
      <g id="Group_83930-3" data-name="Group 83930" transform="translate(49.445 0)">
        <path id="Path_59493-5" data-name="Path 59493" d="M24.722,24.722V0L0,24.722Z" transform="translate(24.722 24.722)" fill="#1800e1"/>
        <path id="Path_59494-5" data-name="Path 59494" d="M49.444,0H24.722L0,24.722V49.443H0Z" fill="#1800e1"/>
      </g>
      <g id="Group_83968-3" data-name="Group 83968" transform="translate(0 0)">
        <path id="Path_59493-6" data-name="Path 59493" d="M24.722,24.722V0L0,24.722Z" transform="translate(24.722 24.722)" fill="#1800e1"/>
        <path id="Path_59494-6" data-name="Path 59494" d="M49.444,0H24.722L0,24.722V49.443H0Z" fill="#1800e1"/>
      </g>
    </g>
  </g>
</svg>
