<svg xmlns="http://www.w3.org/2000/svg" xmlns:xlink="http://www.w3.org/1999/xlink" width="523.316" height="87.433" viewBox="0 0 523.316 87.433">
  <defs>
    <clipPath id="clip-path">
      <rect id="Rectangle_28379" data-name="Rectangle 28379" width="324.316" height="47.281" fill="#039"/>
    </clipPath>
    <clipPath id="clip-path-2">
      <rect id="Rectangle_28381" data-name="Rectangle 28381" width="141.333" height="64.957" fill="none"/>
    </clipPath>
  </defs>
  <g id="Group_81388" data-name="Group 81388" transform="translate(-2596 -2395.067)">
    <path id="Line_702" data-name="Line 702" d="M.5,80h-1V0h1Z" transform="translate(2765.5 2402.5)" fill="#707070"/>
    <g id="Group_81385" data-name="Group 81385" transform="translate(2795 2423.5)">
      <g id="Group_81384" data-name="Group 81384" clip-path="url(#clip-path)">
        <path id="Path_58469" data-name="Path 58469" d="M15.946,37.562C3.139,37.562,0,27.69,0,18.933,0,10.226,3.139,0,15.946,0,28.8,0,31.993,10.277,31.993,18.933c0,8.707-3.189,18.629-16.047,18.629M16,33.613c9.213,0,11.39-7.593,11.39-14.681C27.387,11.9,25.21,3.9,16,3.9S4.607,11.846,4.607,18.933c0,7.138,2.177,14.681,11.39,14.681" fill="#039"/>
        <path id="Path_58470" data-name="Path 58470" d="M91.966,17.505H89.739c-.759,0-.962-.2-.962-.961v-1.62c0-.658.2-.963.962-.963h2.228V9.71c0-4.708,2.43-7.341,6.682-7.341,3.189,0,4.911,1.569,4.911,3.29,0,.911-.455,1.164-.709,1.164-.506,0-1.468-.759-3.037-.759-2.43,0-3.341,1.722-3.341,4.2v3.695h3.594c.709,0,.962.2.962.963v1.62c0,.658-.2.961-.962.961H96.472V37.147c0,.911-.354,1.215-1.215,1.215H93.232c-.911,0-1.265-.3-1.265-1.215Z" transform="translate(-52.737 -1.407)" fill="#039"/>
        <path id="Path_58471" data-name="Path 58471" d="M128.5,17.505h-2.228c-.759,0-.962-.2-.962-.961v-1.62c0-.658.2-.963.962-.963H128.5V9.71c0-4.708,2.43-7.341,6.682-7.341,3.189,0,4.911,1.569,4.911,3.29,0,.911-.455,1.164-.709,1.164-.506,0-1.468-.759-3.037-.759-2.43,0-3.341,1.722-3.341,4.2v3.695H136.6c.709,0,.962.2.962.963v1.62c0,.658-.2.961-.962.961h-3.594V37.147c0,.911-.354,1.215-1.215,1.215h-2.025c-.911,0-1.265-.3-1.265-1.215Z" transform="translate(-74.439 -1.407)" fill="#039"/>
        <path id="Path_58472" data-name="Path 58472" d="M165.834,6.2c0-.86.355-1.215,1.215-1.215h2.582c.86,0,1.215.354,1.215,1.215V9.038c0,.911-.354,1.215-1.215,1.215h-2.582c-.86,0-1.215-.3-1.215-1.215Zm.253,10.53c0-.911.3-1.215,1.215-1.215h2.075c.911,0,1.164.3,1.164,1.215V38.7c0,.911-.3,1.215-1.164,1.215H167.3c-.861,0-1.215-.3-1.215-1.215Z" transform="translate(-98.511 -2.963)" fill="#039"/>
        <path id="Path_58473" data-name="Path 58473" d="M203.09,51.446c2.936,0,5.315-1.519,5.923-1.519.405,0,.607.354.607,1.164a3.108,3.108,0,0,1-1.215,2.48,11.332,11.332,0,0,1-6.075,1.57c-6.783,0-10.934-5.062-10.934-12.959,0-7.847,4.05-12.5,10.884-12.5a9.94,9.94,0,0,1,5.67,1.519,2.67,2.67,0,0,1,1.265,2.278c0,.911-.405,1.316-.81,1.316-.709,0-2.379-1.569-5.417-1.569-4.353,0-6.935,3.24-6.935,8.91,0,6.176,3.088,9.314,7.037,9.314" transform="translate(-113.696 -17.63)" fill="#039"/>
        <path id="Path_58474" data-name="Path 58474" d="M248.128,6.2c0-.86.355-1.215,1.215-1.215h2.582c.861,0,1.215.354,1.215,1.215V9.038c0,.911-.354,1.215-1.215,1.215h-2.582c-.86,0-1.215-.3-1.215-1.215Zm.253,10.53c0-.911.3-1.215,1.215-1.215h2.075c.911,0,1.164.3,1.164,1.215V38.7c0,.911-.3,1.215-1.164,1.215H249.6c-.861,0-1.215-.3-1.215-1.215Z" transform="translate(-147.396 -2.963)" fill="#039"/>
        <path id="Path_58475" data-name="Path 58475" d="M291.928,49.016c0,2.379.607,2.48,2.227,2.48.506,0,.81.152.81.911,0,1.62-1.164,2.582-3.24,2.582-1.873,0-3.7-.861-4.1-3.037a9.351,9.351,0,0,1-7.29,3.037c-4,0-7.644-1.772-7.644-6.631,0-5.315,4.3-7.188,11.542-7.188h3.29V38.233c0-3.543-2.379-4.86-5.771-4.86-3.341,0-6.176,1.317-6.985,1.317-.557,0-.659-.557-.659-1.215a2.193,2.193,0,0,1,1.114-1.974c1.114-.861,3.7-1.822,7.542-1.822,5.467,0,9.163,2.329,9.163,8.5ZM281.6,51.85c3.645,0,5.923-2.733,5.923-7.846h-3.189c-4.657,0-6.935,1.114-6.935,4.05,0,2.987,2.126,3.8,4.2,3.8" transform="translate(-161.988 -17.63)" fill="#039"/>
        <path id="Path_58476" data-name="Path 58476" d="M338.277,3.709c0-.911.3-1.215,1.215-1.215h2.075c.962,0,1.215.3,1.215,1.215V37.221c0,.911-.354,1.215-1.215,1.215h-2.075c-.861,0-1.215-.3-1.215-1.215Z" transform="translate(-200.948 -1.482)" fill="#039"/>
        <path id="Path_58477" data-name="Path 58477" d="M399.236,5.145V36.48c0,.911-.3,1.215-1.164,1.215h-2.329c-.861,0-1.215-.3-1.215-1.215V5.145h-8.555c-.658,0-1.063-.253-1.063-.911V2.209c0-.658.3-.962,1.063-.962h21.869c.608,0,1.012.253,1.012.912V4.183c0,.658-.253.962-1.012.962Z" transform="translate(-228.649 -0.741)" fill="#039"/>
        <path id="Path_58478" data-name="Path 58478" d="M458.07,1.247h2.278c1.012,0,1.215.405,1.823,1.367l10.681,18.679L483.533,2.614c.658-1.012.861-1.367,1.974-1.367h2.176c.861,0,1.164.3,1.164,1.215V36.48c0,.911-.3,1.215-1.164,1.215h-1.873c-.911,0-1.265-.3-1.265-1.215V9.144l-9.416,16a1.268,1.268,0,0,1-1.114.709h-2.278a1.442,1.442,0,0,1-1.265-.709L461.107,8.992V36.48c0,.911-.3,1.215-1.164,1.215H458.07c-.911,0-1.215-.3-1.215-1.215V2.462c0-.911.3-1.215,1.215-1.215" transform="translate(-271.387 -0.741)" fill="#039"/>
        <path id="Path_58479" data-name="Path 58479" d="M585.749,1.247h9.567c6.986,0,10.225,3.746,10.225,8.859,0,2.683-.911,6.733-5.315,7.846,5.416.709,7.441,4.607,7.441,8.909,0,5.67-2.886,10.833-11.745,10.833H585.749c-.911,0-1.215-.3-1.215-1.215V2.462c0-.911.3-1.215,1.215-1.215m3.493,3.544V16.13h5.619c4.252,0,6.277-2.379,6.277-5.821s-2.025-5.518-6.277-5.518Zm0,14.883V34.05h5.619c6.732,0,8.15-3.645,8.15-7.239,0-3.442-1.367-7.138-8.15-7.138Z" transform="translate(-347.233 -0.741)" fill="#039"/>
        <path id="Path_58480" data-name="Path 58480" d="M655.606,3.709c0-.911.3-1.215,1.215-1.215H658.9c.962,0,1.215.3,1.215,1.215V37.221c0,.911-.354,1.215-1.215,1.215h-2.075c-.861,0-1.215-.3-1.215-1.215Z" transform="translate(-389.452 -1.482)" fill="#039"/>
        <path id="Path_58481" data-name="Path 58481" d="M691.98,55.269c-8.96,0-11.188-6.885-11.188-12.858s2.228-12.858,11.188-12.858c9.061,0,11.289,6.885,11.289,12.858s-2.228,12.858-11.289,12.858m0-3.7c5.417,0,6.631-4.86,6.631-9.162,0-4.354-1.215-9.163-6.631-9.163-5.315,0-6.581,4.809-6.581,9.163,0,4.3,1.265,9.162,6.581,9.162" transform="translate(-404.413 -17.555)" fill="#039"/>
        <path id="Path_58482" data-name="Path 58482" d="M747,42.131c0-5.923,2.228-12.453,9.821-12.453a8.587,8.587,0,0,1,6.834,3.037c.608-2.43,1.063-2.531,3.037-2.531,1.063,0,1.366.3,1.366,1.114V53.977c0,8.606-5.416,10.934-11.238,10.934-4.911,0-8.859-1.316-8.859-3.9,0-.76.2-1.316.608-1.316a23.722,23.722,0,0,0,7.9,1.518c4.1,0,7.087-1.924,7.087-7.239V51.7a8.134,8.134,0,0,1-6.935,3.24C749.229,54.938,747,48,747,42.131m4.607.051c0,3.8,1.215,9.112,6.024,9.112,3.088,0,5.771-2.329,5.923-8.606V41.22c-.1-4-1.012-7.9-5.923-7.9-4.759,0-6.024,4.556-6.024,8.859" transform="translate(-443.744 -17.63)" fill="#039"/>
      </g>
    </g>
    <g id="Group_81387" data-name="Group 81387" transform="translate(2596 2395.067)">
      <g id="Group_81386" data-name="Group 81386" clip-path="url(#clip-path-2)">
        <path id="Path_58483" data-name="Path 58483" d="M9.582,165.754c0-.108,1.364-4.864,2.73-9.519.685-2.336,1.474-5.15,1.753-6.255s1.2-4.365,2.041-7.246,1.534-5.383,1.534-5.56c0-.279-1.183-.322-8.82-.322-4.851,0-8.82-.048-8.82-.106s.534-1.21,1.186-2.559c1.934-4,3.347-5.033,7.395-5.4,2.753-.248,43.618-.279,43.77-.032.2.321-1.617,2.849-3.214,4.476-2.929,2.983-4.319,3.424-11.354,3.6l-5.009.126-.791,2.722c-.435,1.5-1.429,4.927-2.21,7.622s-2.2,7.595-3.156,10.889-1.826,6.332-1.936,6.751l-.2.762-7.451.057C12.935,165.8,9.582,165.792,9.582,165.754Z" transform="translate(0 -100.867)" fill="#039"/>
        <path id="Path_58484" data-name="Path 58484" d="M198.867,165.079c.06-.271.7-2.551,1.419-5.067s2.021-7.072,2.891-10.126,1.91-6.68,2.312-8.057,1.079-3.723,1.506-5.211a29.914,29.914,0,0,1,1.211-3.561,8.092,8.092,0,0,1,3.387-3.325c2.3-1.087,3.446-1.209,12.634-1.341l8.539-.122.209.519a27.884,27.884,0,0,1,.463,3.786c.318,4.084,1.232,14.618,1.564,18.021.256,2.616.425,2.956,1.087,2.178.292-.343,4.322-7.019,10.354-17.15,2.309-3.878,3.384-5.151,5.069-6,2.072-1.048,2.783-1.115,13.118-1.232,8.646-.1,9.757-.072,9.872.226.136.356.089.536-2.146,8.207-.785,2.7-1.884,6.468-2.44,8.384-2.021,6.956-2.984,10.248-3.186,10.889-.113.359-.5,1.829-.868,3.267s-.906,3.422-1.2,4.41l-.541,1.8H249.285l.133-.708c.073-.389.514-1.982.979-3.539s1.7-5.82,2.736-9.473,2.276-7.986,2.747-9.629.857-3.088.857-3.212c0-.506-.8-.177-1.181.483-.57,1-7.8,13-9.445,15.68-.754,1.228-1.617,2.722-1.917,3.321-1.753,3.5-3.857,5.636-6.345,6.453-1.374.451-1.962.49-8.629.575a70.983,70.983,0,0,1-7.349-.1,57.216,57.216,0,0,1-.732-6.064c-.3-3.229-.836-9.047-1.2-12.929s-.66-7.19-.66-7.35-.231-.291-.518-.291c-.447,0-.562.17-.843,1.252-.179.689-1.231,4.339-2.338,8.112s-2.242,7.693-2.523,8.711c-.485,1.754-1.527,5.48-2.131,7.622l-.277.98-5.946.058-5.946.058Z" transform="translate(-155.909 -100.615)" fill="#039"/>
        <path id="Path_58485" data-name="Path 58485" d="M311.209,23.311a22.27,22.27,0,0,1,1.7-1.846c3.022-3.087,3.651-5.779,1.85-7.918-1.955-2.323-8.1-3.592-14.786-3.052-7.43.6-15.182,2.443-24.372,5.8-1.275.465,4.334-4.438,7.562-6.611a67.181,67.181,0,0,1,13.256-6.857A73.181,73.181,0,0,1,305.656.39c6.2-.941,13.763-.132,18.123,1.939,5.245,2.491,7.87,6.913,6.4,10.783-1.56,4.1-6.786,7.608-14.123,9.468-2.152.545-4.847.952-4.847.731" transform="translate(-216.042 -0.001)" fill="#f60"/>
        <path id="Path_58486" data-name="Path 58486" d="M521.524,54.5a53.723,53.723,0,0,1,12.086-7.179,18.743,18.743,0,0,1,8.237-1.5,7.44,7.44,0,0,1,3.884.764,6.8,6.8,0,0,1,4.283,6.438c.1,2.036.071,2.08-.982,1.67a45.473,45.473,0,0,0-8.707-1.528,56.732,56.732,0,0,0-12.6.688c-2.888.43-5.785.963-6.6,1.215-.2.063-.027-.192.392-.567" transform="translate(-408.717 -35.928)" fill="#da0011"/>
      </g>
    </g>
  </g>
</svg>
