<svg xmlns="http://www.w3.org/2000/svg" xmlns:xlink="http://www.w3.org/1999/xlink" width="58.781" height="28.911" viewBox="0 0 58.781 28.911">
  <defs>
    <clipPath id="clip-path">
      <rect id="Rectangle_29051" data-name="Rectangle 29051" width="58.781" height="28.911" fill="#fff"/>
    </clipPath>
  </defs>
  <g id="Group_84199" data-name="Group 84199" transform="translate(0 0)">
    <g id="Group_82979" data-name="Group 82979" transform="translate(0 0)" clip-path="url(#clip-path)">
      <path id="Path_58700" data-name="Path 58700" d="M0,34.292H6.757a.391.391,0,0,1,.39.39v10.55h7.524V34.682a.389.389,0,0,1,.39-.39h6.754V28.668H0Z" transform="translate(0 -16.322)" fill="#fff"/>
      <path id="Path_58701" data-name="Path 58701" d="M75.692,28.67H73.586v0a.776.776,0,0,0-.692.4l-3.971,7.161h0a.388.388,0,0,1-.657.036.336.336,0,0,1-.022-.036.362.362,0,0,1-.022-.043l-3.947-7.119a.778.778,0,0,0-.694-.4v-.005h-9.3V45.234h7.191V37.093h0a.393.393,0,0,1,.047-.16.389.389,0,0,1,.659-.039h0l4.623,8.34h3.555l4.625-8.344,0,0h0a.389.389,0,0,1,.705.2h0v8.141h7.191V28.67Z" transform="translate(-30.904 -16.322)" fill="#fff"/>
      <path id="Path_58702" data-name="Path 58702" d="M107.209,6.433a15.434,15.434,0,0,0-4.461,5.073A21.944,21.944,0,0,1,117.28,7.873c-.893-1.927-5.268-4.686-10.071-1.441" transform="translate(-58.499 -2.81)" fill="#fff"/>
      <path id="Path_58703" data-name="Path 58703" d="M64.958,6.436c1.133,1.863-1.978,4.736-1.978,4.736,5.212-.612,8.008-3.905,7.521-6.653C70.038,1.908,66.965,0,61.368,0A26.463,26.463,0,0,0,46.05,4.7c9.841-1.615,17.29-.928,18.908,1.737" transform="translate(-26.218 0)" fill="#fff"/>
    </g>
  </g>
</svg>
