<svg xmlns="http://www.w3.org/2000/svg" xmlns:xlink="http://www.w3.org/1999/xlink" width="67" height="31" viewBox="0 0 67 31"><defs><clipPath id="b"><rect width="67" height="31"/></clipPath></defs><g id="a" clip-path="url(#b)"><g transform="translate(-442 -1595.067)"><path d="M4.542,146.207c0-.051.647-2.306,1.294-4.512.325-1.107.7-2.442.831-2.965s.568-2.069.967-3.435.727-2.552.727-2.636c0-.132-.561-.153-4.181-.153-2.3,0-4.181-.023-4.181-.05s.253-.573.562-1.213c.917-1.9,1.587-2.386,3.506-2.559,1.305-.118,20.678-.132,20.75-.015a6.4,6.4,0,0,1-1.524,2.122c-1.388,1.414-2.047,1.623-5.382,1.707l-2.374.06-.375,1.29c-.206.71-.678,2.336-1.048,3.613s-1.043,3.6-1.5,5.162-.866,3-.918,3.2l-.095.361-3.532.027C6.132,146.227,4.542,146.225,4.542,146.207Z" transform="translate(442 1479.62)" fill="#fff"/><path d="M198.81,145.719c.028-.129.331-1.21.673-2.4s.958-3.353,1.37-4.8.905-3.167,1.1-3.82.512-1.765.714-2.47a14.184,14.184,0,0,1,.574-1.688,3.836,3.836,0,0,1,1.606-1.576c1.089-.515,1.634-.573,5.989-.636l4.048-.058.1.246a13.218,13.218,0,0,1,.22,1.795c.151,1.936.584,6.93.741,8.543.121,1.24.2,1.4.515,1.032.138-.163,2.049-3.327,4.908-8.13,1.094-1.838,1.6-2.442,2.4-2.846.982-.5,1.319-.528,6.219-.584,4.1-.046,4.625-.034,4.68.107.065.169.042.254-1.018,3.89-.372,1.278-.893,3.066-1.157,3.975-.958,3.3-1.415,4.858-1.51,5.162-.053.17-.239.867-.411,1.549s-.43,1.622-.571,2.091l-.257.852h-7.031l.063-.336c.035-.184.244-.939.464-1.678s.8-2.759,1.3-4.491,1.079-3.786,1.3-4.565.406-1.464.406-1.523c0-.24-.381-.084-.56.229-.27.473-3.7,6.161-4.478,7.433-.357.582-.766,1.29-.909,1.574a5.533,5.533,0,0,1-3.008,3.059c-.651.214-.93.232-4.091.272a33.65,33.65,0,0,1-3.484-.048,27.124,27.124,0,0,1-.347-2.874c-.141-1.531-.4-4.289-.568-6.129s-.313-3.408-.313-3.484-.11-.138-.245-.138c-.212,0-.266.081-.4.594-.085.327-.584,2.057-1.108,3.846s-1.063,3.647-1.2,4.129c-.23.831-.724,2.6-1.01,3.613l-.131.464-2.819.027-2.819.027Z" transform="translate(263.555 1479.908)" fill="#fff"/><path d="M292.385,11.051a10.556,10.556,0,0,1,.806-.875c1.432-1.464,1.73-2.74.877-3.754-.927-1.1-3.84-1.7-7.009-1.447a43.641,43.641,0,0,0-11.553,2.748c-.6.221,2.055-2.1,3.585-3.134a31.845,31.845,0,0,1,6.284-3.251A34.691,34.691,0,0,1,289.752.186a16.678,16.678,0,0,1,8.591.919c2.487,1.181,3.731,3.277,3.034,5.112-.739,1.946-3.217,3.607-6.7,4.488a7.712,7.712,0,0,1-2.3.346" transform="translate(194.729 1595.066)" fill="#fff"/><path d="M521.273,49.925a25.468,25.468,0,0,1,5.73-3.4,8.885,8.885,0,0,1,3.9-.712,3.527,3.527,0,0,1,1.841.362,3.223,3.223,0,0,1,2.03,3.052c.046.965.034.986-.466.792a21.555,21.555,0,0,0-4.127-.724,26.893,26.893,0,0,0-5.971.326c-1.369.2-2.742.457-3.128.576-.1.03-.013-.091.186-.269" transform="translate(-25.797 1553.945)" fill="#fff"/></g></g></svg>