<svg xmlns="http://www.w3.org/2000/svg" xmlns:xlink="http://www.w3.org/1999/xlink" width="312.318" height="39.128" viewBox="0 0 312.318 39.128">
  <defs>
    <clipPath id="clip-path">
      <rect id="Rectangle_29051" data-name="Rectangle 29051" width="58.781" height="28.911" fill="none"/>
    </clipPath>
  </defs>
  <g id="blog-logo" transform="translate(-113 -16)">
    <path id="Path_59560" data-name="Path 59560" d="M9.387,21.462c5.775,0,9.135-3.066,9.135-7.77,0-4.767-3.276-7.791-9.135-7.791C3.591,5.9.231,8.988.231,13.692S3.591,21.462,9.387,21.462Zm0-4.284c-2.667,0-3.969-1.323-3.969-3.486s1.3-3.507,3.969-3.507,3.906,1.365,3.906,3.507C13.293,15.813,12.054,17.178,9.387,17.178ZM24.864,21V16.275h7.371v-3.8H24.864V10.143h8.379V6.363H19.677V21Zm14.7,0V16.275h7.371v-3.8H39.564V10.143h8.379V6.363H34.377V21Zm14.763,0V6.363h-5.25V21Zm10.542.462c4.452,0,7.434-1.743,8.631-4.767l-4.914-1.449c-.609,1.533-1.638,2.289-3.717,2.289-2.772,0-4.263-1.554-4.263-3.885s1.449-3.822,4.158-3.822a3.746,3.746,0,0,1,3.822,2.163l4.893-1.512C72.093,7.644,69.174,5.9,64.764,5.9c-5.817,0-9.366,3.171-9.366,7.791C55.4,18.333,59.031,21.462,64.869,21.462ZM79.737,21V6.363h-5.25V21ZM98.6,21,92.232,6.363h-5.46L80.388,21h5.649l.693-1.932h5.5L92.9,21ZM89.5,11.34l1.386,3.927H88.1ZM111.279,21V16.716h-6.846V6.363H99.246V21Zm17.241,0V10.647h4.83V6.363H118.335v4.284h4.893V21Zm15.855-7.266-3.213-7.371h-6.867V21h5.187V13.5l2.688,6.111h4.536l2.646-6.111V21h5.208V6.363h-6.909ZM173.523,21c3.087,0,5.124-1.806,5.124-4.536a3.668,3.668,0,0,0-2-3.507,3.779,3.779,0,0,0,1.155-2.856c0-2.289-2.058-3.738-5.334-3.738h-9.429V21ZM168.294,9.933h3.213a.881.881,0,0,1,1.008.9.964.964,0,0,1-1.071,1.071h-3.15Zm0,5.25h3.843c.84,0,1.26.315,1.26.966a1.06,1.06,0,0,1-1.176,1.2h-3.927ZM191.814,21V16.716h-6.846V6.363h-5.187V21Zm9.534.462c5.775,0,9.135-3.066,9.135-7.77,0-4.767-3.276-7.791-9.135-7.791-5.8,0-9.156,3.087-9.156,7.791S195.552,21.462,201.348,21.462Zm0-4.284c-2.667,0-3.969-1.323-3.969-3.486s1.3-3.507,3.969-3.507,3.906,1.365,3.906,3.507C205.254,15.813,204.015,17.178,201.348,17.178Zm22.47-1.113c-.126.714-.735,1.47-3.108,1.47-2.961,0-4.473-1.365-4.473-3.822,0-2.331,1.176-3.885,4.158-3.885,2.1,0,3.15.714,3.822,2.163l4.893-1.512c-1.449-3-4.788-4.578-8.673-4.578-5.649,0-9.408,3.213-9.408,7.98,0,4.242,3.423,7.581,9.3,7.581a7.431,7.431,0,0,0,4.788-1.281l.231.819h3.738V12.621H220.6v3.444Z" transform="translate(196.208 24)" fill="#1800e1"/>
    <path id="Line_702" data-name="Line 702" d="M-.011,39.128H-.5V0h.489Z" transform="translate(184.25 16)" fill="#707070"/>
    <g id="Group_81409" data-name="Group 81409" transform="translate(113 16.001)">
      <g id="Group_82979" data-name="Group 82979" transform="translate(0 0)" clip-path="url(#clip-path)">
        <path id="Path_58700" data-name="Path 58700" d="M0,34.292H6.757a.391.391,0,0,1,.39.39v10.55h7.524V34.682a.389.389,0,0,1,.39-.39h6.754V28.668H0Z" transform="translate(0 -16.322)" fill="#1800e2"/>
        <path id="Path_58701" data-name="Path 58701" d="M75.692,28.67H73.586v0a.776.776,0,0,0-.692.4l-3.971,7.161h0a.388.388,0,0,1-.657.036.336.336,0,0,1-.022-.036.362.362,0,0,1-.022-.043l-3.947-7.119a.778.778,0,0,0-.694-.4v-.005h-9.3V45.234h7.191V37.093h0a.393.393,0,0,1,.047-.16.389.389,0,0,1,.659-.039h0l4.623,8.34h3.555l4.625-8.344,0,0h0a.389.389,0,0,1,.705.2h0v8.141h7.191V28.67Z" transform="translate(-30.904 -16.322)" fill="#1800e2"/>
        <path id="Path_58702" data-name="Path 58702" d="M107.209,6.433a15.434,15.434,0,0,0-4.461,5.073A21.944,21.944,0,0,1,117.28,7.873c-.893-1.927-5.268-4.686-10.071-1.441" transform="translate(-58.499 -2.81)" fill="#eb3c00"/>
        <path id="Path_58703" data-name="Path 58703" d="M64.958,6.436c1.133,1.863-1.978,4.736-1.978,4.736,5.212-.612,8.008-3.905,7.521-6.653C70.038,1.908,66.965,0,61.368,0A26.463,26.463,0,0,0,46.05,4.7c9.841-1.615,17.29-.928,18.908,1.737" transform="translate(-26.218 0)" fill="#ff7a00"/>
      </g>
    </g>
  </g>
</svg>
